<svg width="64" height="64" viewBox="0 0 64 64" fill="none" xmlns="http://www.w3.org/2000/svg">
<g clip-path="url(#clip0_1753_58332)">
<path d="M63.73 14.54C63.4451 10.8501 61.8503 7.38366 59.2334 4.76673C56.6165 2.14981 53.1498 0.554898 49.4599 0.27C40.4933 -0.09 31.52 -0.09 22.54 0.27C18.8006 0.518715 15.2869 2.14731 12.6802 4.83998L5.4199 12.1C2.42383 14.7877 0.579353 18.527 0.27 22.54C-0.09 31.5067 -0.09 40.48 0.27 49.46C0.556891 53.1492 2.1525 56.6145 4.76902 59.231C7.38555 61.8475 10.8508 63.4431 14.54 63.73C23.5067 64.09 32.4799 64.09 41.4599 63.73C44.7167 63.5075 47.8143 62.2376 50.29 60.11C53.7503 56.9981 57.0415 53.7034 60.1499 50.24C62.277 47.7871 63.5355 44.7009 63.73 41.46C64.09 32.4933 64.09 23.52 63.73 14.54ZM52.73 49.32C52.4815 52.2595 51.2023 55.0166 49.1181 57.1044C47.034 59.1922 44.2794 60.4764 41.3403 60.73C36.9103 60.91 32.43 61 28 61C23.57 61 19.0902 60.91 14.6802 60.73C11.7406 60.4815 8.98328 59.2023 6.89549 57.1181C4.80769 55.034 3.52363 52.2791 3.27 49.34C2.91 40.49 2.91 31.51 3.27 22.68C3.51847 19.7405 4.79768 16.9833 6.88182 14.8955C8.96595 12.8077 11.7211 11.5236 14.6601 11.27C19.0801 11.09 23.57 11 28 11C32.43 11 36.9203 11.09 41.3203 11.27C44.2598 11.5185 47.0167 12.7977 49.1045 14.8819C51.1923 16.966 52.4763 19.7209 52.73 22.66C53.09 31.48 53.09 40.48 52.73 49.32Z" fill="black"/>
<path d="M46.7204 23.28C46.568 21.7116 45.8642 20.2481 44.7345 19.1495C43.6048 18.0509 42.1225 17.3885 40.5505 17.28C36.2505 17.09 32.0202 17 28.0002 17C23.9802 17 19.7504 17.09 15.4504 17.28C13.879 17.3905 12.3975 18.0536 11.2682 19.1517C10.1389 20.2499 9.43478 21.7123 9.28043 23.28C8.91043 29.0908 8.91043 34.9192 9.28043 40.73C9.43285 42.2984 10.1361 43.7619 11.2658 44.8604C12.3955 45.959 13.8783 46.6214 15.4504 46.73C19.7504 46.92 23.9802 47.01 28.0002 47.01C32.0202 47.01 36.2505 46.92 40.5505 46.73C42.1218 46.6195 43.6033 45.9564 44.7326 44.8582C45.8619 43.76 46.566 42.2976 46.7204 40.73C47.0908 34.9192 47.0908 29.0907 46.7204 23.28ZM34.0002 26C34.0002 25.4695 34.211 24.9608 34.5861 24.5858C34.9612 24.2107 35.4697 24 36.0002 24C36.5306 24 37.0396 24.2107 37.4147 24.5858C37.7898 24.9608 38.0002 25.4695 38.0002 26V30C38.0002 30.5304 37.7898 31.0391 37.4147 31.4142C37.0396 31.7893 36.5306 32 36.0002 32C35.4697 32 34.9612 31.7893 34.5861 31.4142C34.211 31.0391 34.0002 30.5304 34.0002 30V26ZM18.0002 26C18.0002 25.4695 18.211 24.9608 18.5861 24.5858C18.9612 24.2107 19.4697 24 20.0002 24C20.5306 24 21.0396 24.2107 21.4147 24.5858C21.7898 24.9608 22.0002 25.4695 22.0002 26V30C22.0002 30.5304 21.7898 31.0391 21.4147 31.4142C21.0396 31.7893 20.5306 32 20.0002 32C19.4697 32 18.9612 31.7893 18.5861 31.4142C18.211 31.0391 18.0002 30.5304 18.0002 30V26ZM39.7902 36.61C37.7902 39.27 33.1102 41 28.0002 41C22.8902 41 18.2601 39.27 16.2101 36.61C16.0488 36.4003 15.9772 36.1352 16.0109 35.8728C16.0446 35.6104 16.1812 35.3721 16.3903 35.21C16.6 35.0487 16.8652 34.9771 17.1276 35.0108C17.39 35.0445 17.6281 35.1809 17.7902 35.39C19.4502 37.55 23.5602 39 28.0002 39C32.4402 39 36.5401 37.55 38.2101 35.39C38.3722 35.1809 38.6108 35.0445 38.8732 35.0108C39.1356 34.9771 39.4008 35.0487 39.6105 35.21C39.8196 35.3721 39.9557 35.6104 39.9894 35.8728C40.0232 36.1352 39.9515 36.4003 39.7902 36.61Z" fill="black"/>
</g>
<defs>
<clipPath id="clip0_1753_58332">
<rect width="64" height="64" fill="white"/>
</clipPath>
</defs>
</svg>
