<svg width="64" height="64" viewBox="0 0 64 64" fill="none" xmlns="http://www.w3.org/2000/svg">
<g clip-path="url(#clip0_1753_58325)">
<path d="M63.7299 14.54C63.445 10.8501 61.8502 7.38367 59.2333 4.76675C56.6164 2.14983 53.1498 0.554898 49.4599 0.27C40.4932 -0.09 31.52 -0.09 22.54 0.27C18.8005 0.518715 15.2868 2.14734 12.6801 4.84L5.42009 12.1C2.42401 14.7877 0.579292 18.527 0.269939 22.54C-0.090061 31.5133 -0.090061 40.4867 0.269939 49.46C0.55683 53.1492 2.15243 56.6145 4.76896 59.231C7.38549 61.8475 10.8508 63.4431 14.54 63.73C23.5133 64.09 32.4865 64.09 41.4599 63.73C44.7167 63.5075 47.8142 62.2376 50.29 60.11C53.7502 56.9981 57.0417 53.7034 60.1501 50.24C62.2772 47.7871 63.5354 44.7009 63.7299 41.46C64.0899 32.4933 64.0899 23.52 63.7299 14.54ZM52.7299 49.32C52.4814 52.2595 51.2022 55.0167 49.1181 57.1045C47.0339 59.1923 44.2791 60.4764 41.34 60.73C36.91 60.91 32.4299 61 27.9999 61C23.5699 61 19.0901 60.91 14.6801 60.73C11.7406 60.4815 8.98322 59.2022 6.89543 57.1181C4.80763 55.034 3.52357 52.2791 3.26994 49.34C2.90994 40.49 2.90994 31.51 3.26994 22.68C3.51841 19.7405 4.79762 16.9833 6.88176 14.8955C8.96589 12.8077 11.721 11.5236 14.6601 11.27C19.0801 11.09 23.5699 11 27.9999 11C32.4299 11 36.92 11.09 41.32 11.27C44.2595 11.5185 47.0166 12.7977 49.1044 14.8819C51.1922 16.966 52.4763 19.7209 52.7299 22.66C53.0699 31.51 53.0699 40.49 52.7299 49.32Z" fill="black"/>
<path d="M47.72 23.21C47.5446 21.3994 46.7331 19.7095 45.4295 18.4407C44.1259 17.1719 42.4148 16.4064 40.6001 16.28C36.4101 16.1 32.18 16 28 16C23.82 16 19.5902 16.1 15.4102 16.28C13.5948 16.4044 11.8824 17.1693 10.5784 18.4385C9.27443 19.7077 8.46352 21.3986 8.29007 23.21C7.91006 29.0638 7.91006 34.9362 8.29007 40.79C8.46125 42.6005 9.27023 44.2913 10.5725 45.5606C11.8749 46.83 13.5859 47.5953 15.4002 47.72C19.5902 47.9 23.82 48 28 48C32.18 48 36.4101 47.9 40.5901 47.72C42.4066 47.5959 44.1202 46.8313 45.4258 45.5623C46.7314 44.2933 47.5443 42.6022 47.72 40.79C48.1 34.9362 48.1 29.0638 47.72 23.21V23.21ZM45.72 40.65C45.5795 41.9702 44.9818 43.1996 44.0303 44.1255C43.0788 45.0514 41.8335 45.6155 40.51 45.72C36.36 45.91 32.16 46 28.01 46C23.86 46 19.66 45.91 15.51 45.72C14.1865 45.6155 12.9412 45.0514 11.9898 44.1255C11.0383 43.1996 10.4406 41.9702 10.3001 40.65C9.92008 34.8896 9.92008 29.1104 10.3001 23.35C10.4406 22.0298 11.0383 20.8004 11.9898 19.8745C12.9412 18.9486 14.1865 18.3845 15.51 18.28C19.66 18.09 23.86 18 28.01 18C32.16 18 36.37 18.09 40.51 18.28C41.8335 18.3845 43.0788 18.9486 44.0303 19.8745C44.9818 20.8004 45.5795 22.0298 45.72 23.35C46.0967 29.1106 46.0933 34.8898 45.71 40.65H45.72Z" fill="black"/>
<path fill-rule="evenodd" clip-rule="evenodd" d="M20 24C20.5304 24 21.0392 24.2107 21.4143 24.5858C21.7894 24.9609 22 25.4696 22 26V30C22 30.5304 21.7894 31.0391 21.4143 31.4142C21.0392 31.7893 20.5304 32 20 32C19.4696 32 18.961 31.7893 18.5859 31.4142C18.2109 31.0391 18 30.5304 18 30V26C18 25.4696 18.2109 24.9609 18.5859 24.5858C18.961 24.2107 19.4696 24 20 24ZM27.9999 41C22.8899 41 18.2598 39.28 16.2098 36.61C16.067 36.3993 16.01 36.1421 16.0502 35.8907C16.0904 35.6394 16.2249 35.4128 16.4264 35.2572C16.6279 35.1017 16.8811 35.0288 17.1344 35.0534C17.3878 35.0781 17.6222 35.1985 17.7899 35.39C19.4599 37.55 23.5599 39 27.9999 39C32.4399 39 36.5498 37.55 38.2098 35.39C38.2865 35.277 38.3855 35.1809 38.5006 35.1076C38.6158 35.0343 38.7447 34.9853 38.8795 34.9637C39.0143 34.9422 39.1523 34.9484 39.2846 34.9821C39.4168 35.0158 39.5408 35.0762 39.6488 35.1597C39.7569 35.2431 39.8467 35.3478 39.9127 35.4672C39.9788 35.5867 40.0196 35.7184 40.0328 35.8543C40.0461 35.9902 40.0314 36.1273 39.9896 36.2573C39.9478 36.3872 39.8799 36.5073 39.7899 36.61C37.7399 39.28 33.0699 41 27.9999 41ZM37.4143 24.5858C37.0392 24.2107 36.5304 24 36 24C35.4696 24 34.961 24.2107 34.5859 24.5858C34.2109 24.9609 34 25.4696 34 26V30C34 30.5304 34.2109 31.0391 34.5859 31.4142C34.961 31.7893 35.4696 32 36 32C36.5304 32 37.0392 31.7893 37.4143 31.4142C37.7894 31.0391 38 30.5304 38 30V26C38 25.4696 37.7894 24.9609 37.4143 24.5858Z" fill="black"/>
</g>
<defs>
<clipPath id="clip0_1753_58325">
<rect width="64" height="64" fill="white"/>
</clipPath>
</defs>
</svg>
