<svg width="17" height="18" viewBox="0 0 17 18" fill="none" xmlns="http://www.w3.org/2000/svg">
<path d="M1.25 17.9999C1.05109 17.9999 0.860322 17.9209 0.71967 17.7803C0.579018 17.6396 0.5 17.4489 0.5 17.2499V0.749949C0.49999 0.619612 0.533947 0.491523 0.598521 0.378308C0.663096 0.265093 0.75606 0.170661 0.868249 0.104319C0.980438 0.0379778 1.10798 0.0020178 1.2383 -1.55193e-05C1.36862 -0.00204884 1.49722 0.0299147 1.61143 0.0927238L16.6114 8.34272C16.7291 8.40744 16.8273 8.50257 16.8956 8.61817C16.964 8.73377 17 8.86561 17 8.99991C17 9.13421 16.964 9.26605 16.8956 9.38165C16.8273 9.49726 16.7291 9.59238 16.6114 9.6571L1.61143 17.9071C1.50069 17.968 1.37637 17.9999 1.25 17.9999ZM2 2.01812V15.9815L14.6936 8.99995L2 2.01812Z" fill="black"/>
</svg>
