<svg width="14" height="14" viewBox="0 0 14 14" fill="none" xmlns="http://www.w3.org/2000/svg">
<path d="M12.5 7.38002C12.5 7.25502 12.5 7.13002 12.5 7.00002C12.5 6.87002 12.5 6.74502 12.5 6.61502L13.46 5.77502C13.637 5.61905 13.7531 5.40553 13.7879 5.17222C13.8226 4.93891 13.7738 4.70081 13.65 4.50002L12.47 2.50002C12.3823 2.34815 12.2562 2.22201 12.1044 2.13425C11.9526 2.04649 11.7804 2.0002 11.605 2.00002C11.4963 1.99919 11.3882 2.01608 11.285 2.05002L10.07 2.46002C9.86023 2.32062 9.64142 2.19535 9.415 2.08502L9.16 0.82502C9.11428 0.594823 8.98905 0.38804 8.80623 0.240871C8.62341 0.0937022 8.39466 0.0155233 8.16001 0.0200201H5.82C5.58535 0.0155233 5.3566 0.0937022 5.17378 0.240871C4.99096 0.38804 4.86573 0.594823 4.82 0.82502L4.565 2.08502C4.33697 2.19532 4.11649 2.32059 3.905 2.46002L2.715 2.03002C2.61065 2.00283 2.50259 1.9927 2.395 2.00002C2.21964 2.0002 2.04741 2.04649 1.89559 2.13425C1.74376 2.22201 1.61769 2.34815 1.53 2.50002L0.350004 4.50002C0.233298 4.70051 0.18993 4.93535 0.227329 5.1643C0.264728 5.39326 0.380566 5.60208 0.555004 5.75502L1.5 6.62002C1.5 6.74502 1.5 6.87002 1.5 7.00002C1.5 7.13002 1.5 7.25502 1.5 7.38502L0.555004 8.22502C0.375639 8.37902 0.256632 8.59159 0.219104 8.82499C0.181575 9.0584 0.227952 9.29756 0.350004 9.50002L1.53 11.5C1.61769 11.6519 1.74376 11.778 1.89559 11.8658C2.04741 11.9535 2.21964 11.9998 2.395 12C2.50368 12.0009 2.61176 11.984 2.715 11.95L3.93 11.54C4.13977 11.6794 4.35859 11.8047 4.585 11.915L4.84 13.175C4.88573 13.4052 5.01096 13.612 5.19378 13.7592C5.3766 13.9063 5.60535 13.9845 5.84 13.98H8.20001C8.43466 13.9845 8.66341 13.9063 8.84623 13.7592C9.02905 13.612 9.15428 13.4052 9.2 13.175L9.455 11.915C9.68304 11.8047 9.90352 11.6794 10.115 11.54L11.325 11.95C11.4282 11.984 11.5363 12.0009 11.645 12C11.8204 11.9998 11.9926 11.9535 12.1444 11.8658C12.2962 11.778 12.4223 11.6519 12.51 11.5L13.65 9.50002C13.7667 9.29953 13.8101 9.06469 13.7727 8.83574C13.7353 8.60678 13.6194 8.39796 13.445 8.24502L12.5 7.38002ZM11.605 11L9.89001 10.42C9.48854 10.7601 9.0297 11.0259 8.535 11.205L8.18001 13H5.82L5.465 11.225C4.97422 11.0408 4.51786 10.7754 4.115 10.44L2.395 11L1.215 9.00002L2.575 7.80002C2.48255 7.28245 2.48255 6.75259 2.575 6.23502L1.215 5.00002L2.395 3.00002L4.11 3.58002C4.51147 3.23997 4.97031 2.97415 5.465 2.79502L5.82 1.00002H8.18001L8.535 2.77502C9.02579 2.95923 9.48215 3.22459 9.885 3.56002L11.605 3.00002L12.785 5.00002L11.425 6.20002C11.5175 6.71759 11.5175 7.24745 11.425 7.76502L12.785 9.00002L11.605 11Z" fill="white"/>
<path d="M7.00001 10C6.40666 10 5.82664 9.82407 5.33329 9.49443C4.83995 9.16478 4.45543 8.69625 4.22837 8.14807C4.0013 7.59989 3.94189 6.99669 4.05765 6.41475C4.1734 5.83281 4.45913 5.29826 4.87868 4.8787C5.29824 4.45914 5.83279 4.17342 6.41473 4.05766C6.99668 3.94191 7.59988 4.00132 8.14806 4.22838C8.69623 4.45544 9.16477 4.83996 9.49441 5.33331C9.82406 5.82666 10 6.40668 10 7.00002C10.004 7.3951 9.92916 7.78701 9.77981 8.1528C9.63047 8.51859 9.40964 8.8509 9.13027 9.13028C8.85089 9.40966 8.51857 9.63049 8.15278 9.77983C7.787 9.92917 7.39509 10.004 7.00001 10ZM7.00001 5.00002C6.73568 4.99386 6.47285 5.04139 6.22741 5.13972C5.98198 5.23805 5.75904 5.38514 5.57208 5.5721C5.38512 5.75905 5.23803 5.98199 5.1397 6.22743C5.04137 6.47286 4.99385 6.73569 5 7.00002C4.99385 7.26435 5.04137 7.52718 5.1397 7.77261C5.23803 8.01805 5.38512 8.24099 5.57208 8.42794C5.75904 8.6149 5.98198 8.762 6.22741 8.86032C6.47285 8.95865 6.73568 9.00618 7.00001 9.00002C7.26433 9.00618 7.52716 8.95865 7.7726 8.86032C8.01803 8.762 8.24097 8.6149 8.42793 8.42794C8.61489 8.24099 8.76198 8.01805 8.86031 7.77261C8.95864 7.52718 9.00616 7.26435 9 7.00002C9.00616 6.73569 8.95864 6.47286 8.86031 6.22743C8.76198 5.98199 8.61489 5.75905 8.42793 5.5721C8.24097 5.38514 8.01803 5.23805 7.7726 5.13972C7.52716 5.04139 7.26433 4.99386 7.00001 5.00002Z" fill="white"/>
</svg>
