<svg width="132" height="38" viewBox="0 0 132 38" fill="none" xmlns="http://www.w3.org/2000/svg">
<g filter="url(#filter0_d_4171_71937)">
<path d="M1.06439 10.5677C0.561995 9.93803 0.969717 9.0008 1.77039 8.94481L128.143 0.108012C128.906 0.0545998 129.442 0.852512 129.107 1.54426L126.717 6.47298C126.561 6.79402 126.588 7.17428 126.786 7.47053L130.454 12.9354C130.667 13.2532 130.681 13.6653 130.49 13.9967L127.071 19.9198C126.867 20.2738 126.898 20.7174 127.15 21.0394L130.585 25.4381C131.079 26.0693 130.669 26.9973 129.873 27.0529L3.2136 35.9098C2.51449 35.9587 1.98515 35.2849 2.1946 34.6127L3.7976 29.4685C3.87254 29.228 3.85435 28.9678 3.74667 28.7401L1.04479 23.0262C0.90241 22.7251 0.918561 22.3726 1.08786 22.0862L4.63665 16.0819C4.84842 15.7236 4.81675 15.2707 4.55717 14.9454L1.06439 10.5677Z" fill="#F97320"/>
</g>
<path d="M12.4507 28.3237C12.1558 28.2191 11.9606 28.0134 11.8651 27.7068C11.7976 27.4975 11.801 27.2936 11.8753 27.0953L15.6491 16.7757C15.7581 16.4809 15.9659 16.2862 16.2723 16.1917C16.5079 16.1283 16.7336 16.1438 16.9494 16.2384C17.1659 16.3433 17.3205 16.4943 17.4133 16.6915L22.1993 26.6631C22.3416 26.9664 22.3294 27.2649 22.1629 27.5585C22.0607 27.7327 21.9238 27.8597 21.752 27.9396C21.449 28.0809 21.1504 28.0678 20.8562 27.9004C20.6816 27.7978 20.554 27.6605 20.4736 27.4886L16.6674 19.563L13.6779 27.7524C13.5741 28.0468 13.369 28.2413 13.0625 28.3358C12.8529 28.3974 12.649 28.3934 12.4507 28.3237ZM20.7913 24.5452C20.7832 24.8643 20.6476 25.1165 20.3844 25.302C20.2101 25.4186 20.0211 25.4762 19.8173 25.4748L13.9335 25.3537C13.6091 25.3451 13.3537 25.2089 13.1674 24.9452C13.0502 24.7707 12.9922 24.5842 12.9933 24.3857C13.001 24.0614 13.1388 23.8038 13.4069 23.6128C13.5811 23.4962 13.7676 23.4388 13.9661 23.4405L19.8499 23.5616C20.1688 23.5654 20.4243 23.7042 20.6167 23.9779C20.7339 24.1525 20.7921 24.3416 20.7913 24.5452Z" fill="#FCF3EE"/>
<path d="M24.5189 15.5916C24.8443 15.5427 25.1206 15.6435 25.3478 15.8939C25.4839 16.041 25.5669 16.2127 25.5969 16.409C25.785 17.769 25.9229 19.0489 26.0106 20.2488C26.1236 21.7968 26.185 23.5311 26.1948 25.4518L31.4823 25.2387C31.8104 25.2262 32.0752 25.3486 32.2768 25.606C32.4036 25.7694 32.4717 25.95 32.4809 26.1478C32.4944 26.4757 32.3727 26.7401 32.1158 26.9408C31.9579 27.0667 31.7774 27.1341 31.5744 27.1431L25.2798 27.4031C24.9777 27.4138 24.7214 27.3012 24.511 27.0653C24.3567 26.8829 24.2789 26.6769 24.2778 26.4473C24.285 24.1861 24.2235 22.1646 24.0934 20.3829C23.9966 19.0583 23.867 17.8195 23.7044 16.6666C23.6545 16.3412 23.7545 16.0653 24.0043 15.839C24.151 15.7034 24.3226 15.621 24.5189 15.5916Z" fill="#FCF3EE"/>
<path d="M33.909 17.7778C33.6437 17.5771 33.5194 17.3064 33.5363 16.9659C33.5479 16.7667 33.6107 16.59 33.7248 16.4358C34.2818 15.6973 35.1263 15.1396 36.2581 14.7629C36.8442 14.5652 37.4334 14.4457 38.0257 14.4043C39.1687 14.3244 40.1931 14.6208 41.0986 15.2937C41.9429 15.9134 42.5147 16.7349 42.814 17.7581C42.9173 18.1007 42.9821 18.4512 43.0083 18.8096C43.0956 20.0044 42.7047 21.0524 41.8358 21.9538C41.1269 22.6873 40.2371 23.1959 39.1664 23.4796C38.8077 23.5726 38.4542 23.6312 38.1061 23.6556C37.0047 23.7326 36.1438 23.6727 35.5237 23.4759C35.23 23.3868 35.0279 23.1947 34.9176 22.8996C34.8445 22.6854 34.8397 22.4769 34.9032 22.2741C34.9963 21.9752 35.1931 21.7735 35.4935 21.6689C35.6916 21.5924 35.8922 21.5862 36.0953 21.6503C36.3092 21.7189 36.7872 21.756 37.5291 21.7615C37.7121 21.7644 37.8581 21.762 37.9673 21.7544C38.8038 21.6959 39.5345 21.4046 40.1594 20.8806C40.7202 20.408 41.0336 19.8718 41.0994 19.272C41.1118 19.1563 41.1143 19.0465 41.1067 18.9426C41.0483 18.1427 40.7369 17.4909 40.1727 16.9874C39.6037 16.4894 38.9347 16.2673 38.1657 16.3211C37.4747 16.3694 36.78 16.5824 36.0817 16.9602C35.6849 17.1759 35.408 17.3884 35.251 17.5978C35.051 17.8624 34.7806 17.9857 34.4399 17.9678C34.2405 17.9556 34.0636 17.8923 33.909 17.7778ZM35.905 15.3984C36.229 15.4019 36.4868 15.5352 36.6784 15.7986C36.8004 15.9675 36.861 16.1539 36.8602 16.3575L36.8712 26.0522C36.8691 26.3813 36.7367 26.6412 36.4738 26.8318C36.3103 26.9529 36.1267 27.0127 35.9229 27.0113C35.5937 27.0082 35.3333 26.875 35.1418 26.6117C35.0197 26.4427 34.9593 26.259 34.9605 26.0605L34.9484 16.3503C34.9508 16.0264 35.0835 15.7691 35.3463 15.5784C35.515 15.457 35.7012 15.397 35.905 15.3984Z" fill="#FCF3EE"/>
<path d="M51.9107 13.6761C52.2369 13.6377 52.5108 13.7412 52.7324 13.9868C52.8637 14.1394 52.9417 14.3141 52.9665 14.5108L54.1879 24.904C54.2273 25.2301 54.1246 25.5036 53.8796 25.7243C53.7273 25.8551 53.5528 25.9325 53.3561 25.9567C53.0299 25.9952 52.756 25.8917 52.5344 25.6461C52.3976 25.4886 52.3168 25.3115 52.2919 25.1149L51.0718 14.7372C51.0323 14.4111 51.135 14.1376 51.38 13.9169C51.5371 13.7806 51.7141 13.7003 51.9107 13.6761ZM54.223 19.7014C54.2313 20.0297 54.1042 20.2918 53.8418 20.4877C53.6779 20.6036 53.4971 20.6658 53.2992 20.6744C50.9013 20.7325 48.5229 20.844 46.1641 21.0089C45.8367 21.0318 45.5697 20.9147 45.3629 20.6577C45.2309 20.4946 45.1577 20.3144 45.1433 20.117C45.1194 19.7898 45.2355 19.5206 45.4916 19.3095C45.6491 19.1784 45.8266 19.1059 46.0241 19.0921C48.1647 18.9424 50.5694 18.8343 53.2383 18.7678C53.5616 18.7608 53.824 18.8861 54.0256 19.1435C54.1476 19.3125 54.2134 19.4984 54.223 19.7014ZM46.2293 14.0734C46.557 14.0557 46.8242 14.1754 47.031 14.4324C47.1575 14.5907 47.2279 14.7685 47.2423 14.9659C47.497 18.9526 47.5825 22.4108 47.4988 25.3404C47.4908 25.6594 47.3525 25.9119 47.0841 26.0977C46.9102 26.2195 46.7212 26.2771 46.5171 26.2705C46.1979 26.2615 45.9449 26.1226 45.7581 25.8537C45.6357 25.6795 45.5775 25.4904 45.5835 25.2864C45.6619 22.284 45.5806 18.883 45.3396 15.0833C45.3209 14.7556 45.4398 14.4889 45.6963 14.283C45.8542 14.1571 46.0319 14.0872 46.2293 14.0734Z" fill="#FCF3EE"/>
<path d="M57.2276 25.1926C56.9327 25.0879 56.7375 24.8823 56.642 24.5757C56.5745 24.3664 56.5779 24.1625 56.6522 23.9642L60.426 13.6446C60.535 13.3498 60.7428 13.1551 61.0492 13.0606C61.2848 12.9972 61.5105 13.0127 61.7263 13.1072C61.9428 13.2122 62.0975 13.3632 62.1902 13.5604L66.9762 23.532C67.1185 23.8353 67.1063 24.1338 66.9398 24.4273C66.8376 24.6016 66.7007 24.7286 66.5289 24.8085C66.2259 24.9498 65.9273 24.9367 65.6331 24.7693C65.4585 24.6667 65.331 24.5294 65.2505 24.3575L61.4443 16.4319L58.4548 24.6213C58.351 24.9157 58.1459 25.1101 57.8394 25.2047C57.6298 25.2663 57.4259 25.2623 57.2276 25.1926ZM65.5682 21.4141C65.5601 21.7332 65.4245 21.9854 65.1613 22.1709C64.987 22.2875 64.798 22.3451 64.5943 22.3437L58.7104 22.2226C58.386 22.214 58.1307 22.0778 57.9443 21.8141C57.8271 21.6396 57.7691 21.4531 57.7702 21.2546C57.7779 20.9303 57.9157 20.6727 58.1838 20.4817C58.358 20.3651 58.5445 20.3076 58.743 20.3094L64.6268 20.4305C64.9457 20.4343 65.2012 20.5731 65.3936 20.8468C65.5108 21.0214 65.569 21.2105 65.5682 21.4141Z" fill="#FCF3EE"/>
<path d="M74.1848 17.9061C74.1402 17.5803 74.2401 17.3044 74.4847 17.0785C74.6371 16.9477 74.8114 16.8677 75.0077 16.8383C75.1216 16.8251 75.3413 16.7941 75.6667 16.7452C76.509 16.6237 77.0679 16.5533 77.3433 16.534C78.7773 16.4337 79.9121 16.7068 80.7479 17.3532C81.512 17.9472 81.934 18.7922 82.0141 19.8882C82.1158 21.2803 81.601 22.3475 80.4698 23.0897C79.6823 23.6042 78.73 23.9005 77.6129 23.9786C76.6569 24.0455 75.7773 23.979 74.9742 23.7794C74.6764 23.7062 74.4597 23.5282 74.3242 23.2453C74.2363 23.0426 74.2159 22.8352 74.2631 22.623C74.3353 22.3256 74.5128 22.1096 74.7954 21.975C74.9975 21.8825 75.205 21.8628 75.4177 21.9158C76.0976 22.0719 76.783 22.1257 77.474 22.0774C79.2613 21.9524 80.1379 21.2986 80.1037 20.1158C80.1014 20.0846 80.0992 20.0534 80.0969 20.0223C80.0464 19.3314 79.8011 18.8682 79.3609 18.6327C78.959 18.4207 78.3319 18.3444 77.4799 18.404C77.3604 18.4124 76.7249 18.5064 75.5735 18.6861C75.4392 18.706 75.3332 18.7212 75.2557 18.7318C74.9298 18.7755 74.6535 18.6747 74.4267 18.4296C74.2955 18.2769 74.2149 18.1024 74.1848 17.9061ZM75.1953 23.8031C74.8712 23.7996 74.6134 23.6662 74.4219 23.4029C74.2999 23.2339 74.2392 23.0476 74.24 22.8439C74.2462 21.3555 74.1852 19.7334 74.0569 17.9777C73.9526 16.5492 73.7778 15.0499 73.5325 13.4799C73.4771 13.1496 73.5741 12.8687 73.8235 12.6372C73.9706 12.5069 74.1396 12.4246 74.3303 12.3904C74.6605 12.3359 74.9418 12.4337 75.1742 12.6838C75.3051 12.8312 75.3879 13.0003 75.4228 13.1911C75.6699 14.7871 75.8456 16.2994 75.95 17.7278C76.0854 19.5823 76.1527 21.2901 76.1519 22.8512C76.1494 23.1751 76.0168 23.4324 75.7539 23.623C75.5853 23.7445 75.399 23.8045 75.1953 23.8031ZM73.6142 13.7405C73.472 13.4371 73.4867 13.1385 73.6585 12.8446C73.7662 12.6752 73.9033 12.5507 74.0699 12.4712C75.0494 12.0111 76.0145 11.7479 76.9653 11.6814C77.8953 11.6163 78.7267 11.8088 79.4593 12.2588C80.3127 12.7891 80.8178 13.5552 80.9745 14.5571C80.9869 14.6555 80.9967 14.754 81.0039 14.8527C81.1064 16.2552 80.2972 17.2959 78.5765 17.9749C77.7542 18.2987 76.667 18.5366 75.3152 18.6885C75.284 18.6907 75.258 18.6925 75.2372 18.694C74.8954 18.7335 74.6164 18.6304 74.4 18.3844C74.2798 18.2414 74.2078 18.0768 74.1837 17.8905C74.1438 17.5592 74.2518 17.2853 74.5075 17.0691C74.6551 16.9439 74.8244 16.8668 75.0155 16.8377C76.9247 16.5946 78.1508 16.2217 78.6937 15.7191C78.9769 15.4487 79.1079 15.1341 79.087 14.7753C79.0448 14.1987 78.7098 13.8305 78.082 13.6708C77.7998 13.5966 77.4742 13.5724 77.1053 13.5981C76.3623 13.6501 75.6224 13.8506 74.8854 14.1998C74.5824 14.341 74.2836 14.3254 73.989 14.1528C73.8192 14.0446 73.6943 13.9072 73.6142 13.7405Z" fill="#FCF3EE"/>
<path d="M85.1442 11.2269C85.4501 11.2682 85.681 11.4269 85.837 11.7032C85.9453 11.8992 85.9863 12.1026 85.9599 12.3133C85.7155 14.0429 85.6399 15.5466 85.7332 16.8244C85.877 18.7932 86.2598 20.1004 86.8814 20.7461C87.2881 21.1667 87.8188 21.354 88.4734 21.3083C90.2399 21.1847 90.9971 18.8606 90.7449 14.336C90.7334 14.1071 90.7193 13.8783 90.7026 13.6498C90.6613 13.0836 90.5936 12.407 90.4995 11.6199C90.4601 11.2938 90.5628 11.0203 90.8078 10.7996C90.9601 10.6688 91.1346 10.5914 91.3313 10.5672C91.6575 10.5287 91.9344 10.6373 92.1619 10.8928C92.288 11.0459 92.3658 11.2179 92.3955 11.409C92.5018 12.2213 92.5766 12.9235 92.6198 13.5157C92.7693 15.5623 92.7564 17.2079 92.5809 18.4523C92.1481 21.4638 90.8252 23.0495 88.6123 23.2095C86.3314 23.3689 84.854 22.0887 84.1801 19.3687C84.003 18.6605 83.8817 17.8572 83.816 16.9585C83.7128 15.5456 83.7923 13.9163 84.0543 12.0706C84.0584 12.0547 84.0602 12.0441 84.0599 12.0389C84.1002 11.7333 84.2583 11.5029 84.5342 11.3479C84.73 11.2402 84.9333 11.1999 85.1442 11.2269Z" fill="#FCF3EE"/>
<path d="M96.5652 22.7708C96.2371 22.7833 95.9723 22.6609 95.7707 22.4035C95.6438 22.24 95.5758 22.0594 95.5666 21.8617L95.0648 11.2381C95.0513 10.9101 95.1729 10.6457 95.4298 10.445C95.593 10.3188 95.7734 10.2513 95.9712 10.2427C96.2993 10.2302 96.5641 10.3527 96.7657 10.6101C96.8925 10.7735 96.9606 10.9541 96.9698 11.1518L97.4716 21.7755C97.4851 22.1034 97.3634 22.3678 97.1066 22.5685C96.9434 22.6948 96.763 22.7622 96.5652 22.7708Z" fill="#FCF3EE"/>
<path d="M100.294 10.2929C100.619 10.244 100.896 10.3448 101.123 10.5952C101.259 10.7423 101.342 10.914 101.372 11.1103C101.56 12.4703 101.698 13.7502 101.786 14.9501C101.899 16.4981 101.96 18.2324 101.97 20.1531L107.257 19.9399C107.585 19.9275 107.85 20.0499 108.052 20.3073C108.179 20.4707 108.247 20.6513 108.256 20.8491C108.269 21.177 108.148 21.4414 107.891 21.6421C107.733 21.768 107.552 21.8354 107.349 21.8444L101.055 22.1044C100.753 22.1151 100.496 22.0025 100.286 21.7666C100.132 21.5842 100.054 21.3782 100.053 21.1486C100.06 18.8874 99.9985 16.8659 99.8683 15.0842C99.7716 13.7596 99.6419 12.5208 99.4794 11.3679C99.4295 11.0425 99.5295 10.7666 99.7793 10.5403C99.926 10.4047 100.098 10.3223 100.294 10.2929Z" fill="#FCF3EE"/>
<path d="M111.714 11.2094C111.876 12.2161 111.998 13.2727 112.079 14.3792C112.209 16.1609 112.248 17.8759 112.196 19.5241C112.519 19.5851 112.829 19.6052 113.125 19.5845C114.221 19.5078 115.133 19.0942 115.862 18.3436C116.571 17.6101 116.967 16.7105 117.051 15.6447C117.069 15.3929 117.069 15.1423 117.051 14.8929C116.879 12.5398 115.621 11.2886 113.276 11.1394C112.919 11.1173 112.543 11.1201 112.148 11.1477C111.987 11.159 111.842 11.1795 111.714 11.2094ZM110.338 9.53566C110.885 9.37212 111.442 9.27055 112.008 9.23094C113.775 9.10742 115.264 9.43925 116.475 10.2264C117.764 11.0657 118.557 12.3102 118.855 13.9601C118.9 14.218 118.933 14.4846 118.953 14.76C119.057 16.1884 118.745 17.4868 118.015 18.6551C117.337 19.7415 116.411 20.532 115.235 21.0267C114.612 21.2843 113.955 21.4373 113.264 21.4857C112.469 21.5412 111.689 21.4522 110.925 21.2184C110.637 21.129 110.435 20.9343 110.319 20.6343C110.267 20.5022 110.245 20.3732 110.251 20.2475C110.349 18.4394 110.324 16.5276 110.177 14.5121C110.09 13.3174 109.927 12.0549 109.689 10.7245C109.686 10.6881 109.681 10.6545 109.674 10.6237C109.614 10.3094 109.706 10.0289 109.949 9.78217C110.071 9.664 110.201 9.58183 110.338 9.53566Z" fill="#FCF3EE"/>
<defs>
<filter id="filter0_d_4171_71937" x="0.843994" y="0.105469" width="129.956" height="37.8066" filterUnits="userSpaceOnUse" color-interpolation-filters="sRGB">
<feFlood flood-opacity="0" result="BackgroundImageFix"/>
<feColorMatrix in="SourceAlpha" type="matrix" values="0 0 0 0 0 0 0 0 0 0 0 0 0 0 0 0 0 0 127 0" result="hardAlpha"/>
<feOffset dy="2"/>
<feComposite in2="hardAlpha" operator="out"/>
<feColorMatrix type="matrix" values="0 0 0 0 0 0 0 0 0 0 0 0 0 0 0 0 0 0 0.1 0"/>
<feBlend mode="normal" in2="BackgroundImageFix" result="effect1_dropShadow_4171_71937"/>
<feBlend mode="normal" in="SourceGraphic" in2="effect1_dropShadow_4171_71937" result="shape"/>
</filter>
</defs>
</svg>
