<svg width="35" height="34" viewBox="0 0 35 34" fill="none" xmlns="http://www.w3.org/2000/svg">
<g clip-path="url(#clip0_4743_56521)">
<rect x="0.666504" width="34" height="34" rx="5" fill="white"/>
<rect x="5.6665" y="5" width="24" height="24" rx="4" fill="#FB9241"/>
<path d="M13.2097 10.5239C15.1365 7.00085 20.1965 7.00085 22.1233 10.5239C22.5895 11.3763 23.2902 12.077 24.1426 12.5432C27.6657 14.47 27.6657 19.53 24.1426 21.4568C23.2902 21.923 22.5895 22.6237 22.1233 23.4761C20.1965 26.9992 15.1365 26.9992 13.2097 23.4761C12.7436 22.6237 12.0428 21.923 11.1904 21.4568C7.66735 19.53 7.66735 14.47 11.1904 12.5432C12.0428 12.077 12.7436 11.3763 13.2097 10.5239Z" fill="white"/>
</g>
<defs>
<clipPath id="clip0_4743_56521">
<rect width="34" height="34" fill="white" transform="translate(0.666504)"/>
</clipPath>
</defs>
</svg>
