<svg width="35" height="34" viewBox="0 0 35 34" fill="none" xmlns="http://www.w3.org/2000/svg">
<g clip-path="url(#clip0_4743_56511)">
<rect x="0.333496" width="34" height="34" rx="5" fill="white"/>
<path d="M15.0377 7.76435C16.3843 6.70308 18.2827 6.70308 19.6293 7.76435C20.3834 8.35873 21.2872 8.73308 22.2407 8.84605C23.9433 9.04777 25.2857 10.3902 25.4874 12.0928C25.6004 13.0463 25.9748 13.9501 26.5691 14.7042C27.6304 16.0508 27.6304 17.9492 26.5691 19.2958C25.9748 20.0499 25.6004 20.9537 25.4874 21.9072C25.2857 23.6098 23.9433 24.9522 22.2407 25.1539C21.2872 25.2669 20.3834 25.6413 19.6293 26.2356C18.2827 27.2969 16.3843 27.2969 15.0377 26.2356C14.2836 25.6413 13.3798 25.2669 12.4263 25.1539C10.7237 24.9522 9.38126 23.6098 9.17955 21.9072C9.06657 20.9537 8.69222 20.0499 8.09785 19.2958C7.03657 17.9492 7.03657 16.0508 8.09785 14.7042C8.69222 13.9501 9.06657 13.0463 9.17955 12.0928C9.38126 10.3902 10.7237 9.04777 12.4263 8.84605C13.3798 8.73308 14.2836 8.35873 15.0377 7.76435Z" stroke="#000002" stroke-opacity="0.85" stroke-width="1.5"/>
<rect width="6" height="6" rx="3" transform="matrix(1 0 0 -1 14.3335 20)" fill="#3EBB64"/>
</g>
<defs>
<clipPath id="clip0_4743_56511">
<rect width="34" height="34" fill="white" transform="translate(0.333496)"/>
</clipPath>
</defs>
</svg>
