<svg viewBox="0 0 24 24" fill="none" xmlns="http://www.w3.org/2000/svg">
<path d="M14.3758 4.23245L21.6935 16.9973C21.9454 17.4412 22.075 17.9295 22.075 18.3988C22.075 19.9173 20.9938 21.1586 19.3081 21.1586H4.69484C3.00616 21.1586 1.92505 19.9173 1.92505 18.3988C1.92505 17.9295 2.04474 17.4477 2.30653 17.0004L9.62418 4.23245C10.1434 3.31019 11.0653 2.84131 12.003 2.84131C12.9377 2.84131 13.8441 3.30416 14.3758 4.23245ZM10.7708 16.7467C10.7708 17.408 11.3266 17.8807 12.0125 17.8807C12.6919 17.8807 13.2417 17.4144 13.2417 16.7467C13.2417 16.0785 12.7014 15.6092 12.0125 15.6092C11.3202 15.6092 10.7708 16.082 10.7708 16.7467ZM10.8957 9.12049L11.0369 13.5989C11.0614 14.2064 11.4084 14.5478 12.0125 14.5478C12.5941 14.5478 12.9381 14.2129 12.9627 13.5928L13.1168 9.12695C13.1414 8.48935 12.6652 8.0416 12.003 8.0416C11.3279 8.0416 10.8712 8.48289 10.8957 9.12049Z" fill="currentColor" fill-opacity="0.85"/>
</svg>
