<svg width="16" height="16" viewBox="0 0 16 16" fill="none" xmlns="http://www.w3.org/2000/svg">
<path d="M3.26641 3.54077C2.96173 3.84546 2.98077 4.24536 3.23468 4.46753C3.49493 4.70239 3.86309 4.70239 4.16778 4.4104C5.11358 3.38208 6.48468 2.73462 8.00177 2.73462C10.6868 2.73462 12.8577 4.70874 13.2068 7.24146H12.2483C11.7659 7.24146 11.6326 7.59692 11.9119 7.99048L13.4227 10.1233C13.6512 10.4407 14.0003 10.4407 14.2352 10.1233L15.7459 7.99683C16.0316 7.60327 15.8983 7.24146 15.4095 7.24146H14.5208C14.1463 4.02319 11.3533 1.4397 8.00177 1.4397C6.13556 1.4397 4.43438 2.26489 3.26641 3.54077ZM0.251278 8.00317C-0.028019 8.39673 0.0989341 8.75854 0.587704 8.75854H1.48907C1.85723 11.9768 4.6502 14.5603 8.00177 14.5603C9.87432 14.5603 11.5755 13.7351 12.7498 12.4529C13.0482 12.1482 13.0291 11.7483 12.7752 11.5198C12.5149 11.2849 12.1531 11.2913 11.8421 11.5833C10.9026 12.6179 9.53155 13.2654 8.00177 13.2654C5.32306 13.2654 3.14581 11.2976 2.79669 8.75854H3.74884C4.23126 8.75854 4.36456 8.40308 4.08526 8.00952L2.57452 5.87671C2.346 5.55933 1.99688 5.55933 1.76837 5.87671L0.251278 8.00317Z" fill="currentColor"/>
</svg>
