<svg viewBox="0 0 24 24" fill="none" xmlns="http://www.w3.org/2000/svg">
<path d="M0.305583 12.0042C-0.148193 12.6306 0.0554496 13.2273 0.827848 13.2273H2.19231C2.77612 18.0188 6.95871 21.8789 12.0085 21.8789C14.7289 21.8789 17.1987 20.7157 18.9284 18.9197C19.4506 18.428 19.4424 17.7599 19.0579 17.3621C18.6614 16.9462 18.032 16.8964 17.4668 17.3915C16.1039 18.8159 14.1632 19.7082 12.0085 19.7082C8.09524 19.7082 4.94933 16.8594 4.39695 13.2273H5.83247C6.58937 13.2273 6.80205 12.6336 6.35172 12.0106L3.98887 8.7087C3.62248 8.19464 3.04429 8.1942 2.67446 8.7087L0.305583 12.0042ZM5.09491 5.08C4.56626 5.57167 4.57747 6.23337 4.96542 6.62813C5.36498 7.04698 5.9849 7.10331 6.55655 6.60823C7.92584 5.1932 9.86661 4.29148 12.0085 4.29148C15.9151 4.29148 19.0641 7.14029 19.623 10.7789H18.1723C17.4124 10.7789 17.1998 11.3661 17.6501 11.9955L20.0159 15.2974C20.3824 15.8115 20.9605 15.8119 21.3304 15.2974L23.6928 12.0019C24.1501 11.3691 23.943 10.7789 23.1705 10.7789H21.8276C21.2343 5.9874 17.0612 2.12085 12.0085 2.12085C9.28797 2.12085 6.82757 3.27747 5.09491 5.08Z" fill="currentColor" fill-opacity="0.85"/>
</svg>
