<svg width="10" height="8" viewBox="0 0 10 8" fill="none" xmlns="http://www.w3.org/2000/svg">
<path fill-rule="evenodd" clip-rule="evenodd" d="M3.45426 1.42826C3.90532 1.15647 4.43363 1 5 1C6.65685 1 8 2.34315 8 4H7L8.5 6.5L10 4H9C9 1.79086 7.20914 0 5 0C4.24671 0 3.54063 0.20871 2.93815 0.571737C2.70163 0.714256 2.62543 1.02153 2.76794 1.25805C2.91046 1.49458 3.21774 1.57078 3.45426 1.42826ZM1 4H0L1.5 1.5L3 4H2C2 5.65685 3.34315 7 5 7C5.56637 7 6.09468 6.84353 6.54574 6.57174C6.78226 6.42922 7.08954 6.50542 7.23206 6.74195C7.37457 6.97847 7.29837 7.28574 7.06185 7.42826C6.45937 7.79129 5.75329 8 5 8C2.79086 8 1 6.20914 1 4Z" fill="#000002" fill-opacity="0.7"/>
</svg>
