<svg width="14" height="14" viewBox="0 0 14 14" fill="none" xmlns="http://www.w3.org/2000/svg">
<path d="M0.84375 10.4341C0.84375 10.9673 1.25 11.3291 1.90381 11.3291H4.5127C4.56982 12.5415 5.56006 13.6523 7.00098 13.6523C8.44189 13.6523 9.43213 12.5479 9.48926 11.3291H12.0981C12.7583 11.3291 13.1582 10.9673 13.1582 10.4341C13.1582 9.76123 12.5425 9.18359 11.9648 8.625C11.5205 8.18701 11.4126 7.31104 11.3301 6.44141C11.2476 4.03564 10.5493 2.42969 8.89258 1.82666C8.65137 0.98877 7.94678 0.347656 7.00098 0.347656C6.05518 0.347656 5.35059 0.98877 5.10938 1.82666C3.45264 2.42969 2.75439 4.03564 2.67188 6.44141C2.58936 7.31104 2.48779 8.18701 2.03711 8.625C1.46582 9.18359 0.84375 9.76123 0.84375 10.4341ZM2.36084 10.1675V10.0913C2.52588 9.90723 2.89404 9.5708 3.20508 9.20898C3.64307 8.70752 3.84619 7.7998 3.90967 6.59375C3.98584 4.0166 4.77295 3.15967 5.80127 2.88037C5.95361 2.84229 6.04248 2.76611 6.05518 2.59473C6.08691 1.94727 6.44238 1.51562 7.00098 1.51562C7.55957 1.51562 7.92139 1.94727 7.94678 2.59473C7.95947 2.76611 8.04834 2.84229 8.20703 2.88037C9.229 3.15967 10.0225 4.0166 10.0923 6.59375C10.1558 7.7998 10.3652 8.70752 10.7969 9.20898C11.1143 9.5708 11.4697 9.90723 11.6284 10.0913V10.1675H2.36084ZM5.7124 11.3291H8.28955C8.24512 12.1226 7.72461 12.6367 7.00098 12.6367C6.28369 12.6367 5.76318 12.1226 5.7124 11.3291Z" fill="#000002" fill-opacity="0.7"/>
</svg>
