<svg width="14" height="12" viewBox="0 0 14 12" fill="none" xmlns="http://www.w3.org/2000/svg">
<path d="M9.35498 3.67993C10.0405 3.67993 10.6245 3.25464 10.8657 2.65161H12.9668C13.2778 2.65161 13.5444 2.37866 13.5444 2.04858C13.5444 1.71851 13.2842 1.44556 12.9668 1.44556H10.8721C10.6309 0.842529 10.0405 0.417236 9.35498 0.417236C8.66943 0.417236 8.0791 0.842529 7.83789 1.44556H1.05225C0.71582 1.44556 0.455566 1.71851 0.455566 2.04858C0.455566 2.37866 0.722168 2.65161 1.05225 2.65161H7.83789C8.0791 3.25464 8.66943 3.67993 9.35498 3.67993ZM9.35498 2.823C8.92334 2.823 8.57422 2.48022 8.57422 2.04858C8.57422 1.60425 8.92334 1.26782 9.35498 1.26782C9.79297 1.26782 10.1294 1.60425 10.1294 2.04858C10.1294 2.48022 9.79297 2.823 9.35498 2.823ZM1.02686 5.40015C0.71582 5.40015 0.455566 5.66675 0.455566 6.00317C0.455566 6.3269 0.722168 6.59985 1.02686 6.59985H3.2041C3.43896 7.20288 4.0293 7.63452 4.72119 7.63452C5.40039 7.63452 5.99072 7.20288 6.23193 6.59985H12.9478C13.2778 6.59985 13.5444 6.33325 13.5444 6.00317C13.5444 5.66675 13.2842 5.40015 12.9478 5.40015H6.23193C5.99072 4.79712 5.40039 4.37183 4.72119 4.37183C4.03564 4.37183 3.44531 4.79712 3.2041 5.40015H1.02686ZM4.72119 6.77759C4.2832 6.77759 3.94043 6.43481 3.94043 6.00317C3.94043 5.55884 4.2832 5.22241 4.72119 5.22241C5.15918 5.22241 5.49561 5.55884 5.49561 6.00317C5.49561 6.43481 5.15918 6.77759 4.72119 6.77759ZM9.35498 11.5828C10.0405 11.5828 10.6309 11.1575 10.8721 10.5544H12.9668C13.2778 10.5544 13.5444 10.2815 13.5444 9.95142C13.5444 9.61499 13.2842 9.34839 12.9668 9.34839H10.8657C10.6309 8.74536 10.0405 8.32007 9.35498 8.32007C8.66943 8.32007 8.0791 8.74536 7.83789 9.34839H1.05225C0.71582 9.34839 0.455566 9.62134 0.455566 9.95142C0.455566 10.2815 0.722168 10.5544 1.05225 10.5544H7.83789C8.0791 11.1575 8.66943 11.5828 9.35498 11.5828ZM9.35498 10.7322C8.92334 10.7322 8.57422 10.3831 8.57422 9.95142C8.57422 9.51343 8.92334 9.17065 9.35498 9.17065C9.79297 9.17065 10.1294 9.51343 10.1294 9.95142C10.1294 10.3831 9.79297 10.7322 9.35498 10.7322Z" fill="#000002" fill-opacity="0.7"/>
</svg>
