<svg width="14" height="14" viewBox="0 0 14 14" fill="none" xmlns="http://www.w3.org/2000/svg">
<path d="M7 13.5571C10.5864 13.5571 13.5571 10.5928 13.5571 7C13.5571 3.41357 10.5864 0.442871 6.99365 0.442871C3.40723 0.442871 0.442871 3.41357 0.442871 7C0.442871 10.5928 3.41357 13.5571 7 13.5571ZM7 12.2686C4.08008 12.2686 1.73779 9.91992 1.73779 7C1.73779 4.08008 4.07373 1.73779 6.99365 1.73779C9.91357 1.73779 12.2622 4.08008 12.2686 7C12.2686 9.91992 9.91992 12.2686 7 12.2686ZM4.06104 7C4.06104 7.34277 4.30859 7.58398 4.66406 7.58398H6.40332V9.32959C6.40332 9.67871 6.64453 9.92627 6.9873 9.92627C7.34277 9.92627 7.59033 9.67871 7.59033 9.32959V7.58398H9.33594C9.68506 7.58398 9.92627 7.34277 9.92627 7C9.92627 6.64453 9.68506 6.39697 9.33594 6.39697H7.59033V4.65771C7.59033 4.30225 7.34277 4.06104 6.9873 4.06104C6.64453 4.06104 6.40332 4.30225 6.40332 4.65771V6.39697H4.66406C4.30859 6.39697 4.06104 6.64453 4.06104 7Z" fill="#000002" fill-opacity="0.7"/>
</svg>
