<svg width="16" height="16" viewBox="0 0 16 16" fill="none" xmlns="http://www.w3.org/2000/svg">
<path d="M8 14.5571C11.5864 14.5571 14.5571 11.5928 14.5571 8C14.5571 4.41357 11.5864 1.44287 7.99365 1.44287C4.40723 1.44287 1.44287 4.41357 1.44287 8C1.44287 11.5928 4.41357 14.5571 8 14.5571ZM8 13.2686C5.08008 13.2686 2.73779 10.9199 2.73779 8C2.73779 5.08008 5.07373 2.73779 7.99365 2.73779C10.9136 2.73779 13.2622 5.08008 13.2686 8C13.2686 10.9199 10.9199 13.2686 8 13.2686ZM5.06104 8C5.06104 8.34277 5.30859 8.58398 5.66406 8.58398H7.40332V10.3296C7.40332 10.6787 7.64453 10.9263 7.9873 10.9263C8.34277 10.9263 8.59033 10.6787 8.59033 10.3296V8.58398H10.3359C10.6851 8.58398 10.9263 8.34277 10.9263 8C10.9263 7.64453 10.6851 7.39697 10.3359 7.39697H8.59033V5.65771C8.59033 5.30225 8.34277 5.06104 7.9873 5.06104C7.64453 5.06104 7.40332 5.30225 7.40332 5.65771V7.39697H5.66406C5.30859 7.39697 5.06104 7.64453 5.06104 8Z" fill="black"/>
</svg>
