<svg width="16" height="16" viewBox="0 0 16 16" fill="none" xmlns="http://www.w3.org/2000/svg">
<path d="M1.84277 11.4341C1.84277 11.9673 2.24902 12.3291 2.90283 12.3291H5.51172C5.56885 13.5415 6.55908 14.6523 8 14.6523C9.44092 14.6523 10.4312 13.5479 10.4883 12.3291H13.0972C13.7573 12.3291 14.1572 11.9673 14.1572 11.4341C14.1572 10.7612 13.5415 10.1836 12.9639 9.625C12.5195 9.18701 12.4116 8.31104 12.3291 7.44141C12.2466 5.03564 11.5483 3.42969 9.8916 2.82666C9.65039 1.98877 8.9458 1.34766 8 1.34766C7.0542 1.34766 6.34961 1.98877 6.1084 2.82666C4.45166 3.42969 3.75342 5.03564 3.6709 7.44141C3.58838 8.31104 3.48682 9.18701 3.03613 9.625C2.46484 10.1836 1.84277 10.7612 1.84277 11.4341ZM3.35986 11.1675V11.0913C3.5249 10.9072 3.89307 10.5708 4.2041 10.209C4.64209 9.70752 4.84521 8.7998 4.90869 7.59375C4.98486 5.0166 5.77197 4.15967 6.80029 3.88037C6.95264 3.84229 7.0415 3.76611 7.0542 3.59473C7.08594 2.94727 7.44141 2.51562 8 2.51562C8.55859 2.51562 8.92041 2.94727 8.9458 3.59473C8.9585 3.76611 9.04736 3.84229 9.20605 3.88037C10.228 4.15967 11.0215 5.0166 11.0913 7.59375C11.1548 8.7998 11.3643 9.70752 11.7959 10.209C12.1133 10.5708 12.4688 10.9072 12.6274 11.0913V11.1675H3.35986ZM6.71143 12.3291H9.28857C9.24414 13.1226 8.72363 13.6367 8 13.6367C7.28271 13.6367 6.76221 13.1226 6.71143 12.3291Z" fill="black"/>
</svg>
