<svg width="16" height="16" viewBox="0 0 16 16" fill="none" xmlns="http://www.w3.org/2000/svg">
<path d="M0.625 10.6244C0.625 12.2411 2.07097 13.4537 3.84712 13.4537C5.62326 13.4537 7.06354 12.2411 7.06354 10.6244V9.2581C7.33679 9.16133 7.66697 9.1044 8.00285 9.1044C8.38426 9.1044 8.68598 9.13856 8.93646 9.22395V10.6244C8.93646 12.2468 10.371 13.4594 12.1529 13.4594C13.929 13.4594 15.375 12.2468 15.375 10.6244C15.375 10.2145 15.3067 9.80461 15.0847 9.29226L12.7563 3.81011C12.4148 3.00174 11.7088 2.54062 10.8151 2.54062C9.67652 2.54062 8.93646 3.27499 8.93646 4.3737V4.8462C8.65752 4.77788 8.35011 4.74942 8.00285 4.74942C7.67836 4.74942 7.35956 4.79496 7.06354 4.87466V4.3737C7.06354 3.2693 6.32348 2.54062 5.18492 2.54062C4.28546 2.54062 3.57955 2.99604 3.23799 3.80442L0.909639 9.28657C0.693313 9.80461 0.625 10.2088 0.625 10.6244ZM2.55485 8.07401L4.21145 4.19722C4.38224 3.78734 4.7295 3.54824 5.14507 3.54824C5.6745 3.54824 6.02745 3.9012 6.02745 4.43062V8.59205C5.47525 8.09108 4.68395 7.78937 3.84712 7.78937C3.40308 7.78937 2.94766 7.89184 2.55485 8.07401ZM13.4395 8.0797C13.0467 7.89753 12.5969 7.79506 12.1529 7.79506C11.316 7.79506 10.5247 8.09678 9.97255 8.59205V4.43632C9.97255 3.90689 10.3255 3.54824 10.8549 3.54824C11.2705 3.55394 11.6121 3.78734 11.7885 4.19722L13.4395 8.0797ZM8.00285 5.60903C8.38426 5.60903 8.68598 5.64319 8.93646 5.72858V6.59388C8.65752 6.52557 8.35011 6.4971 8.00285 6.4971C7.67836 6.4971 7.35956 6.54265 7.06354 6.62235V5.76274C7.33679 5.66596 7.66697 5.60903 8.00285 5.60903ZM8.00285 7.35672C8.38426 7.35672 8.68598 7.39087 8.93646 7.47626V8.33587C8.65752 8.27325 8.35011 8.2391 8.00285 8.2391C7.67836 8.2391 7.35956 8.28464 7.06354 8.37003V7.51042C7.33679 7.41364 7.66697 7.35672 8.00285 7.35672ZM1.70094 10.6244C1.70094 9.54844 2.62317 8.82545 3.84712 8.82545C5.07106 8.82545 6.02176 9.54844 6.02176 10.6244C6.02176 11.6946 5.07106 12.4176 3.84712 12.4176C2.62317 12.4176 1.70094 11.6946 1.70094 10.6244ZM14.2934 10.6244C14.2934 11.6946 13.3768 12.4233 12.1529 12.4233C10.9289 12.4233 9.97824 11.7003 9.97824 10.6244C9.97824 9.55413 10.9289 8.82545 12.1529 8.82545C13.3768 8.82545 14.2934 9.55413 14.2934 10.6244Z" fill="black"/>
</svg>
