<svg width="16" height="16" viewBox="0 0 16 16" fill="none" xmlns="http://www.w3.org/2000/svg">
<path d="M2.44897 12.0244L7.36206 14.7793C7.80005 15.0205 8.19995 15.0205 8.63159 14.7793L13.551 12.0244C14.1604 11.688 14.4651 11.3262 14.4651 10.4312V5.30225C14.4651 4.62305 14.2112 4.19775 13.6462 3.88037L9.18384 1.37305C8.40308 0.928711 7.59692 0.928711 6.81616 1.37305L2.35376 3.88037C1.78882 4.19775 1.53491 4.62305 1.53491 5.30225V10.4312C1.53491 11.3262 1.8396 11.688 2.44897 12.0244ZM7.99683 7.3335L3.30591 4.70557L7.31763 2.4458C7.78101 2.1792 8.21899 2.17285 8.68237 2.4458L12.6941 4.70557L7.99683 7.3335ZM3.13452 11.0532C2.7854 10.8564 2.66479 10.6533 2.66479 10.3169V5.6958L7.41284 8.37451V13.4653L3.13452 11.0532ZM12.8655 11.0532L8.58716 13.4653V8.37451L13.3352 5.6958V10.3169C13.3352 10.6533 13.2146 10.8564 12.8655 11.0532Z" fill="black"/>
</svg>
