<svg width="16" height="16" viewBox="0 0 16 16" fill="none" xmlns="http://www.w3.org/2000/svg">
<path d="M9.0918 14.056V12.8627L10.0947 13.4403C11.0723 14.0053 11.8149 13.6244 11.8149 12.4628V11.4599L12.6719 11.955C13.6494 12.5199 14.3984 12.1391 14.3984 10.9774V5.28993C14.3984 4.54726 14.1763 4.16005 13.5352 3.79189L8.52051 0.891009C7.80322 0.478411 6.90186 0.75136 6.90186 1.77968V2.93495L5.94336 2.37636C5.22607 1.96376 4.32471 2.24306 4.32471 3.27138V4.61074L3.22021 3.97597C2.50293 3.56337 1.60156 3.83632 1.60156 4.86464V10.7108C1.60156 11.4408 1.78564 11.809 2.45215 12.1962L7.37158 15.0399C8.34912 15.5985 9.0918 15.2177 9.0918 14.056ZM13.0718 10.7553L11.8149 10.0253V6.77529C11.8149 6.03261 11.5928 5.65175 10.9517 5.27724L8.12695 3.64589V2.22402C8.12695 2.16689 8.17773 2.13515 8.23486 2.16689L12.9131 4.87099C13.1035 4.98525 13.1733 5.06777 13.1733 5.31532V10.7045C13.1733 10.7616 13.1289 10.787 13.0718 10.7553ZM9.0918 8.36855C9.0918 7.63222 8.87598 7.24501 8.23486 6.8705L5.5498 5.32167V3.70937C5.5498 3.65224 5.59424 3.6205 5.65137 3.65224L10.3296 6.35634C10.52 6.4706 10.5898 6.55312 10.5898 6.80068V12.1898C10.5898 12.2533 10.5518 12.2724 10.4946 12.2406L9.0918 11.4345V8.36855ZM7.60645 7.9496C7.80322 8.06386 7.8667 8.14638 7.8667 8.40029V13.7831C7.8667 13.8466 7.82861 13.872 7.77148 13.8402L3.07422 11.1171C2.87744 10.9965 2.82666 10.8949 2.82666 10.6664V5.30263C2.82666 5.2455 2.87109 5.21376 2.93457 5.25185L7.60645 7.9496Z" fill="black"/>
</svg>
