<svg width="16" height="16" viewBox="0 0 16 16" fill="none" xmlns="http://www.w3.org/2000/svg">
<path d="M11.113 9.28132L12.4524 7.62458C12.5667 7.47858 12.6301 7.34528 12.6301 7.19929C12.6301 6.93268 12.427 6.74226 12.1414 6.74226L8.58667 6.68513L10.3958 1.53718C10.6433 0.838935 9.94507 0.477118 9.48169 1.04206L6.53003 4.70466L11.113 9.28132ZM12.5349 13.2486C12.7317 13.4454 13.0554 13.4454 13.2458 13.2486C13.4426 13.0582 13.449 12.7281 13.2458 12.5313L3.46411 2.74958C3.27368 2.55915 2.93726 2.5528 2.74683 2.74958C2.5564 2.94001 2.5564 3.27643 2.74683 3.46686L12.5349 13.2486ZM6.52368 14.9625L9.47534 11.3062L4.89233 6.72321L3.55933 8.37995C3.44507 8.5196 3.38159 8.6529 3.38159 8.80524C3.38159 9.0655 3.58472 9.26227 3.87036 9.26227L7.4187 9.31306L5.61597 14.461C5.37476 15.1592 6.06665 15.5211 6.52368 14.9625Z" fill="currentColor"/>
</svg>
