<svg width="16" height="16" viewBox="0 0 16 16" fill="none" xmlns="http://www.w3.org/2000/svg">
<path d="M3.63281 13.9255H12.3672C13.7383 13.9255 14.4492 13.2146 14.4492 11.8625V4.13745C14.4492 2.77905 13.7383 2.07446 12.3672 2.07446H3.63281C2.26172 2.07446 1.55078 2.77905 1.55078 4.13745V11.8625C1.55078 13.2209 2.26172 13.9255 3.63281 13.9255ZM3.61377 12.6814C3.08691 12.6814 2.79492 12.4021 2.79492 11.8499V5.98462C2.79492 5.42603 3.08691 5.15308 3.61377 5.15308H12.3735C12.9067 5.15308 13.2051 5.42603 13.2051 5.98462V11.8499C13.2051 12.4021 12.9067 12.6814 12.3735 12.6814H3.61377ZM6.7749 7.35571H7.14941C7.37793 7.35571 7.4541 7.28589 7.4541 7.05737V6.68921C7.4541 6.46069 7.37793 6.39087 7.14941 6.39087H6.7749C6.55273 6.39087 6.47656 6.46069 6.47656 6.68921V7.05737C6.47656 7.28589 6.55273 7.35571 6.7749 7.35571ZM8.85693 7.35571H9.2251C9.45361 7.35571 9.52979 7.28589 9.52979 7.05737V6.68921C9.52979 6.46069 9.45361 6.39087 9.2251 6.39087H8.85693C8.62842 6.39087 8.55225 6.46069 8.55225 6.68921V7.05737C8.55225 7.28589 8.62842 7.35571 8.85693 7.35571ZM10.9326 7.35571H11.3008C11.5293 7.35571 11.6055 7.28589 11.6055 7.05737V6.68921C11.6055 6.46069 11.5293 6.39087 11.3008 6.39087H10.9326C10.7041 6.39087 10.6279 6.46069 10.6279 6.68921V7.05737C10.6279 7.28589 10.7041 7.35571 10.9326 7.35571ZM4.69922 9.39966H5.07373C5.30225 9.39966 5.37842 9.32983 5.37842 9.10132V8.73315C5.37842 8.50464 5.30225 8.43481 5.07373 8.43481H4.69922C4.47705 8.43481 4.40088 8.50464 4.40088 8.73315V9.10132C4.40088 9.32983 4.47705 9.39966 4.69922 9.39966ZM6.7749 9.39966H7.14941C7.37793 9.39966 7.4541 9.32983 7.4541 9.10132V8.73315C7.4541 8.50464 7.37793 8.43481 7.14941 8.43481H6.7749C6.55273 8.43481 6.47656 8.50464 6.47656 8.73315V9.10132C6.47656 9.32983 6.55273 9.39966 6.7749 9.39966ZM8.85693 9.39966H9.2251C9.45361 9.39966 9.52979 9.32983 9.52979 9.10132V8.73315C9.52979 8.50464 9.45361 8.43481 9.2251 8.43481H8.85693C8.62842 8.43481 8.55225 8.50464 8.55225 8.73315V9.10132C8.55225 9.32983 8.62842 9.39966 8.85693 9.39966ZM10.9326 9.39966H11.3008C11.5293 9.39966 11.6055 9.32983 11.6055 9.10132V8.73315C11.6055 8.50464 11.5293 8.43481 11.3008 8.43481H10.9326C10.7041 8.43481 10.6279 8.50464 10.6279 8.73315V9.10132C10.6279 9.32983 10.7041 9.39966 10.9326 9.39966ZM4.69922 11.4436H5.07373C5.30225 11.4436 5.37842 11.3738 5.37842 11.1453V10.7771C5.37842 10.5486 5.30225 10.4788 5.07373 10.4788H4.69922C4.47705 10.4788 4.40088 10.5486 4.40088 10.7771V11.1453C4.40088 11.3738 4.47705 11.4436 4.69922 11.4436ZM6.7749 11.4436H7.14941C7.37793 11.4436 7.4541 11.3738 7.4541 11.1453V10.7771C7.4541 10.5486 7.37793 10.4788 7.14941 10.4788H6.7749C6.55273 10.4788 6.47656 10.5486 6.47656 10.7771V11.1453C6.47656 11.3738 6.55273 11.4436 6.7749 11.4436ZM8.85693 11.4436H9.2251C9.45361 11.4436 9.52979 11.3738 9.52979 11.1453V10.7771C9.52979 10.5486 9.45361 10.4788 9.2251 10.4788H8.85693C8.62842 10.4788 8.55225 10.5486 8.55225 10.7771V11.1453C8.55225 11.3738 8.62842 11.4436 8.85693 11.4436Z" fill="currentColor"/>
</svg>
