<svg width="16" height="16" viewBox="0 0 16 16" fill="none" xmlns="http://www.w3.org/2000/svg">
<path d="M7.09912 11.9507C7.41553 11.9507 7.68799 11.7925 7.87256 11.5112L11.8013 5.36768C11.9155 5.18311 12.021 4.97217 12.021 4.77002C12.021 4.33936 11.6343 4.04932 11.2212 4.04932C10.9575 4.04932 10.7202 4.18994 10.5356 4.48877L7.06396 10.061L5.4292 7.97803C5.21826 7.70557 5.00732 7.60889 4.74365 7.60889C4.31299 7.60889 3.979 7.95166 3.979 8.39111C3.979 8.60205 4.05811 8.79541 4.20752 8.97998L6.28174 11.5112C6.51904 11.8188 6.77393 11.9507 7.09912 11.9507Z" fill="currentColor"/>
</svg>
