<svg width="16" height="16" viewBox="0 0 16 16" fill="none" xmlns="http://www.w3.org/2000/svg">
<path fill-rule="evenodd" clip-rule="evenodd" d="M5.37256 11.4619C5.18799 11.7432 4.91553 11.9014 4.59912 11.9014C4.27393 11.9014 4.01904 11.7695 3.78174 11.4619L1.70752 8.93066C1.55811 8.74609 1.479 8.55273 1.479 8.3418C1.479 7.90234 1.81299 7.55957 2.24365 7.55957C2.50732 7.55957 2.71826 7.65625 2.9292 7.92871L4.56396 10.0117L8.03564 4.43945C8.22021 4.14062 8.45752 4 8.72119 4C9.13428 4 9.521 4.29004 9.521 4.7207C9.521 4.92285 9.41553 5.13379 9.30127 5.31836L7.73154 7.77303L6.84917 9.15285L5.37256 11.4619ZM8.78174 11.5112L7.51584 9.96641L8.40208 8.58057L9.56396 10.061L13.0356 4.48877C13.2202 4.18994 13.4575 4.04932 13.7212 4.04932C14.1343 4.04932 14.521 4.33936 14.521 4.77002C14.521 4.97217 14.4155 5.18311 14.3013 5.36768L10.3726 11.5112C10.188 11.7925 9.91553 11.9507 9.59912 11.9507C9.27393 11.9507 9.01904 11.8188 8.78174 11.5112Z" fill="currentColor"/>
</svg>
