<svg width="16" height="16" viewBox="0 0 16 16" fill="none" xmlns="http://www.w3.org/2000/svg">
<path fill-rule="evenodd" clip-rule="evenodd" d="M14.5571 8C14.5571 11.5928 11.5864 14.5571 8 14.5571C4.41357 14.5571 1.44287 11.5928 1.44287 8C1.44287 4.41357 4.40723 1.44287 7.99365 1.44287C11.5864 1.44287 14.5571 4.41357 14.5571 8ZM7.87305 10.6978C7.7334 10.9009 7.54297 11.0151 7.30811 11.0151C7.07959 11.0151 6.89551 10.9199 6.72412 10.6978L5.21973 8.86963C5.11816 8.73633 5.06104 8.59668 5.06104 8.44434C5.06104 8.12695 5.30225 7.87939 5.61328 7.87939C5.80371 7.87939 5.95605 7.94922 6.1084 8.146L7.28906 9.65039L9.79639 5.62598C9.92969 5.41016 10.1011 5.30859 10.2915 5.30859C10.5898 5.30859 10.8691 5.51807 10.8691 5.8291C10.8691 5.9751 10.793 6.12744 10.7104 6.26074L7.87305 10.6978Z" fill="currentColor"/>
</svg>
