<svg width="16" height="16" viewBox="0 0 16 16" fill="none" xmlns="http://www.w3.org/2000/svg">
<path d="M8 14.5571C11.5864 14.5571 14.5571 11.5928 14.5571 8C14.5571 4.41357 11.5864 1.44287 7.99365 1.44287C4.40723 1.44287 1.44287 4.41357 1.44287 8C1.44287 11.5928 4.41357 14.5571 8 14.5571ZM8 13.2686C5.08008 13.2686 2.73779 10.9199 2.73779 8C2.73779 5.08008 5.07373 2.73779 7.99365 2.73779C10.9136 2.73779 13.2622 5.08008 13.2686 8C13.2686 10.9199 10.9199 13.2686 8 13.2686ZM5.91162 10.666C6.07031 10.666 6.21631 10.6089 6.32422 10.4946L7.99365 8.81885L9.67578 10.4946C9.78369 10.6025 9.92334 10.666 10.0884 10.666C10.4058 10.666 10.6597 10.4121 10.6597 10.0884C10.6597 9.93604 10.6025 9.79639 10.4883 9.68848L8.8125 8.00635L10.4946 6.31787C10.6089 6.20361 10.666 6.07031 10.666 5.91797C10.666 5.60059 10.4121 5.34668 10.0947 5.34668C9.93604 5.34668 9.80908 5.40381 9.68848 5.52441L7.99365 7.20654L6.31152 5.53076C6.20361 5.4165 6.07031 5.35938 5.91162 5.35938C5.58789 5.35938 5.33398 5.60693 5.33398 5.92432C5.33398 6.07666 5.39746 6.21631 5.51172 6.32422L7.1875 8.00635L5.51172 9.69482C5.39746 9.79639 5.33398 9.93604 5.33398 10.0884C5.33398 10.4121 5.58789 10.666 5.91162 10.666Z" fill="currentColor"/>
</svg>
