<svg width="16" height="16" viewBox="0 0 16 16" fill="none" xmlns="http://www.w3.org/2000/svg">
<path d="M8 14.5571C11.5864 14.5571 14.5571 11.5928 14.5571 8C14.5571 4.41357 11.5864 1.44287 7.99365 1.44287C4.40723 1.44287 1.44287 4.41357 1.44287 8C1.44287 11.5928 4.41357 14.5571 8 14.5571ZM5.91797 10.6914C5.58154 10.6914 5.32129 10.4248 5.32129 10.082C5.32129 9.92969 5.38477 9.78369 5.49902 9.66943L7.15576 8.00635L5.49902 6.34961C5.38477 6.23535 5.32129 6.08936 5.32129 5.93066C5.32129 5.59424 5.58154 5.34033 5.91797 5.34033C6.08936 5.34033 6.22266 5.39746 6.33691 5.51172L8 7.16846L9.67578 5.50537C9.79639 5.38477 9.92969 5.32764 10.1011 5.32764C10.4312 5.32764 10.6914 5.58789 10.6914 5.92432C10.6914 6.08301 10.6406 6.22266 10.52 6.34326L8.85693 8.00635L10.5137 9.66309C10.6279 9.77734 10.6914 9.92334 10.6914 10.082C10.6914 10.4248 10.4248 10.6914 10.0884 10.6914C9.91699 10.6914 9.76465 10.6279 9.65674 10.5137L8 8.85693L6.35596 10.5137C6.23535 10.6279 6.08936 10.6914 5.91797 10.6914Z" fill="currentColor"/>
</svg>
