<svg width="16" height="16" viewBox="0 0 16 16" fill="none" xmlns="http://www.w3.org/2000/svg">
<path d="M3.09052 12.904C3.36982 13.1769 3.82685 13.1769 4.09345 12.9103L7.99726 9.0065L11.9011 12.9103C12.174 13.1769 12.631 13.1833 12.904 12.904C13.1769 12.631 13.1769 12.174 12.9103 11.9074L9.00654 7.99723L12.9103 4.09342C13.1769 3.82682 13.1833 3.36344 12.904 3.09684C12.6247 2.82389 12.174 2.82389 11.9011 3.09049L7.99726 6.9943L4.09345 3.09049C3.82685 2.82389 3.36347 2.81754 3.09052 3.09049C2.81757 3.36978 2.82392 3.83316 3.09052 4.09342L6.99433 7.99723L3.09052 11.9074C2.82392 12.1676 2.81757 12.6374 3.09052 12.904Z" fill="currentColor"/>
</svg>
