<svg width="16" height="16" viewBox="0 0 16 16" fill="none" xmlns="http://www.w3.org/2000/svg">
<g clip-path="url(#clip0_570_20987)">
<path d="M11.5642 2.06494C11.5642 0.693848 10.866 -0.0170898 9.50757 -0.0170898H3.47729C2.1189 -0.0170898 1.41431 0.693848 1.41431 2.06494V10.6724C1.41431 12.0371 2.1189 12.7544 3.47729 12.7544H4.42944V13.9351C4.42944 15.3062 5.14038 16.0171 6.49243 16.0171H12.5227C13.8748 16.0171 14.5857 15.3062 14.5857 13.9351V5.27051C14.5857 3.89941 13.8811 3.18848 12.5227 3.18848H11.5642V2.06494ZM3.57886 11.5103C2.96313 11.5103 2.65845 11.1802 2.65845 10.5962V2.14111C2.65845 1.55078 2.96313 1.22705 3.57886 1.22705H9.39966C10.0154 1.22705 10.3201 1.55078 10.3201 2.14111V3.18848H6.49243C5.13403 3.18848 4.42944 3.89941 4.42944 5.27051V11.5103H3.57886ZM13.3416 5.34668V13.8589C13.3416 14.4429 13.0305 14.7729 12.4148 14.7729H6.60034C5.98462 14.7729 5.67358 14.4429 5.67358 13.8589V5.34668C5.67358 4.75635 5.98462 4.43262 6.60034 4.43262H12.4148C13.0305 4.43262 13.3416 4.75635 13.3416 5.34668Z" fill="currentColor"/>
</g>
<defs>
<clipPath id="clip0_570_20987">
<rect width="16" height="16" fill="white"/>
</clipPath>
</defs>
</svg>
