<svg width="16" height="16" viewBox="0 0 16 16" fill="none" xmlns="http://www.w3.org/2000/svg">
<path d="M0.357422 10.5613C0.357422 12.2625 1.63965 13.5383 3.46777 13.5383H12.5322C14.3604 13.5383 15.6426 12.2625 15.6426 10.5613C15.6426 10.0535 15.4902 9.59009 15.3188 9.17114L13.1416 4.05493C12.6973 3.01392 11.8149 2.46167 10.6343 2.46167H5.36572C4.18506 2.46167 3.30273 3.01392 2.8584 4.05493L0.693848 9.14575C0.516113 9.57104 0.357422 10.0408 0.357422 10.5613ZM2.62988 7.72388L4.00732 4.34058C4.22949 3.78833 4.71826 3.50269 5.38477 3.50269H10.6152C11.2817 3.50269 11.7705 3.78833 11.9927 4.34058L13.3701 7.72388C13.1099 7.63501 12.8306 7.58423 12.5322 7.58423H3.46777C3.16309 7.58423 2.88379 7.63501 2.62988 7.72388ZM1.56348 10.5613C1.56348 9.54565 2.31885 8.79028 3.46777 8.79028H12.5322C13.6748 8.79028 14.4365 9.54565 14.4365 10.5613C14.4365 11.6848 13.6748 12.3323 12.5322 12.3323H3.46777C2.31885 12.3323 1.56348 11.5769 1.56348 10.5613ZM11.6753 10.5613C11.6753 11.0247 12.0498 11.3865 12.5005 11.3801C12.9448 11.3801 13.3193 11.0183 13.3193 10.5613C13.3193 10.1233 12.9448 9.74243 12.5005 9.74243C12.0498 9.74243 11.6753 10.1233 11.6753 10.5613Z" fill="black"/>
</svg>
