<svg width="20" height="20" viewBox="0 0 20 20" fill="none" xmlns="http://www.w3.org/2000/svg">
<path opacity="0.48" fill-rule="evenodd" clip-rule="evenodd" d="M5.79995 3C5.27546 3.0004 4.76439 3.16574 4.33906 3.47262C3.91372 3.77951 3.59568 4.21239 3.42995 4.71L1.31995 11C2.05948 10.3477 3.01389 9.9916 3.99995 10H15.9999C16.986 9.9916 17.9404 10.3477 18.6799 11L16.5699 4.71C16.4042 4.21239 16.0862 3.77951 15.6608 3.47262C15.2355 3.16574 14.7244 3.0004 14.1999 3H5.79995Z" fill="currentColor" fill-opacity="0.5"/>
<path opacity="0.8" fill-rule="evenodd" clip-rule="evenodd" d="M4 11C3.20435 11 2.44129 11.3161 1.87868 11.8787C1.31607 12.4413 1 13.2044 1 14C1 14.7956 1.31607 15.5587 1.87868 16.1213C2.44129 16.6839 3.20435 17 4 17H16C16.7956 17 17.5587 16.6839 18.1213 16.1213C18.6839 15.5587 19 14.7956 19 14C19 13.2044 18.6839 12.4413 18.1213 11.8787C17.5587 11.3161 16.7956 11 16 11H4ZM16 15C16.1978 15 16.3911 14.9414 16.5556 14.8315C16.72 14.7216 16.8482 14.5654 16.9239 14.3827C16.9996 14.2 17.0194 13.9989 16.9808 13.8049C16.9422 13.6109 16.847 13.4327 16.7071 13.2929C16.5673 13.153 16.3891 13.0578 16.1951 13.0192C16.0011 12.9806 15.8 13.0004 15.6173 13.0761C15.4346 13.1518 15.2784 13.28 15.1685 13.4444C15.0586 13.6089 15 13.8022 15 14C15 14.2652 15.1054 14.5196 15.2929 14.7071C15.4804 14.8946 15.7348 15 16 15Z" fill="currentColor" fill-opacity="0.5"/>
</svg>
