<svg width="16" height="16" viewBox="0 0 16 16" fill="none" xmlns="http://www.w3.org/2000/svg">
<path d="M3.80103 12.3196C3.41382 12.3196 3.13452 12.6116 3.13452 13.0051C3.13452 13.3987 3.41382 13.6907 3.80103 13.6907H12.1863C12.5798 13.6907 12.8655 13.3987 12.8655 13.0051C12.8655 12.6116 12.5798 12.3196 12.1863 12.3196H8.14917C8.28882 12.2942 8.41577 12.218 8.51733 12.1101L12.5735 8.09204C12.7258 7.9397 12.802 7.76831 12.802 7.58423C12.802 7.19067 12.5164 6.90503 12.1355 6.90503C11.9387 6.90503 11.761 6.98755 11.634 7.1145L10.3264 8.39673L8.63159 10.2566L8.69507 8.92358V3.01392C8.69507 2.59497 8.40942 2.30933 8.00317 2.30933C7.59058 2.30933 7.30493 2.59497 7.30493 3.01392V8.92358L7.36841 10.2629L5.67358 8.39673L4.37231 7.1145C4.23901 6.9812 4.06763 6.90503 3.87085 6.90503C3.48364 6.90503 3.20435 7.19067 3.20435 7.58423C3.20435 7.76831 3.27417 7.9397 3.42651 8.09204L7.48267 12.1101C7.58423 12.218 7.71118 12.2942 7.85083 12.3196H3.80103Z" fill="black"/>
</svg>
