<svg width="16" height="16" viewBox="0 0 16 16" fill="none" xmlns="http://www.w3.org/2000/svg">
<path d="M8.00171 10.7136C8.10881 10.7136 8.20679 10.6931 8.29565 10.6521C8.3868 10.611 8.47681 10.5461 8.56567 10.4572L12.0266 6.93818C12.1542 6.81286 12.218 6.65905 12.218 6.47676C12.218 6.35371 12.1873 6.24092 12.1257 6.13838C12.0665 6.03356 11.9856 5.95153 11.8831 5.89229C11.7828 5.83076 11.6711 5.8 11.5481 5.8C11.3612 5.8 11.1972 5.87406 11.0559 6.02217L7.88892 9.27119H8.12134L4.94751 6.02217C4.80168 5.87406 4.63534 5.8 4.44849 5.8C4.32772 5.8 4.21606 5.83076 4.11353 5.89229C4.01326 5.95153 3.93237 6.03356 3.87085 6.13838C3.8116 6.24092 3.78198 6.35371 3.78198 6.47676C3.78198 6.5679 3.79679 6.65107 3.82642 6.72627C3.85832 6.80147 3.90617 6.8721 3.96997 6.93818L7.43433 10.4572C7.6075 10.6281 7.79663 10.7136 8.00171 10.7136Z" fill="currentColor"/>
</svg>
