<svg width="16" height="16" viewBox="0 0 16 16" fill="none" xmlns="http://www.w3.org/2000/svg">
<path d="M8 14.5571C11.5864 14.5571 14.5571 11.5928 14.5571 8C14.5571 4.41357 11.5864 1.44287 7.99365 1.44287C4.40723 1.44287 1.44287 4.41357 1.44287 8C1.44287 11.5928 4.41357 14.5571 8 14.5571ZM8 13.2686C5.08008 13.2686 2.73779 10.9199 2.73779 8C2.73779 5.08008 5.07373 2.73779 7.99365 2.73779C10.9136 2.73779 13.2622 5.08008 13.2686 8C13.2686 10.9199 10.9199 13.2686 8 13.2686ZM7.9873 9.93604C8.12695 9.93604 8.24756 9.87891 8.34912 9.78369L10.4438 7.67627C10.5581 7.56836 10.5962 7.44775 10.5962 7.3208C10.5962 7.06055 10.4121 6.85742 10.1455 6.85742C10.0122 6.85742 9.8916 6.9082 9.79639 7.00342L9.39648 7.40332L8.39355 8.53955L8.46338 7.46045V4.81348C8.46338 4.53418 8.2666 4.33105 7.9873 4.33105C7.70166 4.33105 7.51123 4.53418 7.51123 4.81348V7.46045L7.5874 8.5459L6.56543 7.39697L6.19727 7.00342C6.1084 6.90186 5.99414 6.85742 5.84814 6.85742C5.58154 6.85742 5.39111 7.04785 5.39111 7.32715C5.39111 7.43506 5.44824 7.58105 5.53711 7.66992L7.63184 9.78369C7.7334 9.88525 7.854 9.93604 7.9873 9.93604ZM5.67676 11.3262H10.3169C10.5898 11.3262 10.7866 11.123 10.7866 10.8501C10.7866 10.5835 10.5898 10.3867 10.3169 10.3867H5.67676C5.40381 10.3867 5.20703 10.5835 5.20703 10.8501C5.20703 11.123 5.40381 11.3262 5.67676 11.3262Z" fill="currentColor"/>
</svg>
