<svg width="16" height="16" viewBox="0 0 16 16" fill="none" xmlns="http://www.w3.org/2000/svg">
<path d="M8 11.2278C8.21582 11.2278 8.3999 11.1453 8.56494 10.9739L13.4082 6.0227C13.5479 5.8894 13.6177 5.71167 13.6177 5.50854C13.6177 5.09595 13.3003 4.77222 12.8813 4.77222C12.6782 4.77222 12.4941 4.85474 12.3545 4.99438L8 9.45679L3.64551 4.99438C3.49951 4.85474 3.31543 4.77222 3.1123 4.77222C2.69971 4.77222 2.38232 5.09595 2.38232 5.50854C2.38232 5.71167 2.45215 5.8894 2.5918 6.02271L7.43506 10.9739C7.6001 11.1453 7.78418 11.2214 8 11.2278Z" fill="currentColor"/>
</svg>
