<svg width="16" height="16" fill="none" xmlns="http://www.w3.org/2000/svg">
<path fill-rule="evenodd" clip-rule="evenodd" d="M3.99998 8C3.99998 8.73638 3.40303 9.33333 2.66665 9.33333C1.93027 9.33333 1.33331 8.73638 1.33331 8C1.33331 7.26362 1.93027 6.66667 2.66665 6.66667C3.40303 6.66667 3.99998 7.26362 3.99998 8ZM9.33331 8C9.33331 8.73638 8.73636 9.33333 7.99998 9.33333C7.2636 9.33333 6.66665 8.73638 6.66665 8C6.66665 7.26362 7.2636 6.66667 7.99998 6.66667C8.73636 6.66667 9.33331 7.26362 9.33331 8ZM13.3333 9.33333C14.0697 9.33333 14.6666 8.73638 14.6666 8C14.6666 7.26362 14.0697 6.66667 13.3333 6.66667C12.5969 6.66667 12 7.26362 12 8C12 8.73638 12.5969 9.33333 13.3333 9.33333Z" fill="currentColor"/>
</svg>
