<svg width="16" height="16" viewBox="0 0 16 16" fill="none" xmlns="http://www.w3.org/2000/svg">
<path d="M8.00562 14.5522C4.71505 14.5522 2.00003 11.8372 2.00003 8.54664C2.00003 5.23862 4.69761 2.66314 7.77307 2.55268C8.18003 2.52942 8.47653 2.76197 8.47653 3.12824C8.47653 3.44799 8.24399 3.7038 7.86609 3.72705C5.28479 3.82589 3.18604 5.85488 3.18022 8.54664C3.17441 11.221 5.3313 13.372 8.00562 13.372C10.7904 13.372 12.7903 11.1163 12.8194 8.60478C12.8252 8.22688 13.0926 7.99433 13.4182 7.99433C13.7787 7.99433 14.0112 8.28502 13.9996 8.70361C13.9473 11.814 11.3136 14.5522 8.00562 14.5522ZM8.47653 8.785C8.13352 8.79081 7.87772 8.53501 7.87772 8.19781C7.87772 8.04084 7.94748 7.88387 8.06957 7.76178L11.0346 4.80259L12.0869 3.87821C11.5113 3.94797 10.7904 3.94797 10.5055 3.94797C10.2148 3.94797 9.97648 3.7038 9.97648 3.41311C9.97648 3.1108 10.209 2.87243 10.5055 2.87243H13.1101C13.5519 2.87243 13.7845 3.1108 13.7845 3.54683V6.14557C13.7845 6.44207 13.5461 6.68043 13.2496 6.68043C12.9647 6.68043 12.7206 6.44207 12.7206 6.14557C12.7206 5.87813 12.7206 5.10491 12.7729 4.57004L11.8659 5.62233L8.90094 8.59896C8.77304 8.72105 8.62769 8.785 8.47653 8.785Z" fill="black"/>
</svg>
