<svg width="16" height="16" viewBox="0 0 16 16" fill="none" xmlns="http://www.w3.org/2000/svg">
<path d="M8 14.5571C11.5864 14.5571 14.5571 11.5928 14.5571 8C14.5571 4.41357 11.5864 1.44287 7.99365 1.44287C4.40723 1.44287 1.44287 4.41357 1.44287 8C1.44287 11.5928 4.41357 14.5571 8 14.5571ZM8 13.2686C5.08008 13.2686 2.73779 10.9199 2.73779 8C2.73779 5.08008 5.07373 2.73779 7.99365 2.73779C10.9136 2.73779 13.2622 5.08008 13.2686 8C13.2686 10.9199 10.9199 13.2686 8 13.2686ZM4.67383 6.7876H11.3325C11.6499 6.7876 11.8721 6.59082 11.8721 6.29248C11.8721 5.99414 11.6499 5.79102 11.3325 5.79102H4.67383C4.35645 5.79102 4.14062 5.99414 4.14062 6.29248C4.14062 6.59082 4.35645 6.7876 4.67383 6.7876ZM5.55615 8.88867H10.4565C10.7676 8.88867 10.9897 8.68555 10.9897 8.38721C10.9897 8.08887 10.7676 7.88574 10.4565 7.88574H5.55615C5.23877 7.88574 5.0166 8.08887 5.0166 8.38721C5.0166 8.68555 5.23877 8.88867 5.55615 8.88867ZM6.47021 10.9834H9.53613C9.85352 10.9834 10.0757 10.7866 10.0757 10.4883C10.0757 10.1899 9.85352 9.98682 9.53613 9.98682H6.47021C6.15283 9.98682 5.93066 10.1899 5.93066 10.4883C5.93066 10.7866 6.15283 10.9834 6.47021 10.9834Z" fill="currentColor"/>
</svg>
