<svg width="16" height="16" viewBox="0 0 16 16" fill="none" xmlns="http://www.w3.org/2000/svg">
<g clip-path="url(#clip0_816_38993)">
<path fill-rule="evenodd" clip-rule="evenodd" d="M16.0352 8.03516C16.0352 12.4038 12.4116 16.0352 8.03516 16.0352C3.66653 16.0352 0.0351562 12.4038 0.0351562 8.03516C0.0351562 3.65869 3.65869 0.0351562 8.02731 0.0351562C12.4038 0.0351562 16.0352 3.65869 16.0352 8.03516ZM12.3175 6.49006H3.76844C3.4155 6.49006 3.17236 6.27045 3.17236 5.9332C3.17236 5.60378 3.4155 5.38418 3.76844 5.38418H12.3175C12.6626 5.38418 12.9135 5.60378 12.9135 5.9332C12.9135 6.27045 12.6626 6.49006 12.3175 6.49006ZM11.1567 9.08614H4.92923C4.57628 9.08614 4.33315 8.86653 4.33315 8.52927C4.33315 8.19986 4.57628 7.98026 4.92923 7.98026H11.1567C11.5018 7.98026 11.7449 8.19986 11.7449 8.52927C11.7449 8.86653 11.5018 9.08614 11.1567 9.08614ZM6.13707 11.6901H9.94099C10.2861 11.6901 10.5371 11.4626 10.5371 11.1332C10.5371 10.8038 10.2861 10.5842 9.94099 10.5842H6.13707C5.79197 10.5842 5.54883 10.8038 5.54883 11.1332C5.54883 11.4626 5.79197 11.6901 6.13707 11.6901Z" fill="black"/>
</g>
<defs>
<clipPath id="clip0_816_38993">
<rect width="16" height="16" fill="white"/>
</clipPath>
</defs>
</svg>
