<svg width="16" height="16" viewBox="0 0 16 16" fill="none" xmlns="http://www.w3.org/2000/svg">
<g clip-path="url(#clip0_816_36720)">
<path d="M8.03516 16.0352C12.4116 16.0352 16.0352 12.4038 16.0352 8.03516C16.0352 3.65869 12.4038 0.0351562 8.02731 0.0351562C3.65869 0.0351562 0.0351562 3.65869 0.0351562 8.03516C0.0351562 12.4038 3.66653 16.0352 8.03516 16.0352ZM8.03516 14.7018C4.3332 14.7018 1.37633 11.7371 1.37633 8.03516C1.37633 4.3332 4.32535 1.36849 8.02731 1.36849C11.7293 1.36849 14.694 4.3332 14.7018 8.03516C14.7097 11.7371 11.7371 14.7018 8.03516 14.7018ZM3.76849 6.49006H12.3175C12.6626 6.49006 12.9136 6.27045 12.9136 5.9332C12.9136 5.60378 12.6626 5.38418 12.3175 5.38418H3.76849C3.41555 5.38418 3.17241 5.60378 3.17241 5.9332C3.17241 6.27045 3.41555 6.49006 3.76849 6.49006ZM4.92927 9.08614H11.1567C11.5018 9.08614 11.745 8.86653 11.745 8.52927C11.745 8.19986 11.5018 7.98025 11.1567 7.98025H4.92927C4.57633 7.98025 4.3332 8.19986 4.3332 8.52927C4.3332 8.86653 4.57633 9.08614 4.92927 9.08614ZM6.13712 11.6901H9.94104C10.2861 11.6901 10.5371 11.4626 10.5371 11.1332C10.5371 10.8038 10.2861 10.5842 9.94104 10.5842H6.13712C5.79202 10.5842 5.54888 10.8038 5.54888 11.1332C5.54888 11.4626 5.79202 11.6901 6.13712 11.6901Z" fill="black"/>
</g>
<defs>
<clipPath id="clip0_816_36720">
<rect width="16" height="16" fill="white"/>
</clipPath>
</defs>
</svg>
