<svg width="16" height="16" viewBox="0 0 16 16" fill="none" xmlns="http://www.w3.org/2000/svg">
<path d="M1.57354 9.04615H4.64166C4.98717 9.04615 5.20138 8.89136 5.27739 8.58849L6.231 4.30799L7.97927 14.5785C8.07601 15.1439 8.96051 15.1371 9.07799 14.5785L10.7572 6.85879L11.0958 8.53465C11.1718 8.8779 11.3791 9.04615 11.7384 9.04615H14.4334C14.7512 9.04615 15 8.80386 15 8.501C15 8.18467 14.7581 7.94911 14.4334 7.94911H12.0286L11.2547 4.5772C11.1303 4.03877 10.3011 4.0455 10.1698 4.59739L8.52517 11.7854L6.76999 1.41393C6.68016 0.868773 5.85785 0.855313 5.73346 1.41393L4.28233 7.94911H1.57354C1.24877 7.94911 1 8.19813 1 8.501C1 8.80386 1.24877 9.04615 1.57354 9.04615Z" fill="black"/>
</svg>
