<svg width="16" height="16" viewBox="0 0 16 16" fill="none" xmlns="http://www.w3.org/2000/svg">
<path d="M7.94336 14.4741C11.5298 14.4741 14.5005 11.5098 14.5005 7.91699C14.5005 4.33057 11.5298 1.35986 7.93701 1.35986C4.35059 1.35986 1.38623 4.33057 1.38623 7.91699C1.38623 11.5098 4.35693 14.4741 7.94336 14.4741ZM7.90527 5.69531C7.40381 5.69531 6.99756 5.28271 6.99756 4.7876C6.99756 4.27344 7.40381 3.87354 7.90527 3.87354C8.40674 3.87354 8.80664 4.27344 8.80664 4.7876C8.80664 5.28271 8.40674 5.69531 7.90527 5.69531ZM6.77539 11.5161C6.47705 11.5161 6.24854 11.3066 6.24854 11.002C6.24854 10.7163 6.47705 10.4878 6.77539 10.4878H7.5625V7.73926H6.896C6.59766 7.73926 6.36914 7.52979 6.36914 7.2251C6.36914 6.93945 6.59766 6.71094 6.896 6.71094H8.14648C8.521 6.71094 8.72412 6.97754 8.72412 7.37744V10.4878H9.4541C9.75244 10.4878 9.9873 10.7163 9.9873 11.002C9.9873 11.3066 9.75244 11.5161 9.4541 11.5161H6.77539Z" fill="black"/>
</svg>
