<svg width="16" height="16" viewBox="0 0 16 16" fill="none" xmlns="http://www.w3.org/2000/svg">
<path d="M8 14.5571C11.5864 14.5571 14.5571 11.5928 14.5571 8C14.5571 4.41357 11.5864 1.44287 7.99365 1.44287C4.40723 1.44287 1.44287 4.41357 1.44287 8C1.44287 11.5928 4.41357 14.5571 8 14.5571ZM8 13.2686C5.08008 13.2686 2.73779 10.9199 2.73779 8C2.73779 5.08008 5.07373 2.73779 7.99365 2.73779C10.9136 2.73779 13.2622 5.08008 13.2686 8C13.2686 10.9199 10.9199 13.2686 8 13.2686ZM7.96191 5.8418C8.44434 5.8418 8.8252 5.45459 8.8252 4.97852C8.8252 4.48975 8.44434 4.10254 7.96191 4.10254C7.48584 4.10254 7.09863 4.48975 7.09863 4.97852C7.09863 5.45459 7.48584 5.8418 7.96191 5.8418ZM6.87646 11.4531H9.45361C9.73926 11.4531 9.96143 11.25 9.96143 10.9644C9.96143 10.6914 9.73926 10.4756 9.45361 10.4756H8.74268V7.46045C8.74268 7.07959 8.55225 6.83203 8.19678 6.83203H6.99072C6.71143 6.83203 6.48291 7.04785 6.48291 7.3208C6.48291 7.60645 6.71143 7.80957 6.99072 7.80957H7.63818V10.4756H6.87646C6.59717 10.4756 6.375 10.6914 6.375 10.9644C6.375 11.25 6.59717 11.4531 6.87646 11.4531Z" fill="black"/>
</svg>
