<svg width="16" height="16" viewBox="0 0 16 16" fill="none" xmlns="http://www.w3.org/2000/svg">
<path d="M4 8C4 8.21582 4.08252 8.3999 4.25391 8.56494L9.20508 13.4082C9.33838 13.5479 9.51611 13.6177 9.71924 13.6177C10.1318 13.6177 10.4556 13.3003 10.4556 12.8813C10.4556 12.6782 10.373 12.4941 10.2334 12.3545L5.771 8L10.2334 3.64551C10.373 3.49951 10.4556 3.31543 10.4556 3.1123C10.4556 2.69971 10.1318 2.38232 9.71924 2.38232C9.51611 2.38232 9.33838 2.45215 9.20508 2.5918L4.25391 7.43506C4.08252 7.6001 4.00635 7.78418 4 8Z" fill="black"/>
</svg>
