<svg width="16" height="16" viewBox="0 0 16 16" fill="none" xmlns="http://www.w3.org/2000/svg">
<path d="M5.08643 7.99829C5.08643 7.89119 5.10693 7.79321 5.14795 7.70435C5.18897 7.6132 5.25391 7.52319 5.34277 7.43433L8.86182 3.97339C8.98714 3.84578 9.14095 3.78198 9.32324 3.78198C9.44629 3.78198 9.55908 3.81274 9.66162 3.87427C9.76644 3.93351 9.84847 4.0144 9.90772 4.11694C9.96924 4.2172 10 4.32886 10 4.4519C10 4.63875 9.92594 4.80282 9.77783 4.94409L6.52881 8.11108L6.52881 7.87866L9.77783 11.0525C9.92594 11.1983 10 11.3647 10 11.5515C10 11.6723 9.96924 11.7839 9.90771 11.8865C9.84847 11.9867 9.76644 12.0676 9.66162 12.1292C9.55908 12.1884 9.44629 12.218 9.32324 12.218C9.2321 12.218 9.14893 12.2032 9.07373 12.1736C8.99854 12.1417 8.9279 12.0938 8.86182 12.03L5.34277 8.56567C5.17188 8.3925 5.08643 8.20337 5.08643 7.99829Z" fill="currentColor"/>
</svg>
