<svg width="16" height="16" viewBox="0 0 16 16" fill="none" xmlns="http://www.w3.org/2000/svg">
<path d="M4.07397 14.2905H7.6604C7.28589 13.9478 6.98755 13.5225 6.80347 13.0464H4.18188C3.56616 13.0464 3.25513 12.7354 3.25513 12.145V2.7124C3.25513 2.12842 3.56616 1.79834 4.18188 1.79834H10.7327C11.323 1.79834 11.6531 2.12207 11.6531 2.7124V8.19043C12.1292 8.37451 12.5544 8.6665 12.8972 9.04736V2.63623C12.8972 1.25879 12.1926 0.554199 10.8342 0.554199H4.07397C2.72192 0.554199 2.01099 1.26514 2.01099 2.63623V12.2085C2.01099 13.5859 2.71558 14.2905 4.07397 14.2905ZM5.13403 4.38184H9.78052C10.0154 4.38184 10.1868 4.19775 10.1868 3.96924C10.1868 3.74707 10.0154 3.57568 9.78052 3.57568H5.13403C4.89917 3.57568 4.72778 3.74707 4.72778 3.96924C4.72778 4.19775 4.89917 4.38184 5.13403 4.38184ZM5.13403 6.54639H9.78052C10.0154 6.54639 10.1868 6.36865 10.1868 6.14014C10.1868 5.91797 10.0154 5.74658 9.78052 5.74658H5.13403C4.89917 5.74658 4.72778 5.91797 4.72778 6.14014C4.72778 6.36865 4.89917 6.54639 5.13403 6.54639ZM10.0979 14.2905C10.6375 14.2905 11.1453 14.1382 11.5706 13.8716L12.9353 15.23C13.0813 15.3823 13.24 15.4458 13.4177 15.4458C13.7478 15.4458 13.989 15.1919 13.989 14.8428C13.989 14.6904 13.9192 14.5381 13.8049 14.4175L12.4275 13.04C12.7258 12.5957 12.8972 12.0625 12.8972 11.4912C12.8972 9.94238 11.6404 8.68555 10.0979 8.68555C8.56177 8.68555 7.29224 9.95508 7.29224 11.4912C7.29224 13.0337 8.56177 14.2905 10.0979 14.2905ZM10.0979 13.3257C9.08228 13.3257 8.25708 12.5068 8.25708 11.4912C8.25708 10.4883 9.08228 9.65674 10.0979 9.65674C11.1008 9.65674 11.926 10.4883 11.926 11.4912C11.926 12.5068 11.1072 13.3257 10.0979 13.3257Z" fill="currentColor"/>
</svg>
