<svg width="16" height="16" viewBox="0 0 16 16" fill="none" xmlns="http://www.w3.org/2000/svg">
<path d="M2.96313 13.5669H13.2019C14.4143 13.5669 15.1189 12.8623 15.1189 11.5103V4.49609C15.1189 3.14404 14.408 2.43311 13.0369 2.43311H2.80444C1.59204 2.43311 0.881104 3.1377 0.881104 4.49609V11.5103C0.881104 12.8687 1.59204 13.5669 2.96313 13.5669ZM7.27954 8.22852L2.64575 3.64551C2.74097 3.62646 2.84888 3.61377 2.96313 3.61377H13.0369C13.1638 3.61377 13.2717 3.62646 13.3733 3.65186L8.7395 8.22852C8.4729 8.49512 8.24438 8.60303 8.00952 8.60303C7.77466 8.60303 7.54614 8.48877 7.27954 8.22852ZM2.04907 4.57227L5.51489 7.98096L2.04907 11.415V4.57227ZM10.5042 7.98096L13.9573 4.59131V11.4023L10.5042 7.98096ZM2.96313 12.3926C2.84253 12.3926 2.73462 12.3799 2.63306 12.3545L6.28296 8.73633L6.63208 9.08545C7.08911 9.53613 7.53979 9.72656 8.00952 9.72656C8.47925 9.72656 8.92993 9.53613 9.38696 9.08545L9.73608 8.73633L13.3796 12.3481C13.2781 12.3799 13.1638 12.3926 13.0369 12.3926H2.96313Z" fill="black"/>
</svg>
