<svg width="16" height="16" viewBox="0 0 16 16" fill="none" xmlns="http://www.w3.org/2000/svg">
<g opacity="0.9">
<path fill-rule="evenodd" clip-rule="evenodd" d="M0.490471 2.45704C0 3.41965 0 4.67976 0 7.2V8.8C0 11.3202 0 12.5804 0.490471 13.543C0.921901 14.3897 1.61031 15.0781 2.45704 15.5095C3.41965 16 4.67976 16 7.2 16H8.8C11.3202 16 12.5804 16 13.543 15.5095C14.3897 15.0781 15.0781 14.3897 15.5095 13.543C16 12.5804 16 11.3202 16 8.8V7.2C16 4.67976 16 3.41965 15.5095 2.45704C15.0781 1.61031 14.3897 0.921901 13.543 0.490471C12.5804 0 11.3202 0 8.8 0H7.2C4.67976 0 3.41965 0 2.45704 0.490471C1.61031 0.921901 0.921901 1.61031 0.490471 2.45704ZM11.7569 2.58692C10.5068 2.53102 9.24555 2.5 8.00001 2.5C6.75444 2.5 5.49319 2.53102 4.24612 2.58692C3.41247 2.63033 2.64678 3.38794 2.58445 4.28594C2.47185 6.08597 2.47185 7.91403 2.58445 9.71406C2.64681 10.6125 3.41287 11.3697 4.24318 11.4131C5.49326 11.469 6.75449 11.5 8.00001 11.5C9.24561 11.5 10.5069 11.469 11.754 11.4131C12.5876 11.3696 13.3532 10.612 13.4156 9.71406C13.5281 7.91403 13.5281 6.08597 13.4156 4.28594C13.3532 3.38756 12.5872 2.63031 11.7569 2.58692ZM4.88457 8.03253C5.08751 7.84527 5.40384 7.85799 5.5911 8.06093C6.0437 8.55145 6.92527 8.93125 8.00022 8.93125C9.07518 8.93125 9.95675 8.55145 10.4093 8.06093C10.5966 7.85799 10.9129 7.84527 11.1159 8.03253C11.3188 8.21979 11.3315 8.53612 11.1443 8.73907C10.4557 9.48535 9.27712 9.93125 8.00022 9.93125C6.72332 9.93125 5.54477 9.48535 4.85616 8.73907C4.6689 8.53612 4.68162 8.21979 4.88457 8.03253ZM7.00022 4.92461C7.00022 4.60836 6.77522 4.34961 6.50022 4.34961C6.22272 4.34961 6.00022 4.60548 6.00022 4.92461V6.07461C6.00022 6.39086 6.22522 6.64961 6.50022 6.64961C6.77522 6.64961 7.00022 6.39086 7.00022 6.07461V4.92461ZM9.50022 4.34961C9.77522 4.34961 10.0002 4.60836 10.0002 4.92461V6.07461C10.0002 6.39086 9.77522 6.64961 9.50022 6.64961C9.22522 6.64961 9.00022 6.39086 9.00022 6.07461V4.92461C9.00022 4.60548 9.22272 4.34961 9.50022 4.34961Z" fill="currentColor"/>
</g>
</svg>
