<svg width="16" height="16" viewBox="0 0 16 16" fill="none" xmlns="http://www.w3.org/2000/svg">
<path d="M5.61646 5.92114C6.81616 5.92114 7.81274 4.93091 7.81274 3.7312C7.81274 2.53784 6.81616 1.53491 5.61646 1.53491C4.4231 1.53491 3.42017 2.53784 3.42017 3.7312C3.42017 4.93091 4.4231 5.92114 5.61646 5.92114ZM10.3835 5.92114C11.5833 5.92114 12.5798 4.93091 12.5798 3.7312C12.5798 2.53784 11.5833 1.53491 10.3835 1.53491C9.19019 1.53491 8.18726 2.53784 8.18726 3.7312C8.18726 4.93091 9.18384 5.92114 10.3835 5.92114ZM5.61646 4.74683C5.06421 4.74683 4.60083 4.2771 4.60083 3.7312C4.60083 3.17896 5.06421 2.71558 5.61646 2.71558C6.1687 2.71558 6.63843 3.1853 6.63843 3.7312C6.63843 4.28345 6.1687 4.74683 5.61646 4.74683ZM10.3835 4.74683C9.8313 4.74683 9.36792 4.28345 9.36792 3.7312C9.36792 3.1853 9.8313 2.71558 10.3835 2.71558C10.9358 2.71558 11.3992 3.17896 11.3992 3.7312C11.3992 4.28345 10.9358 4.74683 10.3835 4.74683ZM3.23608 10.1931C4.42944 10.1931 5.43237 9.19653 5.43237 8.00317C5.43237 6.80347 4.42944 5.80688 3.23608 5.80688C2.03638 5.80688 1.03979 6.80347 1.03979 8.00317C1.03979 9.19653 2.03638 10.1931 3.23608 10.1931ZM8.00317 10.1931C9.19653 10.1931 10.1931 9.19653 10.1931 8.00317C10.1931 6.80347 9.19653 5.80688 8.00317 5.80688C6.80347 5.80688 5.80688 6.80347 5.80688 8.00317C5.80688 9.19653 6.80347 10.1931 8.00317 10.1931ZM12.7639 10.1931C13.9636 10.1931 14.9602 9.19653 14.9602 8.00317C14.9602 6.80347 13.9636 5.80688 12.7639 5.80688C11.5706 5.80688 10.574 6.80347 10.574 8.00317C10.574 9.19653 11.5706 10.1931 12.7639 10.1931ZM3.23608 9.0188C2.68384 9.0188 2.21411 8.55542 2.21411 8.00317C2.21411 7.45093 2.68384 6.98755 3.23608 6.98755C3.78833 6.98755 4.25171 7.45093 4.25171 8.00317C4.25171 8.55542 3.78833 9.0188 3.23608 9.0188ZM8.00317 9.0188C7.45093 9.0188 6.9812 8.55542 6.9812 8.00317C6.9812 7.45093 7.45093 6.98755 8.00317 6.98755C8.54907 6.98755 9.0188 7.45093 9.0188 8.00317C9.0188 8.55542 8.54907 9.0188 8.00317 9.0188ZM12.7639 9.0188C12.218 9.0188 11.7483 8.55542 11.7483 8.00317C11.7483 7.45093 12.218 6.98755 12.7639 6.98755C13.3162 6.98755 13.7859 7.45093 13.7859 8.00317C13.7859 8.55542 13.3162 9.0188 12.7639 9.0188ZM5.61646 14.4651C6.81616 14.4651 7.81274 13.4622 7.81274 12.2688C7.81274 11.0754 6.81616 10.0789 5.61646 10.0789C4.41675 10.0789 3.42017 11.0754 3.42017 12.2688C3.42017 13.4685 4.4231 14.4651 5.61646 14.4651ZM10.3835 14.4651C11.5833 14.4651 12.5798 13.4685 12.5798 12.2688C12.5798 11.0754 11.5833 10.0789 10.3835 10.0789C9.18384 10.0789 8.18726 11.0754 8.18726 12.2688C8.18726 13.4685 9.19019 14.4651 10.3835 14.4651ZM5.61646 13.2908C5.06421 13.2908 4.60083 12.821 4.60083 12.2688C4.60083 11.7229 5.06421 11.2595 5.61646 11.2595C6.1687 11.2595 6.63843 11.7229 6.63843 12.2688C6.63843 12.821 6.1687 13.2908 5.61646 13.2908ZM10.3835 13.2908C9.8313 13.2908 9.36792 12.821 9.36792 12.2688C9.36792 11.7229 9.8313 11.2595 10.3835 11.2595C10.9358 11.2595 11.3992 11.7229 11.3992 12.2688C11.3992 12.821 10.9358 13.2908 10.3835 13.2908Z" fill="currentColor"/>
</svg>
