<svg width="16" height="16" viewBox="0 0 16 16" fill="none" xmlns="http://www.w3.org/2000/svg">
<path d="M8 14.5571C11.5864 14.5571 14.5571 11.5928 14.5571 8C14.5571 4.41357 11.5864 1.44287 7.99365 1.44287C4.40723 1.44287 1.44287 4.41357 1.44287 8C1.44287 11.5928 4.41357 14.5571 8 14.5571ZM8 13.2686C5.08008 13.2686 2.73779 10.9199 2.73779 8C2.73779 5.08008 5.07373 2.73779 7.99365 2.73779C10.9136 2.73779 13.2622 5.08008 13.2686 8C13.2686 10.9199 10.9199 13.2686 8 13.2686ZM6.80664 10.501L10.4565 8.35547C10.7231 8.19678 10.7168 7.81592 10.4565 7.65723L6.80664 5.50537C6.52734 5.34033 6.15918 5.47998 6.15918 5.79102V10.2153C6.15918 10.5264 6.5083 10.6787 6.80664 10.501Z" fill="black"/>
</svg>
