<svg width="16" height="16" viewBox="0 0 16 16" fill="none" xmlns="http://www.w3.org/2000/svg">
<path fill-rule="evenodd" clip-rule="evenodd" d="M4.82642 5.70532C4.85832 5.63013 4.90617 5.55949 4.96997 5.49341L7.43433 2.97437C7.60522 2.80119 7.79435 2.7146 8.00171 2.7146C8.10881 2.71688 8.20679 2.73853 8.29565 2.77954C8.3868 2.82056 8.47681 2.8855 8.56567 2.97437L11.0266 5.49341C11.1542 5.61873 11.218 5.77254 11.218 5.95483C11.218 6.08016 11.1873 6.19409 11.1257 6.29663C11.0665 6.39689 10.9856 6.47778 10.8831 6.53931C10.7828 6.60083 10.6711 6.63159 10.5481 6.63159C10.359 6.63159 10.1949 6.55754 10.0559 6.40942L8.00494 4.28406L5.94751 6.40942C5.80396 6.55754 5.63761 6.63159 5.44849 6.63159C5.32772 6.63159 5.21606 6.60083 5.11353 6.53931C5.01326 6.47778 4.93237 6.39689 4.87085 6.29663C4.8116 6.19409 4.78198 6.08016 4.78198 5.95483C4.78198 5.86369 4.79679 5.78052 4.82642 5.70532ZM8.29565 13.2239C8.20679 13.2649 8.10881 13.2854 8.00171 13.2854C7.79663 13.2854 7.6075 13.2 7.43433 13.0291L4.96997 10.51C4.90617 10.4439 4.85832 10.3733 4.82642 10.2981C4.79679 10.2229 4.78198 10.1397 4.78198 10.0486C4.78198 9.92554 4.8116 9.81274 4.87085 9.71021C4.93237 9.60539 5.01326 9.52336 5.11353 9.46411C5.21606 9.40259 5.32772 9.37183 5.44849 9.37183C5.63534 9.37183 5.80168 9.44588 5.94751 9.59399L8.00494 11.7226L10.0559 9.59399C10.1972 9.44588 10.3612 9.37183 10.5481 9.37183C10.6711 9.37183 10.7828 9.40259 10.8831 9.46411C10.9856 9.52336 11.0665 9.60539 11.1257 9.71021C11.1873 9.81274 11.218 9.92554 11.218 10.0486C11.218 10.2309 11.1542 10.3847 11.0266 10.51L8.56567 13.0291C8.47681 13.1179 8.3868 13.1829 8.29565 13.2239Z" fill="currentColor"/>
</svg>
