<svg width="16" height="16" viewBox="0 0 16 16" fill="none" xmlns="http://www.w3.org/2000/svg">
<path d="M10.355 5.67993C11.0405 5.67993 11.6245 5.25464 11.8657 4.65161H13.9668C14.2778 4.65161 14.5444 4.37866 14.5444 4.04858C14.5444 3.71851 14.2842 3.44556 13.9668 3.44556H11.8721C11.6309 2.84253 11.0405 2.41724 10.355 2.41724C9.66943 2.41724 9.0791 2.84253 8.83789 3.44556H2.05225C1.71582 3.44556 1.45557 3.71851 1.45557 4.04858C1.45557 4.37866 1.72217 4.65161 2.05225 4.65161H8.83789C9.0791 5.25464 9.66943 5.67993 10.355 5.67993ZM10.355 4.823C9.92334 4.823 9.57422 4.48022 9.57422 4.04858C9.57422 3.60425 9.92334 3.26782 10.355 3.26782C10.793 3.26782 11.1294 3.60425 11.1294 4.04858C11.1294 4.48022 10.793 4.823 10.355 4.823ZM2.02686 7.40015C1.71582 7.40015 1.45557 7.66675 1.45557 8.00317C1.45557 8.3269 1.72217 8.59985 2.02686 8.59985H4.2041C4.43896 9.20288 5.0293 9.63452 5.72119 9.63452C6.40039 9.63452 6.99072 9.20288 7.23193 8.59985H13.9478C14.2778 8.59985 14.5444 8.33325 14.5444 8.00317C14.5444 7.66675 14.2842 7.40015 13.9478 7.40015H7.23193C6.99072 6.79712 6.40039 6.37183 5.72119 6.37183C5.03564 6.37183 4.44531 6.79712 4.2041 7.40015H2.02686ZM5.72119 8.77759C5.2832 8.77759 4.94043 8.43481 4.94043 8.00317C4.94043 7.55884 5.2832 7.22241 5.72119 7.22241C6.15918 7.22241 6.49561 7.55884 6.49561 8.00317C6.49561 8.43481 6.15918 8.77759 5.72119 8.77759ZM10.355 13.5828C11.0405 13.5828 11.6309 13.1575 11.8721 12.5544H13.9668C14.2778 12.5544 14.5444 12.2815 14.5444 11.9514C14.5444 11.615 14.2842 11.3484 13.9668 11.3484H11.8657C11.6309 10.7454 11.0405 10.3201 10.355 10.3201C9.66943 10.3201 9.0791 10.7454 8.83789 11.3484H2.05225C1.71582 11.3484 1.45557 11.6213 1.45557 11.9514C1.45557 12.2815 1.72217 12.5544 2.05225 12.5544H8.83789C9.0791 13.1575 9.66943 13.5828 10.355 13.5828ZM10.355 12.7322C9.92334 12.7322 9.57422 12.3831 9.57422 11.9514C9.57422 11.5134 9.92334 11.1707 10.355 11.1707C10.793 11.1707 11.1294 11.5134 11.1294 11.9514C11.1294 12.3831 10.793 12.7322 10.355 12.7322Z" fill="black"/>
</svg>
