<svg width="16" height="16" viewBox="0 0 16 16" fill="none" xmlns="http://www.w3.org/2000/svg">
<path d="M12 8C12 8.21582 11.9175 8.3999 11.7461 8.56494L6.79492 13.4082C6.66162 13.5479 6.48389 13.6177 6.28076 13.6177C5.86816 13.6177 5.54443 13.3003 5.54443 12.8813C5.54443 12.6782 5.62695 12.4941 5.7666 12.3545L10.229 8L5.7666 3.64551C5.62695 3.49951 5.54443 3.31543 5.54443 3.1123C5.54443 2.69971 5.86816 2.38232 6.28076 2.38232C6.48389 2.38232 6.66162 2.45215 6.79492 2.5918L11.7461 7.43506C11.9175 7.6001 11.9937 7.78418 12 8Z" fill="currentColor"/>
</svg>
