<svg width="16" height="16" viewBox="0 0 16 16" fill="none" xmlns="http://www.w3.org/2000/svg">
<path d="M10.988 7.99829C10.988 7.89119 10.9675 7.79321 10.9265 7.70435C10.8855 7.6132 10.8206 7.52319 10.7317 7.43433L7.21265 3.97339C7.08732 3.84578 6.93351 3.78198 6.75122 3.78198C6.62817 3.78198 6.51538 3.81274 6.41284 3.87427C6.30802 3.93351 6.22599 4.0144 6.16675 4.11694C6.10522 4.2172 6.07446 4.32886 6.07446 4.4519C6.07446 4.63875 6.14852 4.80282 6.29663 4.94409L9.54565 8.11108L9.54565 7.87866L6.29663 11.0525C6.14852 11.1983 6.07446 11.3647 6.07446 11.5515C6.07446 11.6723 6.10522 11.7839 6.16675 11.8865C6.22599 11.9867 6.30802 12.0676 6.41284 12.1292C6.51538 12.1884 6.62817 12.218 6.75122 12.218C6.84237 12.218 6.92554 12.2032 7.00073 12.1736C7.07593 12.1417 7.14657 12.0938 7.21265 12.03L10.7317 8.56567C10.9026 8.3925 10.988 8.20337 10.988 7.99829Z" fill="currentColor"/>
</svg>
