<svg width="16" height="16" viewBox="0 0 16 16" fill="none" xmlns="http://www.w3.org/2000/svg">
<path d="M2.82666 1.18262C3.29639 1.43652 3.45508 1.80469 3.45508 2.45215V13.1099C3.45508 13.9922 3.96289 14.481 4.69287 14.481C5.37842 14.481 5.86084 13.9985 5.86084 13.1543V11.3325C5.86084 10.4185 6.30518 9.93604 7.22559 9.93604H13.5034V3.26465C13.5034 1.89355 12.8052 1.18262 11.4468 1.18262H2.82666ZM1.13184 4.3374C1.13184 4.76904 1.42383 5.05469 1.86182 5.05469H2.52832V2.86475C2.52832 2.46484 2.21729 2.1792 1.83643 2.1792C1.44922 2.17285 1.13184 2.46484 1.13184 2.86475V4.3374ZM5.98145 4.55322C5.98145 4.33105 6.15283 4.15332 6.3877 4.15332H10.7041C10.9326 4.15332 11.1104 4.33105 11.1104 4.55322C11.1104 4.78174 10.9326 4.95947 10.7041 4.95947H6.3877C6.15283 4.95947 5.98145 4.78174 5.98145 4.55322ZM5.98145 6.73682C5.98145 6.5083 6.15283 6.32422 6.3877 6.32422H8.6792C8.90771 6.32422 9.0791 6.5083 9.0791 6.73682C9.0791 6.95898 8.90771 7.13037 8.6792 7.13037H6.3877C6.15283 7.13037 5.98145 6.95898 5.98145 6.73682ZM6.15283 14.8174H12.7798C14.0303 14.8174 14.8682 14.0811 14.8682 12.7798V11.5737C14.8682 11.1484 14.5762 10.8564 14.1382 10.8564H7.51758C7.07959 10.8564 6.7876 11.1484 6.7876 11.5737V12.894C6.7876 13.6558 6.66699 14.2969 6.15283 14.8174Z" fill="currentColor"/>
</svg>
