<svg width="16" height="16" viewBox="0 0 16 16" fill="none" xmlns="http://www.w3.org/2000/svg">
<path d="M1.10645 4.3374C1.10645 4.76904 1.39844 5.05469 1.83643 5.05469H3.35986V12.7417C3.35986 14.1191 4.05176 14.8174 5.4292 14.8174H12.8115C14.062 14.8174 14.8936 13.9541 14.8936 12.6592V10.8691C14.8936 10.4375 14.6016 10.1519 14.1636 10.1519H13.6431V3.26465C13.6431 1.89355 12.9385 1.18262 11.5801 1.18262H2.85205C1.81738 1.18262 1.10645 1.8999 1.10645 3.00439V4.3374ZM2.2998 3.86768V3.00439C2.2998 2.61084 2.53467 2.37598 2.85205 2.37598C3.18848 2.37598 3.41064 2.61084 3.41064 3.00439V3.86768H2.2998ZM4.604 12.6909V3.08057C4.604 2.8457 4.57861 2.62354 4.54053 2.42676H11.4722C12.0879 2.42676 12.3989 2.75049 12.3989 3.34082V10.1519H7.08594C6.64795 10.1519 6.34961 10.4375 6.34961 10.8691V12.6909C6.34961 13.2241 5.98779 13.5732 5.47998 13.5732C4.96582 13.5732 4.604 13.2051 4.604 12.6909ZM6.3623 5.06738H10.6406C10.8691 5.06738 11.0405 4.88965 11.0405 4.66113C11.0405 4.43896 10.8691 4.26123 10.6406 4.26123H6.3623C6.12744 4.26123 5.95605 4.43896 5.95605 4.66113C5.95605 4.88965 6.12744 5.06738 6.3623 5.06738ZM6.3623 7.23828H8.60938C8.84424 7.23828 9.01562 7.06689 9.01562 6.83838C9.01562 6.60986 8.84424 6.43213 8.60938 6.43213H6.3623C6.12744 6.43213 5.95605 6.60986 5.95605 6.83838C5.95605 7.06689 6.12744 7.23828 6.3623 7.23828ZM7.37793 13.5732C7.51758 13.3066 7.59375 12.9956 7.59375 12.6211V11.396H13.6558V12.6084C13.6558 13.186 13.2939 13.5732 12.7544 13.5732H7.37793Z" fill="black"/>
</svg>
