<svg width="16" height="16" viewBox="0 0 16 16" fill="none" xmlns="http://www.w3.org/2000/svg">
<path d="M1.73486 6.84473C1.73486 9.69482 4.05176 12.0117 6.90186 12.0117C7.96191 12.0117 8.93311 11.688 9.74561 11.1357L12.6655 14.0557C12.8433 14.2397 13.0908 14.3223 13.3384 14.3223C13.8779 14.3223 14.2651 13.916 14.2651 13.3892C14.2651 13.1353 14.1763 12.9004 14.0049 12.7227L11.104 9.81543C11.707 8.98389 12.0688 7.95557 12.0688 6.84473C12.0688 3.99463 9.75195 1.67773 6.90186 1.67773C4.05176 1.67773 1.73486 3.99463 1.73486 6.84473ZM3.08057 6.84473C3.08057 4.7373 4.78809 3.02344 6.90186 3.02344C9.00928 3.02344 10.7231 4.7373 10.7231 6.84473C10.7231 8.95215 9.00928 10.666 6.90186 10.666C4.78809 10.666 3.08057 8.95215 3.08057 6.84473Z" fill="currentColor"/>
</svg>
