<svg width="16" height="16" viewBox="0 0 16 16" fill="none" xmlns="http://www.w3.org/2000/svg">
<path d="M7.38867 15.1182H8.6709C9.19775 15.1182 9.61035 14.7944 9.73096 14.293L9.99121 13.1694L10.1562 13.106L11.1338 13.709C11.5781 13.9883 12.0986 13.9185 12.4668 13.5439L13.3555 12.6553C13.7363 12.2808 13.7998 11.7603 13.5205 11.3223L12.9175 10.3511L12.9746 10.1924L14.0981 9.93213C14.5933 9.80518 14.9233 9.39258 14.9233 8.87207V7.62158C14.9233 7.10107 14.5996 6.68848 14.0981 6.56152L12.9873 6.29492L12.9238 6.12988L13.5269 5.15869C13.8062 4.7207 13.7363 4.20654 13.3618 3.81934L12.4731 2.93066C12.105 2.5625 11.5845 2.49268 11.1465 2.76562L10.1689 3.3623L9.99121 3.29248L9.73096 2.16895C9.61035 1.66748 9.19775 1.34375 8.6709 1.34375H7.38867C6.85547 1.34375 6.44922 1.66748 6.32861 2.16895L6.06836 3.29248L5.89062 3.3623L4.91309 2.76562C4.46875 2.49268 3.94824 2.5625 3.58008 2.93066L2.69141 3.81934C2.31689 4.20654 2.24707 4.7207 2.52637 5.15869L3.13574 6.12988L3.06592 6.29492L1.96143 6.56152C1.45361 6.68848 1.13623 7.10107 1.13623 7.62158V8.87207C1.13623 9.39258 1.45996 9.80518 1.96143 9.93213L3.07861 10.1924L3.14209 10.3511L2.53271 11.3223C2.25342 11.7603 2.32324 12.2808 2.69775 12.6553L3.58643 13.5439C3.96094 13.9185 4.48145 13.9883 4.91943 13.709L5.89697 13.106L6.06836 13.1694L6.32861 14.293C6.44922 14.7944 6.85547 15.1182 7.38867 15.1182ZM7.54102 13.9692C7.43311 13.9692 7.38232 13.9185 7.36328 13.8232L6.98877 12.2617C6.58252 12.1665 6.20166 12.0078 5.89062 11.811L4.51953 12.6553C4.44336 12.7061 4.36719 12.6997 4.28467 12.6235L3.61182 11.9507C3.54199 11.8809 3.53564 11.8047 3.59277 11.7222L4.43701 10.3511C4.25928 10.0527 4.08789 9.67188 3.99268 9.27197L2.4248 8.89746C2.32959 8.87842 2.28516 8.82764 2.28516 8.71973V7.76758C2.28516 7.65332 2.32959 7.60889 2.4248 7.5835L3.99268 7.21533C4.08789 6.79004 4.27197 6.39648 4.42432 6.12354L3.58643 4.75879C3.5293 4.66992 3.5293 4.59375 3.60547 4.51758L4.27832 3.85107C4.36084 3.78125 4.42432 3.76855 4.51953 3.81934L5.88428 4.65088C6.16992 4.47949 6.58887 4.30176 6.98877 4.2002L7.36328 2.63867C7.38232 2.54346 7.43311 2.49268 7.54102 2.49268H8.51855C8.62646 2.49268 8.67725 2.53711 8.68994 2.63867L9.0708 4.21289C9.4834 4.30811 9.85791 4.47949 10.1689 4.65723L11.5337 3.82568C11.6289 3.7749 11.6924 3.78125 11.7686 3.85742L12.4478 4.52393C12.5239 4.59375 12.5239 4.66992 12.4668 4.75879L11.6289 6.12354C11.7812 6.39648 11.9717 6.79004 12.0669 7.21533L13.6284 7.5835C13.73 7.60889 13.7744 7.65332 13.7744 7.76758V8.71973C13.7744 8.82764 13.7236 8.87842 13.6284 8.89746L12.0605 9.27197C11.9653 9.67188 11.7939 10.0527 11.6226 10.3511L12.4604 11.7222C12.5112 11.8047 12.5112 11.8809 12.4414 11.9443L11.7686 12.6235C11.686 12.6997 11.6099 12.7061 11.5337 12.6553L10.1626 11.811C9.85156 12.0078 9.48975 12.1665 9.0708 12.2617L8.68994 13.8232C8.67725 13.9248 8.62646 13.9692 8.51855 13.9692H7.54102ZM8.02979 10.6431C9.3501 10.6431 10.4355 9.55762 10.4355 8.23096C10.4355 6.91699 9.3501 5.83154 8.02979 5.83154C6.70947 5.83154 5.61768 6.91699 5.61768 8.23096C5.61768 9.55762 6.70312 10.6431 8.02979 10.6431ZM8.02979 9.55762C7.30615 9.55762 6.70947 8.96094 6.70947 8.23096C6.70947 7.51367 7.30615 6.92334 8.02979 6.92334C8.74072 6.92334 9.33105 7.51367 9.33105 8.23096C9.33105 8.95459 8.74072 9.55762 8.02979 9.55762Z" fill="currentColor"/>
</svg>
