<svg viewBox="0 0 16 16" fill="none" xmlns="http://www.w3.org/2000/svg">
<path d="M15.8509 5.95813C15.5942 5.14305 15.0257 4.46365 14.2705 4.06945C13.5152 3.67525 12.635 3.59847 11.8234 3.85598C11.6011 3.92671 11.3872 4.02193 11.1857 4.13976C11.2734 3.84253 11.3182 3.5341 11.3184 3.22407C11.3184 2.369 10.9801 1.54897 10.3782 0.944343C9.77617 0.339712 8.95974 0 8.1084 0C7.25706 0 6.44062 0.339712 5.83863 0.944343C5.23664 1.54897 4.89842 2.369 4.89842 3.22407C4.89788 3.59801 4.96306 3.96912 5.091 4.32028C4.6861 4.02408 4.21753 3.82769 3.7231 3.74704C3.22866 3.66639 2.72227 3.7037 2.24486 3.85598C1.43322 4.11386 0.756551 4.68468 0.363382 5.44304C-0.0297877 6.2014 -0.107407 7.08543 0.147607 7.90118C0.352868 8.55139 0.757945 9.11956 1.30464 9.52424C1.85134 9.92892 2.5116 10.1493 3.19071 10.1537C2.63773 10.548 2.22367 11.1085 2.00829 11.7544C1.79291 12.4003 1.78733 13.0981 1.9923 13.7474C2.24906 14.5626 2.81727 15.2423 3.57232 15.6372C4.32736 16.0321 5.20764 16.11 6.01982 15.8539C6.52524 15.693 6.98317 15.409 7.35282 15.0272C7.72247 14.6454 7.99232 14.1777 8.13839 13.6658C8.13839 13.6916 8.13841 13.7216 8.15981 13.7474C8.41656 14.5626 8.98478 15.2423 9.73982 15.6372C10.4949 16.0321 11.375 16.11 12.1872 15.8539C12.9987 15.5961 13.6751 15.0251 14.0675 14.2665C14.46 13.508 14.5365 12.6239 14.2801 11.8087C14.0691 11.1322 13.64 10.5454 13.0604 10.1408C13.2971 10.1199 13.5309 10.0738 13.7579 10.0032C14.5695 9.74544 15.2459 9.17453 15.6384 8.41596C16.0308 7.65739 16.1073 6.77331 15.8509 5.95813Z" fill="currentColor"/>
</svg>
