<svg viewBox="0 0 16 16" fill="none" xmlns="http://www.w3.org/2000/svg">
<path d="M15.6779 6.65263L15.359 6.33371C14.6159 5.59383 12.8301 6.18067 11.3631 7.64449C12.8301 6.18067 13.4168 4.39154 12.6738 3.65166L12.3549 3.33274C11.615 2.59286 9.82584 3.17962 8.36202 4.64344C9.82584 3.17962 10.4127 1.3905 9.66961 0.650613L9.35069 0.331697C8.61081 -0.408188 6.82168 0.178651 5.35786 1.64247L1.64244 5.361C0.175432 6.82483 -0.411329 8.61076 0.331745 9.35383L0.65066 9.67275C1.39054 10.4158 3.17967 9.82906 4.64349 8.36205C3.17967 9.82906 2.59283 11.6149 3.33271 12.358L3.65163 12.6769C4.39151 13.4168 6.18064 12.83 7.64446 11.3662C6.18064 12.83 5.59388 14.6192 6.33376 15.359L6.65268 15.678C7.39256 16.4178 9.18168 15.831 10.6455 14.3672L14.3608 10.6518C15.831 9.18483 16.4178 7.39889 15.6779 6.65263Z" fill="currentColor"/>
</svg>
