<svg viewBox="0 0 16 16" fill="none" xmlns="http://www.w3.org/2000/svg">
<path d="M15.257 6.94371C14.7047 6.74653 14.1705 6.50199 13.6603 6.21286C13.498 6.121 13.3708 5.97782 13.2985 5.80581C13.2263 5.6338 13.2131 5.44274 13.2611 5.26245C13.417 4.69927 13.6199 4.15018 13.8679 3.62107C13.965 3.41219 13.9956 3.17841 13.9554 2.95156C13.9152 2.7247 13.8061 2.51581 13.643 2.35311C13.48 2.19042 13.2708 2.08184 13.0439 2.04219C12.817 2.00255 12.5835 2.03374 12.375 2.1315C11.8463 2.37889 11.2974 2.58063 10.7344 2.73453C10.5548 2.78302 10.3641 2.77003 10.1926 2.69767C10.0212 2.62531 9.87891 2.49774 9.7883 2.33517C9.49745 1.82512 9.25165 1.29062 9.05378 0.737767C8.97497 0.521507 8.83162 0.334675 8.64311 0.202698C8.4546 0.0707214 8.23009 0 8 0C7.76991 0 7.5454 0.0707214 7.35689 0.202698C7.16838 0.334675 7.02503 0.521507 6.94622 0.737767C6.74835 1.29062 6.50255 1.82512 6.2117 2.33517C6.12109 2.49774 5.97877 2.62531 5.80736 2.69767C5.63594 2.77003 5.44522 2.78302 5.2656 2.73453C4.70256 2.58063 4.15375 2.37889 3.62504 2.1315C3.41651 2.03374 3.18297 2.00255 2.95611 2.04219C2.72925 2.08184 2.52001 2.19042 2.35695 2.35311C2.19389 2.51581 2.08484 2.7247 2.04461 2.95156C2.00438 3.17841 2.03497 3.41219 2.13212 3.62107C2.38006 4.15018 2.58303 4.69927 2.73888 5.26245C2.78691 5.44274 2.7738 5.6338 2.70156 5.80581C2.62931 5.97782 2.50203 6.121 2.3397 6.21286C1.82949 6.50199 1.29527 6.74653 0.742998 6.94371C0.525481 7.02176 0.337352 7.16511 0.204364 7.35417C0.0713756 7.54324 0 7.76881 0 8C0 8.23119 0.0713756 8.45666 0.204364 8.64573C0.337352 8.8348 0.525481 8.97824 0.742998 9.05629C1.29527 9.25347 1.82949 9.49791 2.3397 9.78704C2.50155 9.8794 2.62841 10.0226 2.70058 10.1945C2.77276 10.3663 2.78621 10.5573 2.73888 10.7375C2.58303 11.3007 2.38006 11.8497 2.13212 12.3788C2.03497 12.5877 2.00438 12.8215 2.04461 13.0483C2.08484 13.2752 2.19389 13.4842 2.35695 13.6469C2.52001 13.8096 2.72925 13.9181 2.95611 13.9577C3.18297 13.9974 3.41651 13.9662 3.62504 13.8684C4.15375 13.621 4.70256 13.4193 5.2656 13.2654C5.44522 13.2169 5.63594 13.2299 5.80736 13.3022C5.97877 13.3746 6.12109 13.5022 6.2117 13.6647C6.50273 14.1747 6.74854 14.7092 6.94622 15.2621C7.02503 15.4784 7.16838 15.6652 7.35689 15.7972C7.5454 15.9292 7.76991 16 8 16C8.23009 16 8.4546 15.9292 8.64311 15.7972C8.83162 15.6652 8.97497 15.4784 9.05378 15.2621C9.25146 14.7092 9.49727 14.1747 9.7883 13.6647C9.87891 13.5022 10.0212 13.3746 10.1926 13.3022C10.3641 13.2299 10.5548 13.2169 10.7344 13.2654C11.2974 13.4193 11.8463 13.621 12.375 13.8684C12.5835 13.9662 12.817 13.9974 13.0439 13.9577C13.2708 13.9181 13.48 13.8096 13.643 13.6469C13.8061 13.4842 13.9152 13.2752 13.9554 13.0483C13.9956 12.8215 13.965 12.5877 13.8679 12.3788C13.6199 11.8497 13.417 11.3007 13.2611 10.7375C13.2138 10.5573 13.2272 10.3663 13.2994 10.1945C13.3716 10.0226 13.4985 9.8794 13.6603 9.78704C14.1705 9.49791 14.7047 9.25347 15.257 9.05629C15.4745 8.97824 15.6626 8.8348 15.7956 8.64573C15.9286 8.45666 16 8.23119 16 8C16 7.76881 15.9286 7.54324 15.7956 7.35417C15.6626 7.16511 15.4745 7.02176 15.257 6.94371Z" fill="currentColor"/>
</svg>
