<svg viewBox="0 0 14 14" fill="none" xmlns="http://www.w3.org/2000/svg">
<path d="M6.99829 1.24733L9.75096 0.195329C10.3169 -0.0135884 10.9308 -0.0559633 11.52 0.0732459C12.1093 0.202455 12.6491 0.497855 13.0756 0.924401C13.5021 1.35095 13.7975 1.89075 13.9268 2.47997C14.056 3.0692 14.0136 3.68316 13.8047 4.24906L12.7527 7.00174L13.8047 9.751C14.0136 10.3169 14.056 10.9308 13.9268 11.52C13.7975 12.1092 13.5021 12.6491 13.0756 13.0757C12.6491 13.5022 12.1093 13.7975 11.52 13.9267C10.9308 14.0559 10.3169 14.0136 9.75096 13.8047L6.99829 12.7527L4.24904 13.8047C3.68315 14.0136 3.06927 14.0559 2.48005 13.9267C1.89082 13.7975 1.35094 13.5022 0.924397 13.0757C0.497853 12.6491 0.202454 12.1092 0.0732455 11.52C-0.0559631 10.9308 -0.0135883 10.3169 0.195328 9.751L1.24732 7.00174L0.195328 4.24906C-0.0135883 3.68316 -0.0559631 3.0692 0.0732455 2.47997C0.202454 1.89075 0.497853 1.35095 0.924397 0.924401C1.35094 0.497855 1.89082 0.202455 2.48005 0.0732459C3.06927 -0.0559633 3.68315 -0.0135884 4.24904 0.195329L6.99829 1.24733Z" fill="currentColor"/>
</svg>
