<svg width="16" height="16" viewBox="0 0 16 16" fill="none" xmlns="http://www.w3.org/2000/svg">
<path d="M8 14.5571C11.5864 14.5571 14.5571 11.5928 14.5571 8C14.5571 4.41357 11.5864 1.44287 7.99365 1.44287C4.40723 1.44287 1.44287 4.41357 1.44287 8C1.44287 11.5928 4.41357 14.5571 8 14.5571ZM8 13.2686C5.08008 13.2686 2.73779 10.9199 2.73779 8C2.73779 5.08008 5.07373 2.73779 7.99365 2.73779C10.9136 2.73779 13.2622 5.08008 13.2686 8C13.2686 10.9199 10.9199 13.2686 8 13.2686ZM7.99365 5.05469C8.34912 5.05469 8.64746 4.75635 8.64746 4.40088C8.64746 4.03906 8.34912 3.75342 7.99365 3.75342C7.63184 3.75342 7.34619 4.03906 7.34619 4.40088C7.34619 4.75635 7.63818 5.05469 7.99365 5.05469ZM5.47998 6.15918C5.8418 6.15918 6.13379 5.86084 6.13379 5.51172C6.13379 5.1499 5.8418 4.85791 5.47998 4.85791C5.13086 4.85791 4.83252 5.1499 4.83252 5.51172C4.83252 5.86084 5.12451 6.15918 5.47998 6.15918ZM6.99072 8.99658C7.53027 9.51709 8.27295 9.40283 8.69824 8.78076L11.0405 5.45459C11.3008 5.08008 10.9263 4.71191 10.5518 4.96582L7.2002 7.28271C6.57812 7.70801 6.46387 8.45703 6.99072 8.99658ZM4.42627 8.65381C4.78809 8.65381 5.07373 8.35547 5.07373 8C5.07373 7.63818 4.78174 7.35254 4.42627 7.35254C4.0708 7.35254 3.77246 7.63818 3.77246 8C3.77246 8.35547 4.0708 8.65381 4.42627 8.65381ZM11.5674 8.65381C11.9165 8.65381 12.2148 8.35547 12.2148 8C12.2148 7.63818 11.9165 7.35254 11.5674 7.35254C11.2056 7.35254 10.9136 7.63818 10.9136 8C10.9136 8.35547 11.2056 8.65381 11.5674 8.65381ZM5.49268 11.1421C5.85449 11.1421 6.14014 10.8438 6.14014 10.4946C6.14014 10.1328 5.84814 9.84082 5.49268 9.84082C5.13721 9.84082 4.83887 10.1328 4.83887 10.4946C4.83887 10.8438 5.13721 11.1421 5.49268 11.1421ZM10.501 11.1421C10.8501 11.1421 11.1484 10.8438 11.1484 10.4946C11.1484 10.1328 10.8501 9.84082 10.501 9.84082C10.1392 9.84082 9.84717 10.1328 9.84717 10.4946C9.84717 10.8438 10.1392 11.1421 10.501 11.1421Z" fill="black"/>
</svg>
