<svg width="16" height="16" viewBox="0 0 16 16" fill="none" xmlns="http://www.w3.org/2000/svg">
<path d="M8 14.5571C11.5864 14.5571 14.5571 11.5928 14.5571 8C14.5571 4.41357 11.5864 1.44287 7.99365 1.44287C4.40723 1.44287 1.44287 4.41357 1.44287 8C1.44287 11.5928 4.41357 14.5571 8 14.5571ZM8 13.2686C5.08008 13.2686 2.73779 10.9199 2.73779 8C2.73779 5.08008 5.07373 2.73779 7.99365 2.73779C10.9136 2.73779 13.2622 5.08008 13.2686 8C13.2686 10.9199 10.9199 13.2686 8 13.2686ZM6.34326 10.3042H9.64404C10.0503 10.3042 10.3042 10.0693 10.3042 9.66943V6.32422C10.3042 5.93066 10.0503 5.68945 9.64404 5.68945H6.34326C5.93701 5.68945 5.68945 5.93066 5.68945 6.32422V9.66943C5.68945 10.0693 5.93701 10.3042 6.34326 10.3042Z" fill="black"/>
</svg>
