<svg width="12" height="12" viewBox="0 0 12 12" fill="none" xmlns="http://www.w3.org/2000/svg">
<path fill-rule="evenodd" clip-rule="evenodd" d="M4.45426 3.42826C4.90532 3.15647 5.43363 3 6 3C7.65685 3 9 4.34315 9 6H8L9.5 8.5L11 6H10C10 3.79086 8.20914 2 6 2C5.24671 2 4.54063 2.20871 3.93815 2.57174C3.70163 2.71426 3.62543 3.02153 3.76794 3.25805C3.91046 3.49458 4.21774 3.57078 4.45426 3.42826ZM2 6H1L2.5 3.5L4 6H3C3 7.65685 4.34315 9 6 9C6.56637 9 7.09468 8.84353 7.54574 8.57174C7.78226 8.42922 8.08954 8.50542 8.23206 8.74195C8.37457 8.97847 8.29837 9.28574 8.06185 9.42826C7.45937 9.79129 6.75329 10 6 10C3.79086 10 2 8.20914 2 6Z" fill="currentColor"/>
</svg>
