<svg width="20" height="20" viewBox="0 0 20 20" fill="none" xmlns="http://www.w3.org/2000/svg">
<path d="M1.38773 10.0645C1.05961 10.5225 1.21 10.9531 1.76371 10.9531H2.74808C3.17191 14.4121 6.18656 17.2012 9.83695 17.2012C11.7989 17.2012 13.583 16.3604 14.8272 15.0615C15.2032 14.7061 15.1963 14.2207 14.9229 13.9404C14.6358 13.6328 14.1846 13.5986 13.7744 13.9541C12.7901 14.9863 11.3887 15.6289 9.83695 15.6289C7.01371 15.6289 4.73734 13.5713 4.34086 10.9531H5.37308C5.91996 10.9531 6.07718 10.5293 5.74906 10.0713L4.04691 7.69238C3.78031 7.32324 3.36332 7.32324 3.09671 7.69238L1.38773 10.0645Z" fill="currentColor" fill-opacity="0.5"/>
<path opacity="0.6" d="M4.8467 5.07422C4.46389 5.42285 4.47073 5.90137 4.751 6.18848C5.03811 6.48926 5.48928 6.53711 5.89944 6.1748C6.89065 5.14941 8.28518 4.50684 9.83694 4.50684C12.6533 4.50684 14.9297 6.56445 15.3262 9.18262H14.2803C13.7334 9.18262 13.5762 9.61328 13.9043 10.0645L15.6133 12.4502C15.8731 12.8193 16.2901 12.8193 16.5567 12.4502L18.2656 10.0713C18.5938 9.61328 18.4502 9.18262 17.8897 9.18262H16.919C16.4951 5.72363 13.4805 2.94141 9.83694 2.94141C7.87502 2.94141 6.09084 3.77539 4.8467 5.07422Z" fill="currentColor" fill-opacity="0.5"/>
</svg>
