<svg width="16" height="16" viewBox="0 0 16 16" fill="none" xmlns="http://www.w3.org/2000/svg">
<path d="M8 4.77222C8.21582 4.77222 8.3999 4.85474 8.56494 5.02612L13.4082 9.97729C13.5479 10.1106 13.6177 10.2883 13.6177 10.4915C13.6177 10.9041 13.3003 11.2278 12.8813 11.2278C12.6782 11.2278 12.4941 11.1453 12.3545 11.0056L8 6.54321L3.64551 11.0056C3.49951 11.1453 3.31543 11.2278 3.1123 11.2278C2.69971 11.2278 2.38232 10.9041 2.38232 10.4915C2.38232 10.2883 2.45215 10.1106 2.5918 9.97729L7.43506 5.02612C7.6001 4.85474 7.78418 4.77856 8 4.77222Z" fill="black"/>
</svg>
