<svg width="16" height="16" viewBox="0 0 16 16" fill="none" xmlns="http://www.w3.org/2000/svg">
<path d="M8.00171 5.54321C8.10881 5.54321 8.20679 5.56372 8.29565 5.60474C8.3868 5.64575 8.47681 5.71069 8.56567 5.79956L12.0266 9.3186C12.1542 9.44393 12.218 9.59774 12.218 9.78003C12.218 9.90308 12.1873 10.0159 12.1257 10.1184C12.0665 10.2232 11.9856 10.3053 11.8831 10.3645C11.7828 10.426 11.6711 10.4568 11.5481 10.4568C11.3612 10.4568 11.1972 10.3827 11.0559 10.2346L7.88892 6.9856H8.12134L4.94751 10.2346C4.80168 10.3827 4.63534 10.4568 4.44849 10.4568C4.32772 10.4568 4.21606 10.426 4.11353 10.3645C4.01326 10.3053 3.93237 10.2232 3.87085 10.1184C3.8116 10.0159 3.78198 9.90308 3.78198 9.78003C3.78198 9.68888 3.79679 9.60571 3.82642 9.53052C3.85832 9.45532 3.90617 9.38468 3.96997 9.3186L7.43433 5.79956C7.6075 5.62866 7.79663 5.54321 8.00171 5.54321Z" fill="currentColor"/>
</svg>
