<svg width="16" height="16" viewBox="0 0 16 16" fill="none" xmlns="http://www.w3.org/2000/svg">
<path d="M8 14.5571C11.5864 14.5571 14.5571 11.5928 14.5571 8C14.5571 4.41357 11.5864 1.44287 7.99365 1.44287C4.40723 1.44287 1.44287 4.41357 1.44287 8C1.44287 11.5928 4.41357 14.5571 8 14.5571ZM8 9.09814C7.63184 9.09814 7.42236 8.88867 7.40967 8.51416L7.31445 5.31494C7.30176 4.92773 7.5874 4.65479 7.99365 4.65479C8.3999 4.65479 8.69189 4.93408 8.6792 5.32129L8.58398 8.51416C8.57129 8.89502 8.36182 9.09814 8 9.09814ZM8 11.2817C7.58105 11.2817 7.22559 10.9771 7.22559 10.5581C7.22559 10.1455 7.57471 9.83447 8 9.83447C8.43164 9.83447 8.77441 10.1455 8.77441 10.5581C8.77441 10.9834 8.42529 11.2817 8 11.2817Z" fill="currentColor"/>
</svg>
