<svg width="16" height="16" viewBox="0 0 16 16" fill="none" xmlns="http://www.w3.org/2000/svg">
<path fill-rule="evenodd" clip-rule="evenodd" d="M14.5571 8C14.5571 11.5928 11.5864 14.5571 8 14.5571C4.41357 14.5571 1.44287 11.5928 1.44287 8C1.44287 4.41357 4.40723 1.44287 7.99365 1.44287C11.5864 1.44287 14.5571 4.41357 14.5571 8ZM2.73779 8C2.73779 10.9199 5.08008 13.2686 8 13.2686C10.9199 13.2686 13.2686 10.9199 13.2686 8C13.2622 5.08008 10.9136 2.73779 7.99365 2.73779C5.07373 2.73779 2.73779 5.08008 2.73779 8ZM7.40967 8.51416C7.42236 8.88867 7.63184 9.09814 8 9.09814C8.36182 9.09814 8.57129 8.89502 8.58398 8.51416L8.6792 5.32129C8.69189 4.93408 8.3999 4.65479 7.99365 4.65479C7.5874 4.65479 7.30176 4.92773 7.31445 5.31494L7.40967 8.51416ZM7.22559 10.5581C7.22559 10.9771 7.58105 11.2817 8 11.2817C8.42529 11.2817 8.77441 10.9834 8.77441 10.5581C8.77441 10.1455 8.43164 9.83447 8 9.83447C7.57471 9.83447 7.22559 10.1455 7.22559 10.5581Z" fill="currentColor"/>
</svg>
