<svg version="1.1" id="Layer_1" xmlns="http://www.w3.org/2000/svg" xmlns:xlink="http://www.w3.org/1999/xlink" x="0px" y="0px"
	 width="100%" viewBox="0 0 512 512" enable-background="new 0 0 512 512" xml:space="preserve">
<path fill="#000000" opacity="1.000000" stroke="none" 
	d="
M280.000000,513.000000 
	C186.689316,513.000000 93.878632,513.000000 1.033972,513.000000 
	C1.033972,342.397614 1.033972,171.795242 1.033972,1.096426 
	C171.560699,1.096426 342.121490,1.096426 512.841125,1.096426 
	C512.841125,171.666550 512.841125,342.333252 512.841125,513.000000 
	C435.461884,513.000000 357.980927,513.000000 280.000000,513.000000 
M365.674469,446.874329 
	C366.455933,446.245056 367.237396,445.615753 367.997406,445.003174 
	C367.997406,445.003174 367.978912,445.024139 368.690430,444.908356 
	C372.075043,441.510803 375.439331,438.092590 378.857697,434.729340 
	C379.783661,433.818268 380.757172,432.814148 381.908539,432.299408 
	C385.702393,430.603088 388.499908,427.999603 391.015137,424.650238 
	C393.852112,420.872406 396.898407,416.228638 400.919922,414.609161 
	C406.597076,412.322968 410.721619,408.248779 412.993500,403.840179 
	C416.146118,397.722412 420.380859,393.768707 425.905334,390.311768 
	C428.480804,388.700195 431.782440,386.218689 432.215454,383.695587 
	C432.845428,380.024933 434.581177,378.854401 437.417877,377.626068 
	C438.851135,377.005463 440.210144,375.675323 441.048981,374.322632 
	C443.407196,370.520020 445.619232,366.610199 447.628876,362.611969 
	C450.597839,356.705139 453.458893,350.737610 456.159302,344.703491 
	C462.782990,329.903015 461.856323,313.911011 462.854736,298.319611 
	C463.872833,282.420532 463.932800,266.443298 463.929932,250.500381 
	C463.927032,234.221512 463.349182,217.942520 463.002045,201.664032 
	C462.683411,186.719696 461.826447,171.765244 462.139771,156.834839 
	C462.483978,140.434723 459.680603,124.858185 452.876068,110.000893 
	C448.675171,100.828453 443.976196,91.696236 437.225128,84.346329 
	C434.605988,81.494881 432.539124,76.154510 426.997925,76.296150 
	C426.707092,76.303589 426.449646,75.504135 426.087708,75.179466 
	C423.404907,72.772705 420.699524,70.391113 418.000000,68.000000 
	C418.000000,68.000000 417.998779,67.999214 417.784821,67.407967 
	C415.270050,66.463882 412.700867,65.641899 410.252075,64.549843 
	C405.427734,62.398388 400.707703,60.012463 395.878052,57.873596 
	C381.231140,51.387020 365.440430,52.134373 350.012146,51.133293 
	C335.115967,50.166737 320.146271,50.051167 305.209442,50.067005 
	C288.105835,50.085136 271.002777,50.659325 253.899490,50.993172 
	C236.797195,51.326996 219.682953,51.383198 202.597687,52.114902 
	C194.060791,52.480507 185.173203,52.833069 177.165375,55.422024 
	C165.727753,59.119843 154.792221,64.544182 143.990891,69.930321 
	C140.771713,71.535583 138.821396,75.582474 136.114700,78.338806 
	C129.465271,85.110191 122.714279,91.781860 116.003647,98.493149 
	C109.410744,105.086708 102.028336,111.081558 96.447716,118.442490 
	C90.955589,125.686668 80.313576,127.304733 77.404625,136.957413 
	C77.241356,137.499191 76.013275,137.695770 75.311737,138.105957 
	C74.485092,138.589310 73.426025,138.949524 72.931068,139.677948 
	C70.869682,142.711700 68.982521,145.863846 67.005882,148.994766 
	C67.005882,148.994766 66.984924,149.019730 66.387543,149.239685 
	C64.274994,154.117172 62.079659,158.960999 60.077156,163.883255 
	C58.584637,167.551941 57.351658,171.325806 55.985493,175.046371 
	C51.202381,188.072540 52.111027,201.840698 51.172119,215.295807 
	C50.075096,231.016800 50.069611,246.832504 50.076569,262.606903 
	C50.083893,279.217438 50.679150,295.827393 50.992008,312.438110 
	C51.342579,331.051392 51.391010,349.675415 52.085869,368.275543 
	C52.637432,383.039825 56.683414,397.059021 64.357849,409.710968 
	C67.829697,415.434601 70.105309,421.933655 75.451904,426.618073 
	C78.572670,429.352295 80.225227,433.733368 83.275162,436.585693 
	C86.175926,439.298553 89.940445,441.160797 93.491905,443.090210 
	C101.710091,447.554932 109.870819,452.174591 118.342598,456.112366 
	C132.723831,462.796906 148.437775,462.042603 163.708649,462.838196 
	C183.281967,463.857910 202.917847,463.902802 222.527390,463.930054 
	C238.639267,463.952393 254.755310,463.447083 270.863556,462.972992 
	C289.264221,462.431488 307.686523,462.088287 326.046051,460.860535 
	C340.155579,459.917023 352.480499,452.998993 365.005219,446.994110 
	C365.005219,446.994110 365.027466,446.968475 365.674469,446.874329 
z"/>
<path fill="#34312A" opacity="1.000000" stroke="none" 
	d="
M418.001221,68.001602 
	C420.699524,70.391113 423.404907,72.772705 426.087708,75.179466 
	C426.449646,75.504135 426.707092,76.303589 426.997925,76.296150 
	C432.539124,76.154510 434.605988,81.494881 437.225128,84.346329 
	C443.976196,91.696236 448.675171,100.828453 452.876068,110.000893 
	C459.680603,124.858185 462.483978,140.434723 462.139771,156.834839 
	C461.826447,171.765244 462.683411,186.719696 463.002045,201.664032 
	C463.349182,217.942520 463.927032,234.221512 463.929932,250.500381 
	C463.932800,266.443298 463.872833,282.420532 462.854736,298.319611 
	C461.856323,313.911011 462.782990,329.903015 456.159302,344.703491 
	C453.458893,350.737610 450.597839,356.705139 447.628876,362.611969 
	C445.619232,366.610199 443.407196,370.520020 441.048981,374.322632 
	C440.210144,375.675323 438.851135,377.005463 437.417877,377.626068 
	C434.581177,378.854401 432.845428,380.024933 432.215454,383.695587 
	C431.782440,386.218689 428.480804,388.700195 425.905334,390.311768 
	C420.380859,393.768707 416.146118,397.722412 412.993500,403.840179 
	C410.721619,408.248779 406.597076,412.322968 400.919922,414.609161 
	C396.898407,416.228638 393.852112,420.872406 391.015137,424.650238 
	C388.499908,427.999603 385.702393,430.603088 381.908539,432.299408 
	C380.757172,432.814148 379.783661,433.818268 378.857697,434.729340 
	C375.439331,438.092590 372.075043,441.510803 368.319580,444.796600 
	C367.844818,444.716309 367.740967,444.747772 367.637115,444.779236 
	C367.764343,444.848297 367.891602,444.917389 368.018860,444.986450 
	C367.237396,445.615753 366.455933,446.245056 365.314392,446.755249 
	C364.842743,446.586273 364.731232,446.536377 364.619690,446.486481 
	C364.739868,446.662750 364.860077,446.838989 364.980286,447.015228 
	C352.480499,452.998993 340.155579,459.917023 326.046051,460.860535 
	C307.686523,462.088287 289.264221,462.431488 270.863556,462.972992 
	C254.755310,463.447083 238.639267,463.952393 222.527390,463.930054 
	C202.917847,463.902802 183.281967,463.857910 163.708649,462.838196 
	C148.437775,462.042603 132.723831,462.796906 118.342598,456.112366 
	C109.870819,452.174591 101.710091,447.554932 93.491905,443.090210 
	C89.940445,441.160797 86.175926,439.298553 83.275162,436.585693 
	C80.225227,433.733368 78.572670,429.352295 75.451904,426.618073 
	C70.105309,421.933655 67.829697,415.434601 64.357849,409.710968 
	C56.683414,397.059021 52.637432,383.039825 52.085869,368.275543 
	C51.391010,349.675415 51.342579,331.051392 50.992008,312.438110 
	C50.679150,295.827393 50.083893,279.217438 50.076569,262.606903 
	C50.069611,246.832504 50.075096,231.016800 51.172119,215.295807 
	C52.111027,201.840698 51.202381,188.072540 55.985493,175.046371 
	C57.351658,171.325806 58.584637,167.551941 60.077156,163.883255 
	C62.079659,158.960999 64.274994,154.117172 66.755753,149.283737 
	C67.231308,149.371933 67.338646,149.416077 67.445984,149.460236 
	C67.307800,149.297684 67.169632,149.135117 67.031456,148.972565 
	C68.982521,145.863846 70.869682,142.711700 72.931068,139.677948 
	C73.426025,138.949524 74.485092,138.589310 75.311737,138.105957 
	C76.013275,137.695770 77.241356,137.499191 77.404625,136.957413 
	C80.313576,127.304733 90.955589,125.686668 96.447716,118.442490 
	C102.028336,111.081558 109.410744,105.086708 116.003647,98.493149 
	C122.714279,91.781860 129.465271,85.110191 136.114700,78.338806 
	C138.821396,75.582474 140.771713,71.535583 143.990891,69.930321 
	C154.792221,64.544182 165.727753,59.119843 177.165375,55.422024 
	C185.173203,52.833069 194.060791,52.480507 202.597687,52.114902 
	C219.682953,51.383198 236.797195,51.326996 253.899490,50.993172 
	C271.002777,50.659325 288.105835,50.085136 305.209442,50.067005 
	C320.146271,50.051167 335.115967,50.166737 350.012146,51.133293 
	C365.440430,52.134373 381.231140,51.387020 395.878052,57.873596 
	C400.707703,60.012463 405.427734,62.398388 410.252075,64.549843 
	C412.700867,65.641899 415.270050,66.463882 417.735596,67.768326 
	C417.791351,68.086327 417.896271,68.043961 418.001221,68.001602 
M313.710663,442.184357 
	C317.428436,441.783997 321.177795,441.571960 324.859039,440.953918 
	C358.235321,435.350525 386.070221,406.298920 389.962341,372.707031 
	C390.992462,363.816467 391.107849,354.819855 392.291138,345.553925 
	C392.218781,337.049011 392.146393,328.544128 391.894440,319.118530 
	C392.018097,314.738190 392.141724,310.357819 393.009613,305.742432 
	C393.336121,305.039490 393.944366,304.337708 393.947357,303.633392 
	C394.004944,290.109283 394.028656,276.584595 393.924286,263.061035 
	C393.915649,261.943390 392.939972,260.833252 392.104095,259.004974 
	C392.102264,254.652802 392.100433,250.300644 392.647614,245.336639 
	C392.752014,237.045029 392.894012,228.753433 392.899384,220.461746 
	C392.899872,219.681015 392.040375,218.899704 391.236481,217.224777 
	C391.066010,210.579803 391.330261,203.890274 390.654602,197.297073 
	C386.237549,154.194641 352.519623,123.638794 309.288177,123.085503 
	C293.511719,122.883591 277.741516,122.193474 261.729980,120.985947 
	C260.684662,120.659874 259.640289,120.052902 258.593933,120.049507 
	C240.607193,119.991142 222.620056,119.974464 204.633774,120.080544 
	C203.430054,120.087639 202.232513,121.148148 200.115341,121.945015 
	C183.493301,122.348564 166.873245,122.902992 150.248779,123.123543 
	C117.838501,123.553513 86.660461,146.330002 76.203178,176.914917 
	C71.526260,190.593704 71.674049,204.680450 71.128960,218.767929 
	C70.879135,225.224426 70.582001,231.679108 69.656601,238.442154 
	C69.448334,239.211319 69.058891,239.980270 69.057976,240.749680 
	C69.024765,268.657959 69.012474,296.566284 69.080750,324.474426 
	C69.083511,325.605774 69.893890,326.735168 70.701523,328.749878 
	C70.769188,330.912506 70.799934,333.077026 70.910515,335.237457 
	C71.615761,349.015503 71.162621,362.976776 73.285049,376.534180 
	C78.766243,411.546448 110.841309,441.034485 148.240936,442.155243 
	C151.972931,442.267120 155.674332,443.448059 159.405090,443.544067 
	C167.638809,443.755951 175.882172,443.592133 184.434433,444.236572 
	C185.355270,444.476959 186.275787,444.926086 187.196991,444.927521 
	C215.623505,444.971313 244.050110,444.986145 272.476532,444.923431 
	C273.607971,444.920959 274.737671,444.116974 276.742859,443.300598 
	C281.517639,443.249329 286.292389,443.198029 291.699127,443.662933 
	C298.043121,443.763763 304.387238,443.914459 310.730957,443.897552 
	C311.461365,443.895599 312.189301,442.959351 313.710663,442.184357 
z"/>
<path fill="#FACC19" opacity="1.000000" stroke="none" 
	d="
M261.968445,121.726089 
	C277.741516,122.193474 293.511719,122.883591 309.288177,123.085503 
	C352.519623,123.638794 386.237549,154.194641 390.654602,197.297073 
	C391.330261,203.890274 391.066010,210.579803 391.330627,218.078644 
	C391.649414,227.937820 391.874023,236.943146 392.098633,245.948471 
	C392.100433,250.300644 392.102264,254.652802 392.163849,259.836609 
	C392.237549,275.771301 392.251495,290.874390 392.265411,305.977478 
	C392.141724,310.357819 392.018097,314.738190 391.914459,320.040253 
	C391.837402,329.265289 391.740326,337.568634 391.643250,345.871948 
	C391.107849,354.819855 390.992462,363.816467 389.962341,372.707031 
	C386.070221,406.298920 358.235321,435.350525 324.859039,440.953918 
	C321.177795,441.571960 317.428436,441.783997 312.900818,442.266296 
	C305.083069,442.614410 298.075104,442.880554 291.067169,443.146729 
	C286.292389,443.198029 281.517639,443.249329 275.907501,443.407379 
	C271.075348,443.600098 267.078430,443.765106 263.081787,443.759216 
	C236.761688,443.720551 210.441666,443.645081 184.121613,443.581604 
	C175.882172,443.592133 167.638809,443.755951 159.405090,443.544067 
	C155.674332,443.448059 151.972931,442.267120 148.240936,442.155243 
	C110.841309,441.034485 78.766243,411.546448 73.285049,376.534180 
	C71.162621,362.976776 71.615761,349.015503 70.910515,335.237457 
	C70.799934,333.077026 70.769188,330.912506 70.599297,327.909546 
	C70.406044,322.906006 70.236534,318.742767 70.236832,314.579529 
	C70.238609,289.097900 70.278877,263.616241 70.306320,238.134613 
	C70.582001,231.679108 70.879135,225.224426 71.128960,218.767929 
	C71.674049,204.680450 71.526260,190.593704 76.203178,176.914917 
	C86.660461,146.330002 117.838501,123.553513 150.248779,123.123543 
	C166.873245,122.902992 183.493301,122.348564 201.036423,121.893311 
	C221.961151,121.803101 241.964798,121.764595 261.968445,121.726089 
M204.743607,359.708313 
	C221.535599,359.612640 238.327591,359.516998 255.980423,359.584625 
	C265.308960,359.369690 274.637512,359.154755 284.893829,359.112000 
	C293.379700,358.789795 301.865143,358.455017 310.351562,358.148254 
	C324.751160,357.627777 336.729462,351.974640 346.329987,341.243164 
	C356.299072,330.099701 358.823364,316.469666 358.798340,302.237457 
	C358.738617,268.284607 358.999084,234.311127 357.875092,200.387573 
	C357.172668,179.186554 340.322021,160.307526 318.124634,157.105942 
	C313.371094,156.420303 308.475739,156.771103 303.655365,156.482651 
	C297.088226,156.089615 290.530396,155.541260 283.044006,154.925079 
	C275.075989,154.840897 267.107941,154.756699 258.256744,154.294571 
	C241.466782,154.377655 224.676804,154.460739 207.021179,154.403854 
	C197.364410,154.632599 187.707657,154.861343 177.124359,154.901703 
	C166.968201,155.336105 156.748199,155.199814 146.669525,156.327011 
	C127.330933,158.489822 110.053268,172.881363 106.393021,192.000275 
	C103.642738,206.366089 104.062431,221.338806 102.937538,236.964691 
	C102.981476,250.628464 103.025421,264.292236 102.887871,278.882996 
	C103.321854,289.510712 103.537613,300.152740 104.233635,310.763275 
	C105.857147,335.512878 122.022339,353.961243 146.218140,357.538727 
	C156.667297,359.083649 167.428589,358.517334 178.969131,359.054352 
	C187.266068,359.146759 195.562988,359.239136 204.743607,359.708313 
z"/>
<path fill="#1E242B" opacity="1.000000" stroke="none" 
	d="
M261.849213,121.356018 
	C241.964798,121.764595 221.961151,121.803101 201.494797,121.780159 
	C202.232513,121.148148 203.430054,120.087639 204.633774,120.080544 
	C222.620056,119.974464 240.607193,119.991142 258.593933,120.049507 
	C259.640289,120.052902 260.684662,120.659874 261.849213,121.356018 
z"/>
<path fill="#02042B" opacity="1.000000" stroke="none" 
	d="
M184.278015,443.909119 
	C210.441666,443.645081 236.761688,443.720551 263.081787,443.759216 
	C267.078430,443.765106 271.075348,443.600098 275.470154,443.600281 
	C274.737671,444.116974 273.607971,444.920959 272.476532,444.923431 
	C244.050110,444.986145 215.623505,444.971313 187.196991,444.927521 
	C186.275787,444.926086 185.355270,444.476959 184.278015,443.909119 
z"/>
<path fill="#01032B" opacity="1.000000" stroke="none" 
	d="
M69.981461,238.288391 
	C70.278877,263.616241 70.238609,289.097900 70.236832,314.579529 
	C70.236534,318.742767 70.406044,322.906006 70.412529,327.467346 
	C69.893890,326.735168 69.083511,325.605774 69.080750,324.474426 
	C69.012474,296.566284 69.024765,268.657959 69.057976,240.749680 
	C69.058891,239.980270 69.448334,239.211319 69.981461,238.288391 
z"/>
<path fill="#25282A" opacity="1.000000" stroke="none" 
	d="
M392.637512,305.859955 
	C392.251495,290.874390 392.237549,275.771301 392.318604,260.193909 
	C392.939972,260.833252 393.915649,261.943390 393.924286,263.061035 
	C394.028656,276.584595 394.004944,290.109283 393.947357,303.633392 
	C393.944366,304.337708 393.336121,305.039490 392.637512,305.859955 
z"/>
<path fill="#01072B" opacity="1.000000" stroke="none" 
	d="
M392.373108,245.642548 
	C391.874023,236.943146 391.649414,227.937820 391.502502,218.525574 
	C392.040375,218.899704 392.899872,219.681015 392.899384,220.461746 
	C392.894012,228.753433 392.752014,237.045029 392.373108,245.642548 
z"/>
<path fill="#00062B" opacity="1.000000" stroke="none" 
	d="
M391.967194,345.712952 
	C391.740326,337.568634 391.837402,329.265289 392.004242,320.500610 
	C392.146393,328.544128 392.218781,337.049011 391.967194,345.712952 
z"/>
<path fill="#0A102B" opacity="1.000000" stroke="none" 
	d="
M291.383148,443.404846 
	C298.075104,442.880554 305.083069,442.614410 312.504700,442.402252 
	C312.189301,442.959351 311.461365,443.895599 310.730957,443.897552 
	C304.387238,443.914459 298.043121,443.763763 291.383148,443.404846 
z"/>
<path fill="#000000" opacity="1.000000" stroke="none" 
	d="
M364.992737,447.004669 
	C364.860077,446.838989 364.739868,446.662750 364.619690,446.486481 
	C364.731232,446.536377 364.842743,446.586273 364.990875,446.802307 
	C365.027466,446.968475 365.005219,446.994110 364.992737,447.004669 
z"/>
<path fill="#000000" opacity="1.000000" stroke="none" 
	d="
M368.008118,444.994812 
	C367.891602,444.917389 367.764343,444.848297 367.637115,444.779236 
	C367.740967,444.747772 367.844818,444.716309 367.963806,444.854492 
	C367.978912,445.024139 367.997406,445.003174 368.008118,444.994812 
z"/>
<path fill="#000000" opacity="1.000000" stroke="none" 
	d="
M67.018669,148.983673 
	C67.169632,149.135117 67.307800,149.297684 67.445984,149.460236 
	C67.338646,149.416077 67.231308,149.371933 67.054443,149.173767 
	C66.984924,149.019730 67.005882,148.994766 67.018669,148.983673 
z"/>
<path fill="#000000" opacity="1.000000" stroke="none" 
	d="
M418.000610,68.000793 
	C417.896271,68.043961 417.791351,68.086327 417.842590,68.063950 
	C417.998779,67.999214 418.000000,68.000000 418.000610,68.000793 
z"/>
<path fill="#38342C" opacity="1.000000" stroke="none" 
	d="
M283.968567,155.059509 
	C290.530396,155.541260 297.088226,156.089615 303.655365,156.482651 
	C308.475739,156.771103 313.371094,156.420303 318.124634,157.105942 
	C340.322021,160.307526 357.172668,179.186554 357.875092,200.387573 
	C358.999084,234.311127 358.738617,268.284607 358.798340,302.237457 
	C358.823364,316.469666 356.299072,330.099701 346.329987,341.243164 
	C336.729462,351.974640 324.751160,357.627777 310.351562,358.148254 
	C301.865143,358.455017 293.379700,358.789795 284.139160,358.729950 
	C274.574951,358.250824 265.765442,358.126251 256.955811,358.116241 
	C256.344238,358.115540 255.731689,358.966461 255.119583,359.421326 
	C238.327591,359.516998 221.535599,359.612640 204.155853,359.190186 
	C195.061417,358.751373 186.554764,358.830750 178.048096,358.910095 
	C167.428589,358.517334 156.667297,359.083649 146.218140,357.538727 
	C122.022339,353.961243 105.857147,335.512878 104.233635,310.763275 
	C103.537613,300.152740 103.321854,289.510712 103.269333,278.126038 
	C103.747833,264.160034 103.855774,250.951019 103.904495,237.741776 
	C103.906570,237.175995 103.361244,236.608200 103.070923,236.041336 
	C104.062431,221.338806 103.642738,206.366089 106.393021,192.000275 
	C110.053268,172.881363 127.330933,158.489822 146.669525,156.327011 
	C156.748199,155.199814 166.968201,155.336105 177.888428,155.277557 
	C187.627472,155.755112 196.602448,155.891937 205.577484,155.896057 
	C206.347061,155.896408 207.117050,155.015411 207.886841,154.543823 
	C224.676804,154.460739 241.466782,154.377655 258.842133,154.814514 
	C267.607880,155.242798 275.788208,155.151154 283.968567,155.059509 
M113.352631,238.658401 
	C113.235947,250.020996 113.094368,261.383484 113.043564,272.746368 
	C113.038818,273.808624 113.607895,274.873413 113.980148,276.750305 
	C114.447052,278.798584 114.913956,280.846832 115.745300,283.780731 
	C116.181839,292.742065 116.654251,301.701874 117.045341,310.665192 
	C117.480942,320.648804 121.746864,328.776947 128.706955,335.757202 
	C135.709579,342.780151 144.789185,345.100830 153.988037,346.498718 
	C159.890640,347.395660 166.050949,346.596710 172.418701,347.226044 
	C181.261414,347.192261 190.104141,347.158478 199.832825,346.940582 
	C202.233810,347.052399 204.634781,347.164215 207.287186,348.012238 
	C207.995651,348.336060 208.702972,348.939423 209.412766,348.942322 
	C223.559525,349.000305 237.706863,349.024567 251.853012,348.918335 
	C252.893570,348.910553 253.926285,347.859955 255.839478,347.037720 
	C258.573090,347.054016 261.306671,347.070282 264.644501,347.647156 
	C272.996857,347.751404 281.349243,347.894257 289.701599,347.893250 
	C290.440552,347.893158 291.179382,346.954590 292.776031,346.156860 
	C294.756989,346.178619 296.756042,346.383606 298.715729,346.190063 
	C306.720245,345.399445 315.595795,346.409393 322.528351,343.224762 
	C337.604340,336.299377 345.878662,323.737213 345.935486,306.378357 
	C345.969757,295.904449 346.811951,285.433197 348.022736,274.703003 
	C348.333008,274.159515 348.910645,273.617645 348.913971,273.072266 
	C348.977722,262.595184 349.014526,252.117294 348.910461,241.641037 
	C348.901794,240.768326 347.849091,239.905991 347.026367,238.128708 
	C346.621185,227.147766 346.128845,216.169174 345.830139,205.185349 
	C345.316071,186.282684 330.884796,169.890732 311.833893,168.620544 
	C305.534241,168.200546 299.225647,167.914276 292.595551,166.891098 
	C287.598663,166.599701 282.602203,166.091339 277.604736,166.081131 
	C273.084534,166.071884 268.563263,166.606628 263.147308,167.084564 
	C260.418976,166.958237 257.690674,166.831894 254.706970,165.972717 
	C253.996170,165.653625 253.286453,165.059021 252.574387,165.056152 
	C238.427628,164.999557 224.280289,164.975525 210.134140,165.083298 
	C209.097443,165.091202 208.068741,166.152176 206.167221,166.972458 
	C203.761169,166.943619 201.355103,166.914780 198.333191,166.343689 
	C190.694427,166.231873 183.055695,166.079681 175.416809,166.070099 
	C174.645050,166.069138 173.872208,166.929306 172.211334,167.745560 
	C166.565872,167.897385 160.921066,168.144119 155.274811,168.184067 
	C134.478622,168.331192 117.007408,183.372192 116.830093,205.787979 
	C116.765961,213.895706 115.922821,221.997284 114.791054,230.413834 
	C114.497551,232.963501 114.204041,235.513168 113.352631,238.658401 
z"/>
<path fill="#00032B" opacity="1.000000" stroke="none" 
	d="
M103.004227,236.503021 
	C103.361244,236.608200 103.906570,237.175995 103.904495,237.741776 
	C103.855774,250.951019 103.747833,264.160034 103.360085,277.662537 
	C103.025421,264.292236 102.981476,250.628464 103.004227,236.503021 
z"/>
<path fill="#040C2B" opacity="1.000000" stroke="none" 
	d="
M207.454010,154.473846 
	C207.117050,155.015411 206.347061,155.896408 205.577484,155.896057 
	C196.602448,155.891937 187.627472,155.755112 178.351685,155.371735 
	C187.707657,154.861343 197.364410,154.632599 207.454010,154.473846 
z"/>
<path fill="#040B2B" opacity="1.000000" stroke="none" 
	d="
M255.550003,359.502991 
	C255.731689,358.966461 256.344238,358.115540 256.955811,358.116241 
	C265.765442,358.126251 274.574951,358.250824 283.675293,358.643860 
	C274.637512,359.154755 265.308960,359.369690 255.550003,359.502991 
z"/>
<path fill="#02092B" opacity="1.000000" stroke="none" 
	d="
M178.508606,358.982239 
	C186.554764,358.830750 195.061417,358.751373 203.714005,359.001770 
	C195.562988,359.239136 187.266068,359.146759 178.508606,358.982239 
z"/>
<path fill="#02092B" opacity="1.000000" stroke="none" 
	d="
M283.506287,154.992294 
	C275.788208,155.151154 267.607880,155.242798 259.283722,155.003479 
	C267.107941,154.756699 275.075989,154.840897 283.506287,154.992294 
z"/>
<path fill="#FEFDFD" opacity="1.000000" stroke="none" 
	d="
M264.040283,347.086548 
	C261.306671,347.070282 258.573090,347.054016 254.938782,347.102905 
	C238.370651,347.204041 222.703217,347.240021 207.035767,347.276001 
	C204.634781,347.164215 202.233810,347.052399 198.931183,346.951294 
	C189.384933,346.827301 180.740341,346.692627 172.095749,346.557953 
	C166.050949,346.596710 159.890640,347.395660 153.988037,346.498718 
	C144.789185,345.100830 135.709579,342.780151 128.706955,335.757202 
	C121.746864,328.776947 117.480942,320.648804 117.045341,310.665192 
	C116.654251,301.701874 116.181839,292.742065 115.642677,282.935730 
	C115.505081,264.761047 115.470116,247.431351 115.435150,230.101669 
	C115.922821,221.997284 116.765961,213.895706 116.830093,205.787979 
	C117.007408,183.372192 134.478622,168.331192 155.274811,168.184067 
	C160.921066,168.144119 166.565872,167.897385 173.058182,167.647308 
	C182.253036,167.328033 190.601044,167.106995 198.949051,166.885956 
	C201.355103,166.914780 203.761169,166.943619 207.064590,166.906769 
	C223.628754,166.795914 239.295547,166.750748 254.962341,166.705566 
	C257.690674,166.831894 260.418976,166.958237 264.055511,167.065979 
	C274.282867,167.220535 283.601990,167.393692 292.921143,167.566849 
	C299.225647,167.914276 305.534241,168.200546 311.833893,168.620544 
	C330.884796,169.890732 345.316071,186.282684 345.830139,205.185349 
	C346.128845,216.169174 346.621185,227.147766 347.095673,239.046478 
	C347.207001,251.629745 347.249054,263.295258 347.291138,274.960754 
	C346.811951,285.433197 345.969757,295.904449 345.935486,306.378357 
	C345.878662,323.737213 337.604340,336.299377 322.528351,343.224762 
	C315.595795,346.409393 306.720245,345.399445 298.715729,346.190063 
	C296.756042,346.383606 294.756989,346.178619 291.927002,346.252136 
	C282.065430,346.593811 273.052856,346.840179 264.040283,347.086548 
M192.165726,246.064926 
	C192.069855,235.727615 191.973984,225.390289 191.900024,214.340057 
	C189.210876,208.964523 185.767334,205.730850 178.841675,206.615906 
	C171.608398,207.540253 167.216583,210.685654 166.998688,217.993347 
	C166.735779,226.811569 166.776459,235.648132 167.005035,244.468475 
	C167.162369,250.539154 171.739136,255.931244 176.580673,256.280792 
	C186.018539,256.962250 190.064224,254.555023 192.165726,246.064926 
M295.165710,246.064957 
	C295.069855,235.727631 294.973999,225.390305 294.900024,214.340042 
	C292.210876,208.964554 288.767365,205.730896 281.841736,206.615936 
	C274.608368,207.540298 270.216583,210.685669 269.998718,217.993317 
	C269.735809,226.811523 269.776428,235.648087 270.005005,244.468430 
	C270.162323,250.539032 274.739075,255.931229 279.580627,256.280762 
	C289.018005,256.962158 293.063812,254.555801 295.165710,246.064957 
M255.865570,312.686493 
	C256.238983,312.471252 256.612366,312.256012 257.503235,312.186005 
	C261.323090,311.208160 265.142914,310.230316 268.971558,309.214386 
	C268.971558,309.214386 268.994324,309.253296 269.670685,309.241821 
	C270.489807,308.935852 271.308899,308.629852 272.789856,308.286713 
	C273.195953,308.120911 273.602051,307.955139 274.456665,307.871033 
	C274.802124,307.840057 275.026398,307.658997 275.799896,307.277374 
	C276.203339,307.092926 276.606812,306.908447 277.649353,306.679688 
	C279.186188,306.001160 280.722992,305.322632 282.893005,304.445923 
	C283.265015,304.209991 283.637024,303.974060 284.615784,303.696228 
	C285.842743,303.027863 287.069733,302.359467 288.842865,301.536102 
	C289.289093,301.196899 289.735352,300.857727 290.837463,300.344238 
	C291.918091,299.573303 292.998718,298.802368 294.547546,298.034302 
	C294.885620,297.940369 295.087494,297.721039 295.812958,297.169495 
	C299.858185,292.780304 303.903412,288.391113 308.404480,283.328705 
	C308.276520,282.552765 308.148560,281.776825 308.074768,280.237701 
	C304.328827,275.083496 301.298187,275.023041 296.712341,279.153870 
	C292.096527,283.311646 287.067810,287.023956 282.099091,290.771088 
	C279.888214,292.438385 277.380646,293.712250 274.328644,295.005676 
	C273.883026,295.071930 273.437408,295.138184 272.400787,295.177307 
	C271.912628,295.731232 271.424500,296.285156 270.277527,296.840240 
	C269.851959,296.887939 269.426361,296.935669 268.175507,296.847931 
	C263.382721,298.021576 258.589905,299.195190 253.141968,300.303070 
	C252.769455,300.512390 252.396927,300.721710 251.608032,300.769440 
	C251.049988,301.123962 250.491959,301.478455 249.107574,301.901245 
	C247.727661,301.967468 246.347763,302.033691 244.527496,301.734100 
	C243.362411,302.189758 242.197327,302.645416 240.190964,302.899384 
	C234.116196,302.634338 228.041443,302.369293 221.215546,301.886292 
	C212.802216,300.358215 204.388885,298.830139 195.530670,297.007141 
	C195.356384,297.042877 195.182098,297.078644 194.292496,296.816956 
	C189.598602,295.038757 184.474411,293.942139 180.315567,291.316467 
	C174.630020,287.726959 169.722595,282.918579 164.398849,278.738098 
	C160.126785,275.383453 156.596802,276.649414 154.417160,282.613922 
	C154.556702,283.072815 154.696259,283.531677 154.780014,284.726807 
	C158.476028,288.598907 162.172043,292.471008 166.046631,296.773956 
	C166.282288,297.023834 166.568054,297.112823 167.205872,297.582306 
	C167.754044,297.855286 168.302216,298.128235 169.061356,298.818420 
	C169.061356,298.818420 169.471237,299.043274 169.471237,299.043274 
	C169.471237,299.043274 169.938446,299.026367 170.298721,299.590424 
	C171.481888,300.201721 172.665054,300.812988 174.267914,301.938263 
	C176.128799,302.757019 177.989670,303.575775 180.226654,304.851379 
	C181.148239,305.158112 182.069839,305.464813 183.547211,306.133911 
	C183.966019,306.271271 184.384827,306.408661 185.267792,306.933441 
	C185.843689,306.919708 186.419601,306.905975 187.568924,307.076019 
	C188.047470,307.358032 188.526001,307.640045 189.413757,308.172180 
	C189.413757,308.172180 189.892380,308.141418 189.924042,308.014954 
	C189.924042,308.014954 189.827499,308.103058 190.317886,308.654785 
	C197.530289,310.136627 204.742691,311.618469 212.643951,313.600281 
	C213.767975,313.707520 214.891983,313.814789 216.802734,314.155579 
	C227.196182,313.997589 237.589630,313.839630 248.788437,313.784607 
	C249.541000,313.524628 250.293564,313.264648 251.628326,313.163940 
	C252.821640,312.987762 254.014954,312.811584 255.865570,312.686493 
z"/>
<path fill="#221D0E" opacity="1.000000" stroke="none" 
	d="
M254.834656,166.339142 
	C239.295547,166.750748 223.628754,166.795914 207.499146,166.782318 
	C208.068741,166.152176 209.097443,165.091202 210.134140,165.083298 
	C224.280289,164.975525 238.427628,164.999557 252.574387,165.056152 
	C253.286453,165.059021 253.996170,165.653625 254.834656,166.339142 
z"/>
<path fill="#221D0F" opacity="1.000000" stroke="none" 
	d="
M207.161469,347.644104 
	C222.703217,347.240021 238.370651,347.204041 254.500366,347.231110 
	C253.926285,347.859955 252.893570,348.910553 251.853012,348.918335 
	C237.706863,349.024567 223.559525,349.000305 209.412766,348.942322 
	C208.702972,348.939423 207.995651,348.336060 207.161469,347.644104 
z"/>
<path fill="#201B0D" opacity="1.000000" stroke="none" 
	d="
M347.656921,274.831879 
	C347.249054,263.295258 347.207001,251.629745 347.223206,239.501556 
	C347.849091,239.905991 348.901794,240.768326 348.910461,241.641037 
	C349.014526,252.117294 348.977722,262.595184 348.913971,273.072266 
	C348.910645,273.617645 348.333008,274.159515 347.656921,274.831879 
z"/>
<path fill="#010000" opacity="1.000000" stroke="none" 
	d="
M115.113098,230.257751 
	C115.470116,247.431351 115.505081,264.761047 115.460457,282.492920 
	C114.913956,280.846832 114.447052,278.798584 113.976410,275.882782 
	C113.951958,262.697784 113.931244,250.380310 113.910538,238.062836 
	C114.204041,235.513168 114.497551,232.963501 115.113098,230.257751 
z"/>
<path fill="#3F3D38" opacity="1.000000" stroke="none" 
	d="
M113.631584,238.360626 
	C113.931244,250.380310 113.951958,262.697784 113.941605,275.476135 
	C113.607895,274.873413 113.038818,273.808624 113.043564,272.746368 
	C113.094368,261.383484 113.235947,250.020996 113.631584,238.360626 
z"/>
<path fill="#070501" opacity="1.000000" stroke="none" 
	d="
M292.758362,167.228973 
	C283.601990,167.393692 274.282867,167.220535 264.503082,166.974426 
	C268.563263,166.606628 273.084534,166.071884 277.604736,166.081131 
	C282.602203,166.091339 287.598663,166.599701 292.758362,167.228973 
z"/>
<path fill="#060400" opacity="1.000000" stroke="none" 
	d="
M264.342407,347.366852 
	C273.052856,346.840179 282.065430,346.593811 291.498138,346.399658 
	C291.179382,346.954590 290.440552,347.893158 289.701599,347.893250 
	C281.349243,347.894257 272.996857,347.751404 264.342407,347.366852 
z"/>
<path fill="#050300" opacity="1.000000" stroke="none" 
	d="
M172.257233,346.891998 
	C180.740341,346.692627 189.384933,346.827301 198.488190,347.043335 
	C190.104141,347.158478 181.261414,347.192261 172.257233,346.891998 
z"/>
<path fill="#040300" opacity="1.000000" stroke="none" 
	d="
M198.641113,166.614822 
	C190.601044,167.106995 182.253036,167.328033 173.502441,167.469452 
	C173.872208,166.929306 174.645050,166.069138 175.416809,166.070099 
	C183.055695,166.079681 190.694427,166.231873 198.641113,166.614822 
z"/>
<path fill="#2E2B26" opacity="1.000000" stroke="none" 
	d="
M154.864059,282.007538 
	C156.596802,276.649414 160.126785,275.383453 164.398849,278.738098 
	C169.722595,282.918579 174.630020,287.726959 180.315567,291.316467 
	C184.474411,293.942139 189.598602,295.038757 194.723022,297.119019 
	C195.427536,297.381409 195.701538,297.341766 195.975540,297.302063 
	C204.388885,298.830139 212.802216,300.358215 221.647888,302.360138 
	C225.639969,306.770050 236.952911,307.503723 240.743942,304.020386 
	C240.948700,303.832214 240.941040,303.412842 241.032257,303.101105 
	C242.197327,302.645416 243.362411,302.189758 244.831299,302.274170 
	C247.120880,304.375519 248.959137,305.215515 249.933929,301.832947 
	C250.491959,301.478455 251.049988,301.123962 251.853607,301.179321 
	C252.514847,301.854706 252.930511,302.120270 253.346161,302.385803 
	C253.496475,301.713470 253.646790,301.041168 253.797119,300.368835 
	C258.589905,299.195190 263.382721,298.021576 268.626526,297.222046 
	C269.505432,297.896454 269.933258,298.196777 270.361115,298.497070 
	C270.552856,297.944397 270.744598,297.391754 270.936340,296.839081 
	C271.424500,296.285156 271.912628,295.731232 272.740479,295.470459 
	C273.406677,296.048157 273.733185,296.332703 274.059692,296.617279 
	C274.375702,296.133087 274.691711,295.648865 275.007721,295.164673 
	C277.380646,293.712250 279.888214,292.438385 282.099091,290.771088 
	C287.067810,287.023956 292.096527,283.311646 296.712341,279.153870 
	C301.298187,275.023041 304.328827,275.083496 307.712097,280.662537 
	C307.549133,282.058868 307.748871,283.030396 307.948608,284.001892 
	C303.903412,288.391113 299.858185,292.780304 295.349579,297.007751 
	C294.468994,296.734344 294.051758,296.622650 293.634552,296.510925 
	C293.782806,297.017761 293.931091,297.524597 294.079346,298.031433 
	C292.998718,298.802368 291.918091,299.573303 290.338318,300.119812 
	C289.324982,300.493958 288.810822,301.092529 288.296692,301.691101 
	C287.069733,302.359467 285.842743,303.027863 284.239136,303.411865 
	C283.328278,303.633057 282.794067,304.138580 282.259827,304.644104 
	C280.722992,305.322632 279.186188,306.001160 277.265106,306.409485 
	C276.297089,306.535431 275.713287,306.931641 275.129517,307.327820 
	C275.026398,307.658997 274.802124,307.840057 274.174316,307.532440 
	C273.303986,307.570526 272.716003,307.947205 272.128021,308.323853 
	C271.308899,308.629852 270.489807,308.935852 269.304077,308.919830 
	C268.704620,308.243073 268.471741,307.888336 268.238861,307.533569 
	C267.999756,307.796448 267.760620,308.059357 267.521515,308.322235 
	C268.001923,308.632294 268.482361,308.942383 268.962769,309.252472 
	C265.142914,310.230316 261.323090,311.208160 257.202423,311.786133 
	C256.568970,311.098053 256.236298,310.809906 255.903656,310.521729 
	C255.671875,311.226288 255.440079,311.930847 255.208282,312.635406 
	C254.014954,312.811584 252.821640,312.987762 251.296600,312.786224 
	C250.427444,311.977325 249.890015,311.546143 249.352570,311.114990 
	C248.896057,311.970520 248.439560,312.826080 247.983063,313.681641 
	C237.589630,313.839630 227.196182,313.997589 216.533829,313.743530 
	C215.920074,312.316162 215.575226,311.300842 215.230377,310.285492 
	C214.138626,311.223785 213.046860,312.162079 211.955093,313.100342 
	C204.742691,311.618469 197.530289,310.136627 190.374588,308.333557 
	C190.774246,307.606201 191.117203,307.200043 191.460159,306.793915 
	C191.194031,306.705933 190.726730,306.494476 190.693130,306.549225 
	C190.383469,307.053711 190.148819,307.604248 189.892365,308.141418 
	C189.892380,308.141418 189.413757,308.172180 189.206909,307.721680 
	C188.648010,306.652100 188.295990,306.033020 187.943970,305.413940 
	C187.627808,305.906708 187.311661,306.399506 186.995499,306.892273 
	C186.419601,306.905975 185.843689,306.919708 185.072693,306.416595 
	C184.595978,305.407074 184.314362,304.914398 184.032730,304.421722 
	C183.685623,304.871643 183.338531,305.321594 182.991440,305.771515 
	C182.069839,305.464813 181.148239,305.158112 180.049866,304.252441 
	C178.392441,301.484406 176.917419,299.300079 173.848221,301.424286 
	C172.665054,300.812988 171.481888,300.201721 170.357941,299.146057 
	C170.370041,298.286835 170.322906,297.871948 170.275787,297.457092 
	C169.800644,297.771790 169.325516,298.086487 168.850388,298.401215 
	C168.302216,298.128235 167.754044,297.855286 167.296707,297.153992 
	C167.362732,296.309143 167.337936,295.892639 167.313141,295.476105 
	C166.831436,295.765106 166.349747,296.054108 165.868042,296.343109 
	C162.172043,292.471008 158.476028,288.598907 155.125473,284.331970 
	C155.821503,283.523376 156.172073,283.109589 156.522644,282.695801 
	C155.969772,282.466370 155.416916,282.236969 154.864059,282.007538 
M234.369202,311.642120 
	C232.151947,311.434967 229.934692,311.227814 227.717422,311.020660 
	C227.712601,311.663300 227.707764,312.305939 227.702927,312.948608 
	C229.920120,312.765076 232.137314,312.581512 234.369202,311.642120 
M265.518616,308.407379 
	C265.518616,308.407379 265.588440,308.520844 265.518616,308.407379 
z"/>
<path fill="#35322B" opacity="1.000000" stroke="none" 
	d="
M294.956055,246.979416 
	C293.063812,254.555801 289.018005,256.962158 279.580627,256.280762 
	C274.739075,255.931229 270.162323,250.539032 270.005005,244.468430 
	C269.776428,235.648087 269.735809,226.811523 269.998718,217.993317 
	C270.216583,210.685669 274.608368,207.540298 281.841736,206.615936 
	C288.767365,205.730896 292.210876,208.964554 294.606873,214.996399 
	C294.218231,223.391998 294.035736,231.131714 294.074432,238.870300 
	C294.087952,241.574738 294.646454,244.276459 294.956055,246.979416 
z"/>
<path fill="#35322B" opacity="1.000000" stroke="none" 
	d="
M191.956070,246.979370 
	C190.064224,254.555023 186.018539,256.962250 176.580673,256.280792 
	C171.739136,255.931244 167.162369,250.539154 167.005035,244.468475 
	C166.776459,235.648132 166.735779,226.811569 166.998688,217.993347 
	C167.216583,210.685654 171.608398,207.540253 178.841675,206.615906 
	C185.767334,205.730850 189.210876,208.964523 191.606903,214.996399 
	C191.218246,223.391998 191.035736,231.131683 191.074432,238.870270 
	C191.087936,241.574707 191.646454,244.276413 191.956070,246.979370 
z"/>
<path fill="#37342E" opacity="1.000000" stroke="none" 
	d="
M240.611603,303.000244 
	C240.941040,303.412842 240.948700,303.832214 240.743942,304.020386 
	C236.952911,307.503723 225.639969,306.770050 222.023453,302.469116 
	C228.041443,302.369293 234.116196,302.634338 240.611603,303.000244 
z"/>
<path fill="#000000" opacity="1.000000" stroke="none" 
	d="
M295.060913,246.522186 
	C294.646454,244.276459 294.087952,241.574738 294.074432,238.870300 
	C294.035736,231.131714 294.218231,223.391998 294.595947,215.352859 
	C294.973999,225.390305 295.069855,235.727631 295.060913,246.522186 
z"/>
<path fill="#000000" opacity="1.000000" stroke="none" 
	d="
M192.060898,246.522156 
	C191.646454,244.276413 191.087936,241.574707 191.074432,238.870270 
	C191.035736,231.131683 191.218246,223.391998 191.595947,215.352875 
	C191.973984,225.390289 192.069855,235.727615 192.060898,246.522156 
z"/>
<path fill="#37342E" opacity="1.000000" stroke="none" 
	d="
M212.299530,313.350311 
	C213.046860,312.162079 214.138626,311.223785 215.230377,310.285492 
	C215.575226,311.300842 215.920074,312.316162 216.140472,313.626770 
	C214.891983,313.814789 213.767975,313.707520 212.299530,313.350311 
z"/>
<path fill="#37342E" opacity="1.000000" stroke="none" 
	d="
M174.058075,301.681274 
	C176.917419,299.300079 178.392441,301.484406 179.861816,304.024048 
	C177.989670,303.575775 176.128799,302.757019 174.058075,301.681274 
z"/>
<path fill="#37342E" opacity="1.000000" stroke="none" 
	d="
M249.520752,301.867096 
	C248.959137,305.215515 247.120880,304.375519 245.051483,302.457092 
	C246.347763,302.033691 247.727661,301.967468 249.520752,301.867096 
z"/>
<path fill="#37342E" opacity="1.000000" stroke="none" 
	d="
M248.385742,313.733124 
	C248.439560,312.826080 248.896057,311.970520 249.352570,311.114990 
	C249.890015,311.546143 250.427444,311.977325 251.005493,312.706604 
	C250.293564,313.264648 249.541000,313.524628 248.385742,313.733124 
z"/>
<path fill="#37342E" opacity="1.000000" stroke="none" 
	d="
M308.176544,283.665283 
	C307.748871,283.030396 307.549133,282.058868 307.684998,281.044128 
	C308.148560,281.776825 308.276520,282.552765 308.176544,283.665283 
z"/>
<path fill="#37342E" opacity="1.000000" stroke="none" 
	d="
M187.282211,306.984131 
	C187.311661,306.399506 187.627808,305.906708 187.943970,305.413940 
	C188.295990,306.033020 188.648010,306.652100 189.002289,307.596619 
	C188.526001,307.640045 188.047470,307.358032 187.282211,306.984131 
z"/>
<path fill="#37342E" opacity="1.000000" stroke="none" 
	d="
M270.606934,296.839661 
	C270.744598,297.391754 270.552856,297.944397 270.361115,298.497070 
	C269.933258,298.196777 269.505432,297.896454 269.039185,297.289795 
	C269.426361,296.935669 269.851959,296.887939 270.606934,296.839661 
z"/>
<path fill="#37342E" opacity="1.000000" stroke="none" 
	d="
M253.469543,300.335938 
	C253.646790,301.041168 253.496475,301.713470 253.346161,302.385803 
	C252.930511,302.120270 252.514847,301.854706 252.061783,301.260101 
	C252.396927,300.721710 252.769455,300.512390 253.469543,300.335938 
z"/>
<path fill="#37342E" opacity="1.000000" stroke="none" 
	d="
M154.640610,282.310730 
	C155.416916,282.236969 155.969772,282.466370 156.522644,282.695801 
	C156.172073,283.109589 155.821503,283.523376 155.153381,283.963867 
	C154.696259,283.531677 154.556702,283.072815 154.640610,282.310730 
z"/>
<path fill="#37342E" opacity="1.000000" stroke="none" 
	d="
M165.957336,296.558533 
	C166.349747,296.054108 166.831436,295.765106 167.313141,295.476105 
	C167.337936,295.892639 167.362732,296.309143 167.145721,296.883301 
	C166.568054,297.112823 166.282288,297.023834 165.957336,296.558533 
z"/>
<path fill="#37342E" opacity="1.000000" stroke="none" 
	d="
M274.668182,295.085175 
	C274.691711,295.648865 274.375702,296.133087 274.059692,296.617279 
	C273.733185,296.332703 273.406677,296.048157 273.035980,295.484009 
	C273.437408,295.138184 273.883026,295.071930 274.668182,295.085175 
z"/>
<path fill="#37342E" opacity="1.000000" stroke="none" 
	d="
M294.313446,298.032867 
	C293.931091,297.524597 293.782806,297.017761 293.634552,296.510925 
	C294.051758,296.622650 294.468994,296.734344 295.019714,297.111176 
	C295.087494,297.721039 294.885620,297.940369 294.313446,298.032867 
z"/>
<path fill="#37342E" opacity="1.000000" stroke="none" 
	d="
M168.955872,298.609802 
	C169.325516,298.086487 169.800644,297.771790 170.275787,297.457092 
	C170.322906,297.871948 170.370041,298.286835 170.177795,298.864014 
	C169.938446,299.026367 169.471237,299.043274 169.471237,299.043274 
	C169.471237,299.043274 169.061356,298.818420 168.955872,298.609802 
z"/>
<path fill="#37342E" opacity="1.000000" stroke="none" 
	d="
M282.576416,304.545013 
	C282.794067,304.138580 283.328278,303.633057 283.935791,303.432861 
	C283.637024,303.974060 283.265015,304.209991 282.576416,304.545013 
z"/>
<path fill="#37342E" opacity="1.000000" stroke="none" 
	d="
M183.269318,305.952698 
	C183.338531,305.321594 183.685623,304.871643 184.032730,304.421722 
	C184.314362,304.914398 184.595978,305.407074 184.840622,306.222900 
	C184.384827,306.408661 183.966019,306.271271 183.269318,305.952698 
z"/>
<path fill="#37342E" opacity="1.000000" stroke="none" 
	d="
M288.569763,301.613586 
	C288.810822,301.092529 289.324982,300.493958 290.010376,300.206970 
	C289.735352,300.857727 289.289093,301.196899 288.569763,301.613586 
z"/>
<path fill="#37342E" opacity="1.000000" stroke="none" 
	d="
M255.536926,312.660950 
	C255.440079,311.930847 255.671875,311.226288 255.903656,310.521729 
	C256.236298,310.809906 256.568970,311.098053 256.943695,311.713501 
	C256.612366,312.256012 256.238983,312.471252 255.536926,312.660950 
z"/>
<path fill="#37342E" opacity="1.000000" stroke="none" 
	d="
M275.464722,307.302612 
	C275.713287,306.931641 276.297089,306.535431 276.945557,306.431641 
	C276.606812,306.908447 276.203339,307.092926 275.464722,307.302612 
z"/>
<path fill="#37342E" opacity="1.000000" stroke="none" 
	d="
M268.967163,309.233429 
	C268.482361,308.942383 268.001923,308.632294 267.521515,308.322235 
	C267.760620,308.059357 267.999756,307.796448 268.238861,307.533569 
	C268.471741,307.888336 268.704620,308.243073 268.965912,308.925568 
	C268.994324,309.253296 268.971558,309.214386 268.967163,309.233429 
z"/>
<path fill="#37342E" opacity="1.000000" stroke="none" 
	d="
M272.458923,308.305298 
	C272.716003,307.947205 273.303986,307.570526 273.950043,307.491577 
	C273.602051,307.955139 273.195953,308.120911 272.458923,308.305298 
z"/>
<path fill="#37342E" opacity="1.000000" stroke="none" 
	d="
M195.753113,297.154602 
	C195.701538,297.341766 195.427536,297.381409 195.080658,297.267731 
	C195.182098,297.078644 195.356384,297.042877 195.753113,297.154602 
z"/>
<path fill="#37342E" opacity="1.000000" stroke="none" 
	d="
M234.361847,312.020050 
	C232.137314,312.581512 229.920120,312.765076 227.702927,312.948608 
	C227.707764,312.305939 227.712601,311.663300 227.717422,311.020660 
	C229.934692,311.227814 232.151947,311.434967 234.361847,312.020050 
z"/>
<path fill="#37342E" opacity="1.000000" stroke="none" 
	d="
M189.908203,308.078186 
	C190.148819,307.604248 190.383469,307.053711 190.693130,306.549225 
	C190.726730,306.494476 191.194031,306.705933 191.460159,306.793915 
	C191.117203,307.200043 190.774246,307.606201 190.129395,308.057678 
	C189.827499,308.103058 189.924042,308.014954 189.908203,308.078186 
z"/>
<path fill="#37342E" opacity="1.000000" stroke="none" 
	d="
M265.553528,308.464111 
	C265.588440,308.520844 265.518616,308.407379 265.553528,308.464111 
z"/>
</svg>